<?xml version="1.0" encoding="UTF-8" standalone="no"?>
<svg width="269.875mm" height="188.383mm"
 viewBox="0 0 765 534"
 xmlns="http://www.w3.org/2000/svg" xmlns:xlink="http://www.w3.org/1999/xlink"  version="1.2" baseProfile="tiny">
<title>Qt SVG Document</title>
<desc>MATLAB, The MathWorks, Inc. Version 25.1.0.2943329 R2025a</desc>
<defs>
</defs>
<g fill="none" stroke="black" stroke-width="1" fill-rule="evenodd" stroke-linecap="square" stroke-linejoin="bevel" >

<g fill="#ffffff" fill-opacity="1" stroke="none" transform="matrix(0.757717,0,0,0.757249,-99.8393,-31.0459)"
font-family="Sans Serif" font-size="9" font-weight="400" font-style="normal" 
>
<path vector-effect="none" fill-rule="evenodd" d="M130,40 L1141,40 L1141,746 L130,746 L130,40"/>
</g>

<g fill="#ffffff" fill-opacity="1" stroke="none" transform="matrix(7.57717e-05,0,0,7.57249e-05,-99.8393,-31.0459)"
font-family="Sans Serif" font-size="9" font-weight="400" font-style="normal" 
>
<path vector-effect="none" fill-rule="evenodd" d="M1.64e+06,590000 L1.64e+06,7.06e+06 L1.139e+07,7.06e+06 L1.139e+07,590000 L1.64e+06,590000"/>
</g>

<g fill="#212121" fill-opacity="1" stroke="#212121" stroke-opacity="1" stroke-width="0.659722" stroke-linecap="square" stroke-linejoin="round" transform="matrix(0.757717,0,0,0.757249,-99.8393,-31.0459)"
font-family="Sans Serif" font-size="9" font-weight="400" font-style="normal" 
>
<polyline fill="none" vector-effect="none" points="164,706 1139,706 " />
<polyline fill="none" vector-effect="none" points="477.393,706 477.393,696.25 " />
<polyline fill="none" vector-effect="none" points="825.607,706 825.607,696.25 " />
</g>

<g fill="#212121" fill-opacity="1" stroke="none" transform="matrix(0.757717,0,0,0.757249,242.567,516.655)"
font-family="Sans Serif" font-size="9" font-weight="400" font-style="normal" 
>
<path vector-effect="none" fill-rule="evenodd" d="M7.40625,0 L6.39063,-2.60938 L2.3125,-2.60938 L1.28125,0 L0.03125,0 L3.67188,-8.9375 L5.04688,-8.9375 L8.64063,0 L7.40625,0 M4.34375,-8.03125 L4.29688,-7.85938 C4.18229,-7.50521 4.02604,-7.05208 3.82813,-6.5 L2.67188,-3.5625 L6.03125,-3.5625 L4.875,-6.51563 C4.76042,-6.80729 4.64063,-7.13542 4.51563,-7.5 L4.34375,-8.03125 M13.875,-1.10938 C13.6563,-0.661458 13.3724,-0.34375 13.0234,-0.15625 C12.6745,0.03125 12.2448,0.125 11.7344,0.125 C10.8594,0.125 10.2188,-0.166667 9.8125,-0.75 C9.40625,-1.33333 9.20313,-2.21875 9.20313,-3.40625 C9.20313,-5.80208 10.0469,-7 11.7344,-7 C12.2552,-7 12.6875,-6.90365 13.0313,-6.71094 C13.375,-6.51823 13.6563,-6.21354 13.875,-5.79688 L13.875,-6.5625 L13.875,-9.42188 L15.0156,-9.42188 L15.0156,-1.42188 C15.0156,-0.703125 15.026,-0.229167 15.0469,0 L13.9531,0 C13.9427,-0.0729167 13.9297,-0.231771 13.9141,-0.476563 C13.8984,-0.721354 13.8906,-0.932292 13.8906,-1.10938 L13.875,-1.10938 M10.4063,-3.4375 C10.4063,-2.47917 10.5313,-1.79167 10.7813,-1.375 C11.0313,-0.958333 11.4427,-0.75 12.0156,-0.75 C12.6615,-0.75 13.1328,-0.973958 13.4297,-1.42188 C13.7266,-1.86979 13.875,-2.56771 13.875,-3.51563 C13.875,-4.42188 13.7266,-5.08854 13.4297,-5.51563 C13.1328,-5.94271 12.6667,-6.15625 12.0313,-6.15625 C11.4583,-6.15625 11.0443,-5.94271 10.7891,-5.51563 C10.5339,-5.08854 10.4063,-4.39583 10.4063,-3.4375 M18.5,0.125 C17.8125,0.125 17.2943,-0.0572917 16.9453,-0.421875 C16.5964,-0.786458 16.4219,-1.28646 16.4219,-1.92188 C16.4219,-2.63021 16.6563,-3.17448 17.125,-3.55469 C17.5938,-3.9349 18.349,-4.14063 19.3906,-4.17188 L20.9375,-4.1875 L20.9375,-4.5625 C20.9375,-5.125 20.8177,-5.52604 20.5781,-5.76563 C20.3385,-6.00521 19.9688,-6.125 19.4688,-6.125 C18.9479,-6.125 18.5729,-6.03906 18.3438,-5.86719 C18.1146,-5.69531 17.974,-5.41667 17.9219,-5.03125 L16.7344,-5.14063 C16.9323,-6.38021 17.849,-7 19.4844,-7 C20.349,-7 21,-6.80208 21.4375,-6.40625 C21.875,-6.01042 22.0938,-5.4375 22.0938,-4.6875 L22.0938,-1.73438 C22.0938,-1.39063 22.138,-1.13281 22.2266,-0.960938 C22.3151,-0.789063 22.4844,-0.703125 22.7344,-0.703125 C22.8385,-0.703125 22.9635,-0.71875 23.1094,-0.75 L23.1094,-0.03125 C22.8177,0.03125 22.5208,0.0625 22.2188,0.0625 C21.8021,0.0625 21.4974,-0.0494792 21.3047,-0.273438 C21.112,-0.497396 21,-0.84375 20.9688,-1.3125 L20.9375,-1.3125 C20.6458,-0.791667 20.3047,-0.421875 19.9141,-0.203125 C19.5234,0.015625 19.0521,0.125 18.5,0.125 M18.7656,-0.734375 C19.1823,-0.734375 19.5547,-0.828125 19.8828,-1.01563 C20.2109,-1.20313 20.4688,-1.46354 20.6563,-1.79688 C20.8438,-2.13021 20.9375,-2.47396 20.9375,-2.82813 L20.9375,-3.39063 L19.6875,-3.35938 C19.1458,-3.35938 18.737,-3.30729 18.4609,-3.20313 C18.1849,-3.09896 17.974,-2.9401 17.8281,-2.72656 C17.6823,-2.51302 17.6094,-2.23438 17.6094,-1.89063 C17.6094,-1.52604 17.7083,-1.24219 17.9063,-1.03906 C18.1042,-0.835938 18.3906,-0.734375 18.7656,-0.734375 M29.7813,-3.46875 C29.7813,-1.07292 28.9375,0.125 27.25,0.125 C26.1979,0.125 25.4896,-0.270833 25.125,-1.0625 L25.0938,-1.0625 C25.1042,-1.03125 25.1094,-0.671875 25.1094,0.015625 L25.1094,2.70313 L23.9688,2.70313 L23.9688,-5.46875 C23.9688,-6.17708 23.9583,-6.64583 23.9375,-6.875 L25.0313,-6.875 C25.0417,-6.85417 25.0495,-6.79167 25.0547,-6.6875 C25.0599,-6.58333 25.0677,-6.42448 25.0781,-6.21094 C25.0885,-5.9974 25.0938,-5.84896 25.0938,-5.76563 L25.125,-5.76563 C25.3333,-6.19271 25.6042,-6.5026 25.9375,-6.69531 C26.2708,-6.88802 26.7083,-6.98438 27.25,-6.98438 C28.0938,-6.98438 28.7266,-6.70052 29.1484,-6.13281 C29.5703,-5.5651 29.7813,-4.67708 29.7813,-3.46875 M28.5781,-3.4375 C28.5781,-4.39583 28.4479,-5.08073 28.1875,-5.49219 C27.9271,-5.90365 27.5156,-6.10938 26.9531,-6.10938 C26.5052,-6.10938 26.1536,-6.01302 25.8984,-5.82031 C25.6432,-5.6276 25.4479,-5.33073 25.3125,-4.92969 C25.1771,-4.52865 25.1094,-4.00521 25.1094,-3.35938 C25.1094,-2.45313 25.2526,-1.78646 25.5391,-1.35938 C25.8255,-0.932292 26.2969,-0.71875 26.9531,-0.71875 C27.5156,-0.71875 27.9271,-0.927083 28.1875,-1.34375 C28.4479,-1.76042 28.5781,-2.45833 28.5781,-3.4375 M33.8281,-0.046875 C33.4531,0.0572917 33.0677,0.109375 32.6719,0.109375 C31.7552,0.109375 31.2969,-0.411458 31.2969,-1.45313 L31.2969,-6.03125 L30.5156,-6.03125 L30.5156,-6.875 L31.3438,-6.875 L31.6875,-8.40625 L32.4531,-8.40625 L32.4531,-6.875 L33.7188,-6.875 L33.7188,-6.03125 L32.4531,-6.03125 L32.4531,-1.70313 C32.4531,-1.36979 32.5052,-1.13802 32.6094,-1.00781 C32.7135,-0.877604 32.901,-0.8125 33.1719,-0.8125 C33.3177,-0.8125 33.5365,-0.838542 33.8281,-0.890625 L33.8281,-0.046875 M34.7969,-8.32813 L34.7969,-9.42188 L35.9375,-9.42188 L35.9375,-8.32813 L34.7969,-8.32813 M34.7969,0 L34.7969,-6.875 L35.9375,-6.875 L35.9375,0 L34.7969,0 M40.6875,0 L39.3438,0 L36.8438,-6.875 L38.0625,-6.875 L39.5781,-2.40625 C39.6302,-2.22917 39.776,-1.72396 40.0156,-0.890625 L40.2344,-1.64063 L40.4844,-2.39063 L42.0469,-6.875 L43.25,-6.875 L40.6875,0 M45.0469,-3.1875 C45.0469,-2.40625 45.2109,-1.80208 45.5391,-1.375 C45.8672,-0.947917 46.3438,-0.734375 46.9688,-0.734375 C47.4583,-0.734375 47.8542,-0.833333 48.1563,-1.03125 C48.4583,-1.22917 48.6615,-1.47917 48.7656,-1.78125 L49.7656,-1.5 C49.3594,-0.416667 48.4271,0.125 46.9688,0.125 C45.9479,0.125 45.1719,-0.177083 44.6406,-0.78125 C44.1094,-1.38542 43.8438,-2.28646 43.8438,-3.48438 C43.8438,-4.61979 44.1094,-5.48958 44.6406,-6.09375 C45.1719,-6.69792 45.9323,-7 46.9219,-7 C48.9427,-7 49.9531,-5.78125 49.9531,-3.34375 L49.9531,-3.1875 L45.0469,-3.1875 M48.7656,-4.0625 C48.7031,-4.79167 48.5208,-5.32292 48.2188,-5.65625 C47.9167,-5.98958 47.4792,-6.15625 46.9063,-6.15625 C46.3542,-6.15625 45.9141,-5.97135 45.5859,-5.60156 C45.2578,-5.23177 45.0833,-4.71875 45.0625,-4.0625 L48.7656,-4.0625"/>
</g>

<g fill="#212121" fill-opacity="1" stroke="none" transform="matrix(0.757717,0,0,0.757249,513.614,516.655)"
font-family="Sans Serif" font-size="9" font-weight="400" font-style="normal" 
>
<path vector-effect="none" fill-rule="evenodd" d="M2.28125,-7.95313 L2.28125,-4.625 L7.26563,-4.625 L7.26563,-3.625 L2.28125,-3.625 L2.28125,0 L1.0625,0 L1.0625,-8.9375 L7.42188,-8.9375 L7.42188,-7.95313 L2.28125,-7.95313 M8.8125,-8.32813 L8.8125,-9.42188 L9.95313,-9.42188 L9.95313,-8.32813 L8.8125,-8.32813 M8.8125,0 L8.8125,-6.875 L9.95313,-6.875 L9.95313,0 L8.8125,0 M15.8906,0 L14.0469,-2.8125 L12.1875,0 L10.9531,0 L13.4063,-3.53125 L11.0781,-6.875 L12.3438,-6.875 L14.0469,-4.20313 L15.75,-6.875 L17.0313,-6.875 L14.7031,-3.54688 L17.1719,0 L15.8906,0 M19.0625,-3.1875 C19.0625,-2.40625 19.2266,-1.80208 19.5547,-1.375 C19.8828,-0.947917 20.3594,-0.734375 20.9844,-0.734375 C21.474,-0.734375 21.8698,-0.833333 22.1719,-1.03125 C22.474,-1.22917 22.6771,-1.47917 22.7813,-1.78125 L23.7813,-1.5 C23.375,-0.416667 22.4427,0.125 20.9844,0.125 C19.9635,0.125 19.1875,-0.177083 18.6563,-0.78125 C18.125,-1.38542 17.8594,-2.28646 17.8594,-3.48438 C17.8594,-4.61979 18.125,-5.48958 18.6563,-6.09375 C19.1875,-6.69792 19.9479,-7 20.9375,-7 C22.9583,-7 23.9688,-5.78125 23.9688,-3.34375 L23.9688,-3.1875 L19.0625,-3.1875 M22.7813,-4.0625 C22.7188,-4.79167 22.5365,-5.32292 22.2344,-5.65625 C21.9323,-5.98958 21.4948,-6.15625 20.9219,-6.15625 C20.3698,-6.15625 19.9297,-5.97135 19.6016,-5.60156 C19.2734,-5.23177 19.099,-4.71875 19.0781,-4.0625 L22.7813,-4.0625 M29.75,-1.10938 C29.5313,-0.661458 29.2474,-0.34375 28.8984,-0.15625 C28.5495,0.03125 28.1198,0.125 27.6094,0.125 C26.7344,0.125 26.0938,-0.166667 25.6875,-0.75 C25.2813,-1.33333 25.0781,-2.21875 25.0781,-3.40625 C25.0781,-5.80208 25.9219,-7 27.6094,-7 C28.1302,-7 28.5625,-6.90365 28.9063,-6.71094 C29.25,-6.51823 29.5313,-6.21354 29.75,-5.79688 L29.75,-6.5625 L29.75,-9.42188 L30.8906,-9.42188 L30.8906,-1.42188 C30.8906,-0.703125 30.901,-0.229167 30.9219,0 L29.8281,0 C29.8177,-0.0729167 29.8047,-0.231771 29.7891,-0.476563 C29.7734,-0.721354 29.7656,-0.932292 29.7656,-1.10938 L29.75,-1.10938 M26.2813,-3.4375 C26.2813,-2.47917 26.4063,-1.79167 26.6563,-1.375 C26.9063,-0.958333 27.3177,-0.75 27.8906,-0.75 C28.5365,-0.75 29.0078,-0.973958 29.3047,-1.42188 C29.6016,-1.86979 29.75,-2.56771 29.75,-3.51563 C29.75,-4.42188 29.6016,-5.08854 29.3047,-5.51563 C29.0078,-5.94271 28.5417,-6.15625 27.9063,-6.15625 C27.3333,-6.15625 26.9193,-5.94271 26.6641,-5.51563 C26.4089,-5.08854 26.2813,-4.39583 26.2813,-3.4375 "/>
</g>

<g fill="#212121" fill-opacity="1" stroke="none" transform="matrix(0.757717,0,0,0.757249,374.112,529.77)"
font-family="Sans Serif" font-size="9" font-weight="400" font-style="normal" 
>
<path vector-effect="none" fill-rule="evenodd" d="M8.70313,-2.65625 C8.70313,-1.77083 8.35417,-1.08333 7.65625,-0.59375 C6.95833,-0.104167 5.97917,0.140625 4.71875,0.140625 C2.375,0.140625 1.01563,-0.677083 0.640625,-2.3125 L1.90625,-2.5625 C2.05208,-1.98958 2.36198,-1.5651 2.83594,-1.28906 C3.3099,-1.01302 3.95313,-0.875 4.76563,-0.875 C5.60938,-0.875 6.26042,-1.02083 6.71875,-1.3125 C7.17708,-1.60417 7.40625,-2.03125 7.40625,-2.59375 C7.40625,-2.90625 7.33333,-3.16146 7.1875,-3.35938 C7.04167,-3.55729 6.83854,-3.71875 6.57813,-3.84375 C6.31771,-3.96875 6.00781,-4.07552 5.64844,-4.16406 C5.28906,-4.2526 4.89063,-4.34375 4.45313,-4.4375 C3.69271,-4.61458 3.11719,-4.78646 2.72656,-4.95313 C2.33594,-5.11979 2.02604,-5.30729 1.79688,-5.51563 C1.56771,-5.72396 1.39323,-5.96615 1.27344,-6.24219 C1.15365,-6.51823 1.09375,-6.83854 1.09375,-7.20313 C1.09375,-8.02604 1.40885,-8.66146 2.03906,-9.10938 C2.66927,-9.55729 3.57292,-9.78125 4.75,-9.78125 C5.84375,-9.78125 6.67969,-9.61198 7.25781,-9.27344 C7.83594,-8.9349 8.23958,-8.36458 8.46875,-7.5625 L7.1875,-7.32813 C7.04167,-7.83854 6.77083,-8.21094 6.375,-8.44531 C5.97917,-8.67969 5.43229,-8.79688 4.73438,-8.79688 C3.96354,-8.79688 3.375,-8.66927 2.96875,-8.41406 C2.5625,-8.15885 2.35938,-7.77604 2.35938,-7.26563 C2.35938,-6.97396 2.4375,-6.72917 2.59375,-6.53125 C2.75,-6.33333 2.97656,-6.16927 3.27344,-6.03906 C3.57031,-5.90885 4.16146,-5.74479 5.04688,-5.54688 C5.33854,-5.47396 5.63281,-5.40365 5.92969,-5.33594 C6.22656,-5.26823 6.50781,-5.1849 6.77344,-5.08594 C7.03906,-4.98698 7.28906,-4.8724 7.52344,-4.74219 C7.75781,-4.61198 7.96354,-4.45052 8.14063,-4.25781 C8.31771,-4.0651 8.45573,-3.83854 8.55469,-3.57813 C8.65365,-3.31771 8.70313,-3.01042 8.70313,-2.65625 M13.1094,-0.0625 C12.7031,0.0520833 12.2917,0.109375 11.875,0.109375 C10.8854,0.109375 10.3906,-0.447917 10.3906,-1.5625 L10.3906,-6.5 L9.54688,-6.5 L9.54688,-7.39063 L10.4375,-7.39063 L10.8125,-9.04688 L11.625,-9.04688 L11.625,-7.39063 L13,-7.39063 L13,-6.5 L11.625,-6.5 L11.625,-1.82813 C11.625,-1.47396 11.6823,-1.22656 11.7969,-1.08594 C11.9115,-0.945313 12.1146,-0.875 12.4063,-0.875 C12.5729,-0.875 12.8073,-0.90625 13.1094,-0.96875 L13.1094,-0.0625 M14.1719,0 L14.1719,-5.67188 C14.1719,-6.19271 14.1615,-6.76563 14.1406,-7.39063 L15.2969,-7.39063 C15.3281,-6.55729 15.3438,-6.05729 15.3438,-5.89063 L15.375,-5.89063 C15.5729,-6.52604 15.7995,-6.95833 16.0547,-7.1875 C16.3099,-7.41667 16.6719,-7.53125 17.1406,-7.53125 C17.2969,-7.53125 17.4635,-7.51042 17.6406,-7.46875 L17.6406,-6.34375 C17.474,-6.38542 17.2552,-6.40625 16.9844,-6.40625 C16.474,-6.40625 16.0833,-6.1875 15.8125,-5.75 C15.5417,-5.3125 15.4063,-4.68229 15.4063,-3.85938 L15.4063,0 L14.1719,0 M20.6875,0.140625 C19.9479,0.140625 19.3906,-0.0572917 19.0156,-0.453125 C18.6406,-0.848958 18.4531,-1.38542 18.4531,-2.0625 C18.4531,-2.83333 18.7057,-3.42188 19.2109,-3.82813 C19.7161,-4.23438 20.526,-4.45313 21.6406,-4.48438 L23.3125,-4.51563 L23.3125,-4.92188 C23.3125,-5.51563 23.1849,-5.94271 22.9297,-6.20313 C22.6745,-6.46354 22.2708,-6.59375 21.7188,-6.59375 C21.1667,-6.59375 20.7656,-6.5 20.5156,-6.3125 C20.2656,-6.125 20.1146,-5.82813 20.0625,-5.42188 L18.7813,-5.53125 C18.9896,-6.86458 19.9792,-7.53125 21.75,-7.53125 C22.6771,-7.53125 23.375,-7.31771 23.8438,-6.89063 C24.3125,-6.46354 24.5469,-5.84896 24.5469,-5.04688 L24.5469,-1.85938 C24.5469,-1.49479 24.5964,-1.22135 24.6953,-1.03906 C24.7943,-0.856771 24.9792,-0.765625 25.25,-0.765625 C25.3646,-0.765625 25.4948,-0.78125 25.6406,-0.8125 L25.6406,-0.046875 C25.3385,0.0260417 25.026,0.0625 24.7031,0.0625 C24.2448,0.0625 23.9115,-0.0572917 23.7031,-0.296875 C23.4948,-0.536458 23.375,-0.911458 23.3438,-1.42188 L23.3125,-1.42188 C23,-0.848958 22.6328,-0.445313 22.2109,-0.210938 C21.7891,0.0234375 21.2813,0.140625 20.6875,0.140625 M20.9688,-0.78125 C21.4167,-0.78125 21.8177,-0.885417 22.1719,-1.09375 C22.526,-1.30208 22.8047,-1.58333 23.0078,-1.9375 C23.2109,-2.29167 23.3125,-2.66146 23.3125,-3.04688 L23.3125,-3.65625 L21.9688,-3.625 C21.3854,-3.61458 20.9453,-3.55469 20.6484,-3.44531 C20.3516,-3.33594 20.1224,-3.16667 19.9609,-2.9375 C19.7995,-2.70833 19.7188,-2.41146 19.7188,-2.04688 C19.7188,-1.64063 19.8281,-1.32813 20.0469,-1.10938 C20.2656,-0.890625 20.5729,-0.78125 20.9688,-0.78125 M29.4219,-0.0625 C29.0156,0.0520833 28.6042,0.109375 28.1875,0.109375 C27.1979,0.109375 26.7031,-0.447917 26.7031,-1.5625 L26.7031,-6.5 L25.8594,-6.5 L25.8594,-7.39063 L26.75,-7.39063 L27.125,-9.04688 L27.9375,-9.04688 L27.9375,-7.39063 L29.3125,-7.39063 L29.3125,-6.5 L27.9375,-6.5 L27.9375,-1.82813 C27.9375,-1.47396 27.9948,-1.22656 28.1094,-1.08594 C28.224,-0.945313 28.4271,-0.875 28.7188,-0.875 C28.8854,-0.875 29.1198,-0.90625 29.4219,-0.96875 L29.4219,-0.0625 M31.4063,-3.4375 C31.4063,-2.59375 31.5807,-1.9401 31.9297,-1.47656 C32.2786,-1.01302 32.7917,-0.78125 33.4688,-0.78125 C34,-0.78125 34.4271,-0.888021 34.75,-1.10156 C35.0729,-1.3151 35.2917,-1.58854 35.4063,-1.92188 L36.4844,-1.60938 C36.0365,-0.442708 35.0313,0.140625 33.4688,0.140625 C32.375,0.140625 31.5417,-0.184896 30.9688,-0.835938 C30.3958,-1.48698 30.1094,-2.45833 30.1094,-3.75 C30.1094,-4.96875 30.3958,-5.90365 30.9688,-6.55469 C31.5417,-7.20573 32.3594,-7.53125 33.4219,-7.53125 C35.599,-7.53125 36.6875,-6.22396 36.6875,-3.60938 L36.6875,-3.4375 L31.4063,-3.4375 M35.4063,-4.375 C35.3438,-5.15625 35.1484,-5.72656 34.8203,-6.08594 C34.4922,-6.44531 34.0208,-6.625 33.4063,-6.625 C32.8021,-6.625 32.3255,-6.42448 31.9766,-6.02344 C31.6276,-5.6224 31.4427,-5.07292 31.4219,-4.375 L35.4063,-4.375 M41.0469,2.90625 C40.2344,2.90625 39.5885,2.7474 39.1094,2.42969 C38.6302,2.11198 38.3229,1.66146 38.1875,1.07813 L39.4375,0.90625 C39.5104,1.25 39.6875,1.51302 39.9688,1.69531 C40.25,1.8776 40.6198,1.96875 41.0781,1.96875 C42.3073,1.96875 42.9219,1.25 42.9219,-0.1875 L42.9219,-1.375 L42.9063,-1.375 C42.6667,-0.895833 42.3464,-0.536458 41.9453,-0.296875 C41.5443,-0.0572917 41.0729,0.0625 40.5313,0.0625 C39.6146,0.0625 38.9453,-0.239583 38.5234,-0.84375 C38.1016,-1.44792 37.8906,-2.39583 37.8906,-3.6875 C37.8906,-4.98958 38.1198,-5.95313 38.5781,-6.57813 C39.0365,-7.20313 39.7292,-7.51563 40.6563,-7.51563 C41.1875,-7.51563 41.6458,-7.39583 42.0313,-7.15625 C42.4167,-6.91667 42.7135,-6.57292 42.9219,-6.125 L42.9375,-6.125 C42.9375,-6.27083 42.9453,-6.51042 42.9609,-6.84375 C42.9766,-7.17708 42.9948,-7.35938 43.0156,-7.39063 L44.1875,-7.39063 C44.1563,-7.15104 44.1406,-6.64063 44.1406,-5.85938 L44.1406,-0.21875 C44.1406,1.86458 43.1094,2.90625 41.0469,2.90625 M42.9219,-3.70313 C42.9219,-4.29688 42.8385,-4.8125 42.6719,-5.25 C42.5052,-5.6875 42.2734,-6.02083 41.9766,-6.25 C41.6797,-6.47917 41.3438,-6.59375 40.9688,-6.59375 C40.3333,-6.59375 39.8724,-6.36719 39.5859,-5.91406 C39.2995,-5.46094 39.1563,-4.72396 39.1563,-3.70313 C39.1563,-2.69271 39.2917,-1.96615 39.5625,-1.52344 C39.8333,-1.08073 40.2917,-0.859375 40.9375,-0.859375 C41.3229,-0.859375 41.6667,-0.971354 41.9688,-1.19531 C42.2708,-1.41927 42.5052,-1.74479 42.6719,-2.17188 C42.8385,-2.59896 42.9219,-3.10938 42.9219,-3.70313 M46.3906,2.90625 C46.0469,2.90625 45.7604,2.88021 45.5313,2.82813 L45.5313,1.90625 C45.7083,1.9375 45.901,1.95313 46.1094,1.95313 C46.8802,1.95313 47.4844,1.39063 47.9219,0.265625 L48.0469,-0.03125 L45.1094,-7.39063 L46.4219,-7.39063 L47.9844,-3.3125 C48.0052,-3.25 48.0313,-3.17448 48.0625,-3.08594 C48.0938,-2.9974 48.1979,-2.69792 48.375,-2.1875 C48.5521,-1.67708 48.6458,-1.39583 48.6563,-1.34375 L49.125,-2.6875 L50.75,-7.39063 L52.0469,-7.39063 L49.2031,0 C48.901,0.791667 48.6172,1.38021 48.3516,1.76563 C48.0859,2.15104 47.7943,2.4375 47.4766,2.625 C47.1589,2.8125 46.7969,2.90625 46.3906,2.90625 "/>
</g>

<g fill="#212121" fill-opacity="1" stroke="#212121" stroke-opacity="1" stroke-width="0.659722" stroke-linecap="square" stroke-linejoin="round" transform="matrix(0.757717,0,0,0.757249,-99.8393,-31.0459)"
font-family="Sans Serif" font-size="9" font-weight="400" font-style="normal" 
>
<polyline fill="none" vector-effect="none" points="164,706 164,59 " />
<polyline fill="none" vector-effect="none" points="164,706 173.75,706 " />
<polyline fill="none" vector-effect="none" points="164,613.571 173.75,613.571 " />
<polyline fill="none" vector-effect="none" points="164,521.143 173.75,521.143 " />
<polyline fill="none" vector-effect="none" points="164,428.714 173.75,428.714 " />
<polyline fill="none" vector-effect="none" points="164,336.286 173.75,336.286 " />
<polyline fill="none" vector-effect="none" points="164,243.857 173.75,243.857 " />
<polyline fill="none" vector-effect="none" points="164,151.429 173.75,151.429 " />
<polyline fill="none" vector-effect="none" points="164,59 173.75,59 " />
</g>

<g fill="#212121" fill-opacity="1" stroke="none" transform="matrix(0.757717,0,0,0.757249,15.1231,506.979)"
font-family="Sans Serif" font-size="9" font-weight="400" font-style="normal" 
>
<path vector-effect="none" fill-rule="evenodd" d="M6.71875,-4.46875 C6.71875,-2.97917 6.45573,-1.84115 5.92969,-1.05469 C5.40365,-0.268229 4.625,0.125 3.59375,0.125 C2.57292,0.125 1.80469,-0.265625 1.28906,-1.04688 C0.773438,-1.82813 0.515625,-2.96875 0.515625,-4.46875 C0.515625,-6.01042 0.765625,-7.16406 1.26563,-7.92969 C1.76563,-8.69531 2.55729,-9.07813 3.64063,-9.07813 C4.69271,-9.07813 5.46875,-8.6901 5.96875,-7.91406 C6.46875,-7.13802 6.71875,-5.98958 6.71875,-4.46875 M5.5625,-4.46875 C5.5625,-5.76042 5.41406,-6.69792 5.11719,-7.28125 C4.82031,-7.86458 4.32813,-8.15625 3.64063,-8.15625 C2.93229,-8.15625 2.42448,-7.86979 2.11719,-7.29688 C1.8099,-6.72396 1.65625,-5.78125 1.65625,-4.46875 C1.65625,-3.20833 1.8125,-2.28385 2.125,-1.69531 C2.4375,-1.10677 2.93229,-0.8125 3.60938,-0.8125 C4.28646,-0.8125 4.78125,-1.11198 5.09375,-1.71094 C5.40625,-2.3099 5.5625,-3.22917 5.5625,-4.46875 "/>
</g>

<g fill="#212121" fill-opacity="1" stroke="none" transform="matrix(0.757717,0,0,0.757249,15.1231,436.988)"
font-family="Sans Serif" font-size="9" font-weight="400" font-style="normal" 
>
<path vector-effect="none" fill-rule="evenodd" d="M0.984375,0 L0.984375,-0.96875 L3.26563,-0.96875 L3.26563,-7.85938 L1.25,-6.40625 L1.25,-7.48438 L3.35938,-8.9375 L4.42188,-8.9375 L4.42188,-0.96875 L6.59375,-0.96875 L6.59375,0 L0.984375,0"/>
</g>

<g fill="#212121" fill-opacity="1" stroke="none" transform="matrix(0.757717,0,0,0.757249,15.1231,366.996)"
font-family="Sans Serif" font-size="9" font-weight="400" font-style="normal" 
>
<path vector-effect="none" fill-rule="evenodd" d="M0.65625,0 L0.65625,-0.8125 C0.875,-1.30208 1.13802,-1.73698 1.44531,-2.11719 C1.7526,-2.4974 2.07813,-2.84115 2.42188,-3.14844 C2.76563,-3.45573 3.10677,-3.73958 3.44531,-4 C3.78385,-4.26042 4.08854,-4.52344 4.35938,-4.78906 C4.63021,-5.05469 4.84896,-5.33073 5.01563,-5.61719 C5.18229,-5.90365 5.26563,-6.22917 5.26563,-6.59375 C5.26563,-7.08333 5.1224,-7.46354 4.83594,-7.73438 C4.54948,-8.00521 4.14583,-8.14063 3.625,-8.14063 C3.14583,-8.14063 2.7474,-8.00781 2.42969,-7.74219 C2.11198,-7.47656 1.92708,-7.10417 1.875,-6.625 L0.703125,-6.73438 C0.786458,-7.45313 1.09115,-8.02344 1.61719,-8.44531 C2.14323,-8.86719 2.8125,-9.07813 3.625,-9.07813 C4.53125,-9.07813 5.22656,-8.86458 5.71094,-8.4375 C6.19531,-8.01042 6.4375,-7.40625 6.4375,-6.625 C6.4375,-6.28125 6.35677,-5.9375 6.19531,-5.59375 C6.03385,-5.25 5.79688,-4.90625 5.48438,-4.5625 C5.17188,-4.21875 4.57292,-3.6875 3.6875,-2.96875 C3.20833,-2.57292 2.82292,-2.21615 2.53125,-1.89844 C2.23958,-1.58073 2.03125,-1.27083 1.90625,-0.96875 L6.57813,-0.96875 L6.57813,0 L0.65625,0"/>
</g>

<g fill="#212121" fill-opacity="1" stroke="none" transform="matrix(0.757717,0,0,0.757249,15.1231,297.005)"
font-family="Sans Serif" font-size="9" font-weight="400" font-style="normal" 
>
<path vector-effect="none" fill-rule="evenodd" d="M6.65625,-2.46875 C6.65625,-1.64583 6.39323,-1.00781 5.86719,-0.554688 C5.34115,-0.101563 4.59375,0.125 3.625,0.125 C2.71875,0.125 1.99479,-0.078125 1.45313,-0.484375 C0.911458,-0.890625 0.59375,-1.49479 0.5,-2.29688 L1.67188,-2.40625 C1.82813,-1.34375 2.47917,-0.8125 3.625,-0.8125 C4.19792,-0.8125 4.64844,-0.955729 4.97656,-1.24219 C5.30469,-1.52865 5.46875,-1.94792 5.46875,-2.5 C5.46875,-2.98958 5.28125,-3.3724 4.90625,-3.64844 C4.53125,-3.92448 3.98958,-4.0625 3.28125,-4.0625 L2.64063,-4.0625 L2.64063,-5.04688 L3.26563,-5.04688 C3.89063,-5.04688 4.375,-5.18229 4.71875,-5.45313 C5.0625,-5.72396 5.23438,-6.10417 5.23438,-6.59375 C5.23438,-7.07292 5.09375,-7.45052 4.8125,-7.72656 C4.53125,-8.0026 4.11458,-8.14063 3.5625,-8.14063 C3.0625,-8.14063 2.65625,-8.01042 2.34375,-7.75 C2.03125,-7.48958 1.84896,-7.125 1.79688,-6.65625 L0.640625,-6.75 C0.734375,-7.47917 1.04167,-8.04948 1.5625,-8.46094 C2.08333,-8.8724 2.75521,-9.07813 3.57813,-9.07813 C4.47396,-9.07813 5.16927,-8.86979 5.66406,-8.45313 C6.15885,-8.03646 6.40625,-7.45313 6.40625,-6.70313 C6.40625,-6.14063 6.2474,-5.67969 5.92969,-5.32031 C5.61198,-4.96094 5.14583,-4.71875 4.53125,-4.59375 L4.53125,-4.5625 C5.20833,-4.48958 5.73177,-4.26563 6.10156,-3.89063 C6.47135,-3.51563 6.65625,-3.04167 6.65625,-2.46875 "/>
</g>

<g fill="#212121" fill-opacity="1" stroke="none" transform="matrix(0.757717,0,0,0.757249,15.1231,227.014)"
font-family="Sans Serif" font-size="9" font-weight="400" font-style="normal" 
>
<path vector-effect="none" fill-rule="evenodd" d="M5.59375,-2.03125 L5.59375,0 L4.51563,0 L4.51563,-2.03125 L0.296875,-2.03125 L0.296875,-2.90625 L4.39063,-8.9375 L5.59375,-8.9375 L5.59375,-2.92188 L6.84375,-2.92188 L6.84375,-2.03125 L5.59375,-2.03125 M4.51563,-7.65625 C4.50521,-7.63542 4.44531,-7.52344 4.33594,-7.32031 C4.22656,-7.11719 4.14583,-6.97917 4.09375,-6.90625 L1.79688,-3.51563 L1.45313,-3.04688 L1.35938,-2.92188 L4.51563,-2.92188 L4.51563,-7.65625"/>
</g>

<g fill="#212121" fill-opacity="1" stroke="none" transform="matrix(0.757717,0,0,0.757249,15.1231,157.022)"
font-family="Sans Serif" font-size="9" font-weight="400" font-style="normal" 
>
<path vector-effect="none" fill-rule="evenodd" d="M6.6875,-2.90625 C6.6875,-1.96875 6.40625,-1.22917 5.84375,-0.6875 C5.28125,-0.145833 4.50521,0.125 3.51563,0.125 C2.68229,0.125 2.00781,-0.0572917 1.49219,-0.421875 C0.976563,-0.786458 0.651042,-1.3125 0.515625,-2 L1.67188,-2.14063 C1.91146,-1.25521 2.53125,-0.8125 3.53125,-0.8125 C4.14583,-0.8125 4.6276,-0.997396 4.97656,-1.36719 C5.32552,-1.73698 5.5,-2.24479 5.5,-2.89063 C5.5,-3.45313 5.32552,-3.90885 4.97656,-4.25781 C4.6276,-4.60677 4.15625,-4.78125 3.5625,-4.78125 C3.25,-4.78125 2.96094,-4.73177 2.69531,-4.63281 C2.42969,-4.53385 2.16146,-4.36458 1.89063,-4.125 L0.78125,-4.125 L1.07813,-8.9375 L6.15625,-8.9375 L6.15625,-7.96875 L2.125,-7.96875 L1.95313,-5.14063 C2.44271,-5.51563 3.05729,-5.70313 3.79688,-5.70313 C4.67188,-5.70313 5.3724,-5.44531 5.89844,-4.92969 C6.42448,-4.41406 6.6875,-3.73958 6.6875,-2.90625 "/>
</g>

<g fill="#212121" fill-opacity="1" stroke="none" transform="matrix(0.757717,0,0,0.757249,15.1231,87.0308)"
font-family="Sans Serif" font-size="9" font-weight="400" font-style="normal" 
>
<path vector-effect="none" fill-rule="evenodd" d="M6.65625,-2.92188 C6.65625,-1.98438 6.40104,-1.24219 5.89063,-0.695313 C5.38021,-0.148438 4.67188,0.125 3.76563,0.125 C2.76563,0.125 1.9974,-0.25 1.46094,-1 C0.924479,-1.75 0.65625,-2.83854 0.65625,-4.26563 C0.65625,-5.81771 0.934896,-7.00781 1.49219,-7.83594 C2.04948,-8.66406 2.83854,-9.07813 3.85938,-9.07813 C5.21354,-9.07813 6.0625,-8.46875 6.40625,-7.25 L5.3125,-7.0625 C5.09375,-7.79167 4.60417,-8.15625 3.84375,-8.15625 C3.19792,-8.15625 2.69531,-7.85156 2.33594,-7.24219 C1.97656,-6.63281 1.79688,-5.75521 1.79688,-4.60938 C2.00521,-4.99479 2.29688,-5.28646 2.67188,-5.48438 C3.04688,-5.68229 3.47917,-5.78125 3.96875,-5.78125 C4.79167,-5.78125 5.44531,-5.52344 5.92969,-5.00781 C6.41406,-4.49219 6.65625,-3.79688 6.65625,-2.92188 M5.5,-2.875 C5.5,-3.52083 5.34115,-4.02083 5.02344,-4.375 C4.70573,-4.72917 4.26042,-4.90625 3.6875,-4.90625 C3.15625,-4.90625 2.72656,-4.75 2.39844,-4.4375 C2.07031,-4.125 1.90625,-3.69792 1.90625,-3.15625 C1.90625,-2.45833 2.07813,-1.89063 2.42188,-1.45313 C2.76563,-1.01563 3.20313,-0.796875 3.73438,-0.796875 C4.28646,-0.796875 4.71875,-0.981771 5.03125,-1.35156 C5.34375,-1.72135 5.5,-2.22917 5.5,-2.875 "/>
</g>

<g fill="#212121" fill-opacity="1" stroke="none" transform="matrix(0.757717,0,0,0.757249,15.1231,17.0394)"
font-family="Sans Serif" font-size="9" font-weight="400" font-style="normal" 
>
<path vector-effect="none" fill-rule="evenodd" d="M6.57813,-8.01563 C5.66146,-6.61979 5.01563,-5.52604 4.64063,-4.73438 C4.26563,-3.94271 3.98438,-3.16146 3.79688,-2.39063 C3.60938,-1.61979 3.51563,-0.822917 3.51563,0 L2.3125,0 C2.3125,-1.14583 2.55469,-2.34896 3.03906,-3.60938 C3.52344,-4.86979 4.33333,-6.32292 5.46875,-7.96875 L0.671875,-7.96875 L0.671875,-8.9375 L6.57813,-8.9375 L6.57813,-8.01563"/>
</g>

<g fill="#212121" fill-opacity="1" stroke="none" transform="matrix(0,-0.757249,0.757717,0,9.09296,299.115)"
font-family="Sans Serif" font-size="9" font-weight="400" font-style="normal" 
>
<path vector-effect="none" fill-rule="evenodd" d="M4.92188,-8.5625 L4.92188,0 L3.625,0 L3.625,-8.5625 L0.3125,-8.5625 L0.3125,-9.625 L8.23438,-9.625 L8.23438,-8.5625 L4.92188,-8.5625 M10.7188,-6.125 C10.9792,-6.61458 11.2943,-6.97135 11.6641,-7.19531 C12.0339,-7.41927 12.5052,-7.53125 13.0781,-7.53125 C13.8802,-7.53125 14.4714,-7.33333 14.8516,-6.9375 C15.2318,-6.54167 15.4219,-5.86979 15.4219,-4.92188 L15.4219,0 L14.1875,0 L14.1875,-4.6875 C14.1875,-5.20833 14.1406,-5.59635 14.0469,-5.85156 C13.9531,-6.10677 13.7969,-6.29167 13.5781,-6.40625 C13.3594,-6.52083 13.0521,-6.57813 12.6563,-6.57813 C12.0833,-6.57813 11.6224,-6.3776 11.2734,-5.97656 C10.9245,-5.57552 10.75,-5.03646 10.75,-4.35938 L10.75,0 L9.51563,0 L9.51563,-10.1406 L10.75,-10.1406 L10.75,-7.5 C10.75,-7.22917 10.7422,-6.94531 10.7266,-6.64844 C10.7109,-6.35156 10.6979,-6.17708 10.6875,-6.125 L10.7188,-6.125 M17.2969,0 L17.2969,-5.67188 C17.2969,-6.19271 17.2865,-6.76563 17.2656,-7.39063 L18.4219,-7.39063 C18.4531,-6.55729 18.4688,-6.05729 18.4688,-5.89063 L18.5,-5.89063 C18.6979,-6.52604 18.9245,-6.95833 19.1797,-7.1875 C19.4349,-7.41667 19.7969,-7.53125 20.2656,-7.53125 C20.4219,-7.53125 20.5885,-7.51042 20.7656,-7.46875 L20.7656,-6.34375 C20.599,-6.38542 20.3802,-6.40625 20.1094,-6.40625 C19.599,-6.40625 19.2083,-6.1875 18.9375,-5.75 C18.6667,-5.3125 18.5313,-4.68229 18.5313,-3.85938 L18.5313,0 L17.2969,0 M28.1875,-3.70313 C28.1875,-2.41146 27.901,-1.44792 27.3281,-0.8125 C26.7552,-0.177083 25.9271,0.140625 24.8438,0.140625 C23.7708,0.140625 22.9583,-0.190104 22.4063,-0.851563 C21.8542,-1.51302 21.5781,-2.46354 21.5781,-3.70313 C21.5781,-6.25521 22.6823,-7.53125 24.8906,-7.53125 C26.0156,-7.53125 26.8464,-7.22135 27.3828,-6.60156 C27.9193,-5.98177 28.1875,-5.01563 28.1875,-3.70313 M26.8906,-3.70313 C26.8906,-4.72396 26.7396,-5.46615 26.4375,-5.92969 C26.1354,-6.39323 25.625,-6.625 24.9063,-6.625 C24.1875,-6.625 23.6667,-6.38802 23.3438,-5.91406 C23.0208,-5.4401 22.8594,-4.70313 22.8594,-3.70313 C22.8594,-2.73438 23.0182,-2.0026 23.3359,-1.50781 C23.6536,-1.01302 24.151,-0.765625 24.8281,-0.765625 C25.5677,-0.765625 26.0964,-1.0026 26.4141,-1.47656 C26.7318,-1.95052 26.8906,-2.69271 26.8906,-3.70313 M30.9063,-7.39063 L30.9063,-2.70313 C30.9063,-2.21354 30.9557,-1.83594 31.0547,-1.57031 C31.1536,-1.30469 31.3073,-1.11198 31.5156,-0.992188 C31.724,-0.872396 32.0313,-0.8125 32.4375,-0.8125 C33.0313,-0.8125 33.4974,-1.01563 33.8359,-1.42188 C34.1745,-1.82813 34.3438,-2.39063 34.3438,-3.10938 L34.3438,-7.39063 L35.5781,-7.39063 L35.5781,-1.57813 C35.5781,-0.713542 35.5938,-0.1875 35.625,0 L34.4531,0 C34.4531,-0.0208333 34.4505,-0.0807292 34.4453,-0.179688 C34.4401,-0.278646 34.4349,-0.393229 34.4297,-0.523438 C34.4245,-0.653646 34.4167,-0.901042 34.4063,-1.26563 L34.3906,-1.26563 C34.1094,-0.755208 33.7813,-0.393229 33.4063,-0.179688 C33.0313,0.0338542 32.5677,0.140625 32.0156,0.140625 C31.2031,0.140625 30.6094,-0.0625 30.2344,-0.46875 C29.8594,-0.875 29.6719,-1.54167 29.6719,-2.46875 L29.6719,-7.39063 L30.9063,-7.39063 M40.2969,2.90625 C39.4844,2.90625 38.8385,2.7474 38.3594,2.42969 C37.8802,2.11198 37.5729,1.66146 37.4375,1.07813 L38.6875,0.90625 C38.7604,1.25 38.9375,1.51302 39.2188,1.69531 C39.5,1.8776 39.8698,1.96875 40.3281,1.96875 C41.5573,1.96875 42.1719,1.25 42.1719,-0.1875 L42.1719,-1.375 L42.1563,-1.375 C41.9167,-0.895833 41.5964,-0.536458 41.1953,-0.296875 C40.7943,-0.0572917 40.3229,0.0625 39.7813,0.0625 C38.8646,0.0625 38.1953,-0.239583 37.7734,-0.84375 C37.3516,-1.44792 37.1406,-2.39583 37.1406,-3.6875 C37.1406,-4.98958 37.3698,-5.95313 37.8281,-6.57813 C38.2865,-7.20313 38.9792,-7.51563 39.9063,-7.51563 C40.4375,-7.51563 40.8958,-7.39583 41.2813,-7.15625 C41.6667,-6.91667 41.9635,-6.57292 42.1719,-6.125 L42.1875,-6.125 C42.1875,-6.27083 42.1953,-6.51042 42.2109,-6.84375 C42.2266,-7.17708 42.2448,-7.35938 42.2656,-7.39063 L43.4375,-7.39063 C43.4063,-7.15104 43.3906,-6.64063 43.3906,-5.85938 L43.3906,-0.21875 C43.3906,1.86458 42.3594,2.90625 40.2969,2.90625 M42.1719,-3.70313 C42.1719,-4.29688 42.0885,-4.8125 41.9219,-5.25 C41.7552,-5.6875 41.5234,-6.02083 41.2266,-6.25 C40.9297,-6.47917 40.5938,-6.59375 40.2188,-6.59375 C39.5833,-6.59375 39.1224,-6.36719 38.8359,-5.91406 C38.5495,-5.46094 38.4063,-4.72396 38.4063,-3.70313 C38.4063,-2.69271 38.5417,-1.96615 38.8125,-1.52344 C39.0833,-1.08073 39.5417,-0.859375 40.1875,-0.859375 C40.5729,-0.859375 40.9167,-0.971354 41.2188,-1.19531 C41.5208,-1.41927 41.7552,-1.74479 41.9219,-2.17188 C42.0885,-2.59896 42.1719,-3.10938 42.1719,-3.70313 M46.5,-6.125 C46.7604,-6.61458 47.0755,-6.97135 47.4453,-7.19531 C47.8151,-7.41927 48.2865,-7.53125 48.8594,-7.53125 C49.6615,-7.53125 50.2526,-7.33333 50.6328,-6.9375 C51.013,-6.54167 51.2031,-5.86979 51.2031,-4.92188 L51.2031,0 L49.9688,0 L49.9688,-4.6875 C49.9688,-5.20833 49.9219,-5.59635 49.8281,-5.85156 C49.7344,-6.10677 49.5781,-6.29167 49.3594,-6.40625 C49.1406,-6.52083 48.8333,-6.57813 48.4375,-6.57813 C47.8646,-6.57813 47.4036,-6.3776 47.0547,-5.97656 C46.7057,-5.57552 46.5313,-5.03646 46.5313,-4.35938 L46.5313,0 L45.2969,0 L45.2969,-10.1406 L46.5313,-10.1406 L46.5313,-7.5 C46.5313,-7.22917 46.5234,-6.94531 46.5078,-6.64844 C46.4922,-6.35156 46.4792,-6.17708 46.4688,-6.125 L46.5,-6.125 M59.3125,-3.73438 C59.3125,-1.15104 58.4063,0.140625 56.5938,0.140625 C55.4479,0.140625 54.6823,-0.291667 54.2969,-1.15625 L54.25,-1.15625 C54.2708,-1.11458 54.2813,-0.723958 54.2813,0.015625 L54.2813,2.90625 L53.0469,2.90625 L53.0469,-5.89063 C53.0469,-6.65104 53.0365,-7.15104 53.0156,-7.39063 L54.2031,-7.39063 C54.2031,-7.38021 54.2083,-7.31771 54.2188,-7.20313 C54.2292,-7.08854 54.2396,-6.91667 54.25,-6.6875 C54.2604,-6.45833 54.2656,-6.29688 54.2656,-6.20313 L54.2969,-6.20313 C54.5156,-6.66146 54.8047,-6.9974 55.1641,-7.21094 C55.5234,-7.42448 56,-7.53125 56.5938,-7.53125 C57.5,-7.53125 58.1797,-7.22396 58.6328,-6.60938 C59.0859,-5.99479 59.3125,-5.03646 59.3125,-3.73438 M58.0156,-3.70313 C58.0156,-4.73438 57.8776,-5.47135 57.6016,-5.91406 C57.3255,-6.35677 56.8802,-6.57813 56.2656,-6.57813 C55.7865,-6.57813 55.4089,-6.47656 55.1328,-6.27344 C54.8568,-6.07031 54.6458,-5.75 54.5,-5.3125 C54.3542,-4.875 54.2813,-4.30729 54.2813,-3.60938 C54.2813,-2.64063 54.4375,-1.92448 54.75,-1.46094 C55.0625,-0.997396 55.5677,-0.765625 56.2656,-0.765625 C56.8698,-0.765625 57.3125,-0.992188 57.5938,-1.44531 C57.875,-1.89844 58.0156,-2.65104 58.0156,-3.70313 M62.0313,-7.39063 L62.0313,-2.70313 C62.0313,-2.21354 62.0807,-1.83594 62.1797,-1.57031 C62.2786,-1.30469 62.4323,-1.11198 62.6406,-0.992188 C62.849,-0.872396 63.1563,-0.8125 63.5625,-0.8125 C64.1563,-0.8125 64.6224,-1.01563 64.9609,-1.42188 C65.2995,-1.82813 65.4688,-2.39063 65.4688,-3.10938 L65.4688,-7.39063 L66.7031,-7.39063 L66.7031,-1.57813 C66.7031,-0.713542 66.7188,-0.1875 66.75,0 L65.5781,0 C65.5781,-0.0208333 65.5755,-0.0807292 65.5703,-0.179688 C65.5651,-0.278646 65.5599,-0.393229 65.5547,-0.523438 C65.5495,-0.653646 65.5417,-0.901042 65.5313,-1.26563 L65.5156,-1.26563 C65.2344,-0.755208 64.9063,-0.393229 64.5313,-0.179688 C64.1563,0.0338542 63.6927,0.140625 63.1406,0.140625 C62.3281,0.140625 61.7344,-0.0625 61.3594,-0.46875 C60.9844,-0.875 60.7969,-1.54167 60.7969,-2.46875 L60.7969,-7.39063 L62.0313,-7.39063 M71.4531,-0.0625 C71.0469,0.0520833 70.6354,0.109375 70.2188,0.109375 C69.2292,0.109375 68.7344,-0.447917 68.7344,-1.5625 L68.7344,-6.5 L67.8906,-6.5 L67.8906,-7.39063 L68.7813,-7.39063 L69.1563,-9.04688 L69.9688,-9.04688 L69.9688,-7.39063 L71.3438,-7.39063 L71.3438,-6.5 L69.9688,-6.5 L69.9688,-1.82813 C69.9688,-1.47396 70.026,-1.22656 70.1406,-1.08594 C70.2552,-0.945313 70.4583,-0.875 70.75,-0.875 C70.9167,-0.875 71.151,-0.90625 71.4531,-0.96875 L71.4531,-0.0625 M76.2969,-3.64063 C76.2969,-4.95313 76.5026,-6.13281 76.9141,-7.17969 C77.3255,-8.22656 77.9583,-9.21354 78.8125,-10.1406 L80,-10.1406 C79.1458,-9.19271 78.5208,-8.1875 78.125,-7.125 C77.7292,-6.0625 77.5313,-4.89583 77.5313,-3.625 C77.5313,-2.36458 77.7266,-1.20313 78.1172,-0.140625 C78.5078,0.921875 79.1354,1.9375 80,2.90625 L78.8125,2.90625 C77.9479,1.96875 77.3125,0.976563 76.9063,-0.0703125 C76.5,-1.11719 76.2969,-2.29688 76.2969,-3.60938 L76.2969,-3.64063 M87.2813,-3.73438 C87.2813,-1.15104 86.375,0.140625 84.5625,0.140625 C84,0.140625 83.5313,0.0390625 83.1563,-0.164063 C82.7813,-0.367188 82.4792,-0.697917 82.25,-1.15625 L82.2344,-1.15625 C82.2344,-1.01042 82.2266,-0.791667 82.2109,-0.5 C82.1953,-0.208333 82.1823,-0.0416667 82.1719,0 L80.9844,0 C81.0052,-0.25 81.0156,-0.760417 81.0156,-1.53125 L81.0156,-10.1406 L82.25,-10.1406 L82.25,-7.25 C82.25,-6.95833 82.2396,-6.60938 82.2188,-6.20313 L82.25,-6.20313 C82.4792,-6.68229 82.7813,-7.02344 83.1563,-7.22656 C83.5313,-7.42969 84,-7.53125 84.5625,-7.53125 C85.4896,-7.53125 86.1745,-7.21615 86.6172,-6.58594 C87.0599,-5.95573 87.2813,-5.00521 87.2813,-3.73438 M85.9844,-3.6875 C85.9844,-4.72917 85.849,-5.47135 85.5781,-5.91406 C85.3073,-6.35677 84.8594,-6.57813 84.2344,-6.57813 C83.5469,-6.57813 83.0443,-6.34115 82.7266,-5.86719 C82.4089,-5.39323 82.25,-4.64063 82.25,-3.60938 C82.25,-2.64063 82.4063,-1.92448 82.7188,-1.46094 C83.0313,-0.997396 83.5365,-0.765625 84.2344,-0.765625 C84.849,-0.765625 85.2943,-0.994792 85.5703,-1.45313 C85.8464,-1.91146 85.9844,-2.65625 85.9844,-3.6875 M88.7969,-8.96875 L88.7969,-10.1406 L90.0313,-10.1406 L90.0313,-8.96875 L88.7969,-8.96875 M88.7969,0 L88.7969,-7.39063 L90.0313,-7.39063 L90.0313,0 L88.7969,0 M94.75,-0.0625 C94.3438,0.0520833 93.9323,0.109375 93.5156,0.109375 C92.526,0.109375 92.0313,-0.447917 92.0313,-1.5625 L92.0313,-6.5 L91.1875,-6.5 L91.1875,-7.39063 L92.0781,-7.39063 L92.4531,-9.04688 L93.2656,-9.04688 L93.2656,-7.39063 L94.6406,-7.39063 L94.6406,-6.5 L93.2656,-6.5 L93.2656,-1.82813 C93.2656,-1.47396 93.3229,-1.22656 93.4375,-1.08594 C93.5521,-0.945313 93.7552,-0.875 94.0469,-0.875 C94.2135,-0.875 94.4479,-0.90625 94.75,-0.96875 L94.75,-0.0625 M101.344,-2.04688 C101.344,-1.34896 101.081,-0.809896 100.555,-0.429688 C100.029,-0.0494792 99.2917,0.140625 98.3438,0.140625 C97.4167,0.140625 96.7031,-0.0104167 96.2031,-0.3125 C95.7031,-0.614583 95.3802,-1.08854 95.2344,-1.73438 L96.3281,-1.95313 C96.4323,-1.55729 96.6484,-1.26563 96.9766,-1.07813 C97.3047,-0.890625 97.7604,-0.796875 98.3438,-0.796875 C98.9688,-0.796875 99.4245,-0.893229 99.7109,-1.08594 C99.9974,-1.27865 100.141,-1.56771 100.141,-1.95313 C100.141,-2.24479 100.042,-2.48177 99.8438,-2.66406 C99.6458,-2.84635 99.3229,-2.99479 98.875,-3.10938 L97.9844,-3.34375 C97.276,-3.52083 96.7734,-3.69792 96.4766,-3.875 C96.1797,-4.05208 95.9479,-4.26563 95.7813,-4.51563 C95.6146,-4.76563 95.5313,-5.07292 95.5313,-5.4375 C95.5313,-6.11458 95.7708,-6.63021 96.25,-6.98438 C96.7292,-7.33854 97.4271,-7.51563 98.3438,-7.51563 C99.1667,-7.51563 99.8177,-7.3724 100.297,-7.08594 C100.776,-6.79948 101.078,-6.33854 101.203,-5.70313 L100.094,-5.5625 C100.031,-5.89583 99.8516,-6.14844 99.5547,-6.32031 C99.2578,-6.49219 98.8542,-6.57813 98.3438,-6.57813 C97.7917,-6.57813 97.3828,-6.49479 97.1172,-6.32813 C96.8516,-6.16146 96.7188,-5.90625 96.7188,-5.5625 C96.7188,-5.35417 96.7734,-5.18229 96.8828,-5.04688 C96.9922,-4.91146 97.1536,-4.79427 97.3672,-4.69531 C97.5807,-4.59635 98.0365,-4.46354 98.7344,-4.29688 C99.3802,-4.13021 99.8464,-3.97917 100.133,-3.84375 C100.419,-3.70833 100.646,-3.55469 100.813,-3.38281 C100.979,-3.21094 101.109,-3.01563 101.203,-2.79688 C101.297,-2.57813 101.344,-2.32813 101.344,-2.04688 M105.641,-3.60938 C105.641,-2.29688 105.435,-1.11458 105.023,-0.0625 C104.612,0.989583 103.974,1.97917 103.109,2.90625 L101.922,2.90625 C102.786,1.94792 103.417,0.9375 103.813,-0.125 C104.208,-1.1875 104.406,-2.35417 104.406,-3.625 C104.406,-4.89583 104.206,-6.0625 103.805,-7.125 C103.404,-8.1875 102.776,-9.19271 101.922,-10.1406 L103.109,-10.1406 C103.974,-9.21354 104.612,-8.22396 105.023,-7.17188 C105.435,-6.11979 105.641,-4.94271 105.641,-3.64063 L105.641,-3.60938"/>
</g>

<g fill="#212121" fill-opacity="1" stroke="none" transform="matrix(0.757717,0,0,0.757249,22.153,11.36)"
font-family="Sans Serif" font-size="9" font-weight="400" font-style="normal" 
>
<path vector-effect="none" fill-rule="evenodd" d="M1.90625,-0.375 C1.90625,-0.4375 1.92708,-0.5 1.96875,-0.5625 L4.67188,-3.25 L1.96875,-5.95313 C1.92708,-5.99479 1.90625,-6.05208 1.90625,-6.125 C1.90625,-6.1875 1.93229,-6.2474 1.98438,-6.30469 C2.03646,-6.36198 2.09896,-6.39063 2.17188,-6.39063 C2.23438,-6.39063 2.30208,-6.35938 2.375,-6.29688 L5.0625,-3.60938 L7.73438,-6.29688 C7.80729,-6.35938 7.86979,-6.39063 7.92188,-6.39063 C7.99479,-6.39063 8.05729,-6.36458 8.10938,-6.3125 C8.16146,-6.26042 8.1875,-6.19792 8.1875,-6.125 C8.1875,-6.05208 8.16667,-5.99479 8.125,-5.95313 L5.42188,-3.25 L8.125,-0.5625 C8.16667,-0.5 8.1875,-0.4375 8.1875,-0.375 C8.1875,-0.302083 8.16146,-0.239583 8.10938,-0.1875 C8.05729,-0.135417 7.99479,-0.109375 7.92188,-0.109375 C7.85938,-0.109375 7.79688,-0.140625 7.73438,-0.203125 L5.0625,-2.89063 L2.375,-0.203125 C2.30208,-0.140625 2.23438,-0.109375 2.17188,-0.109375 C2.09896,-0.109375 2.03646,-0.138021 1.98438,-0.195313 C1.93229,-0.252604 1.90625,-0.3125 1.90625,-0.375 "/>
</g>

<g fill="#212121" fill-opacity="1" stroke="none" transform="matrix(0.757717,0,0,0.757249,29.7302,11.36)"
font-family="Sans Serif" font-size="9" font-weight="400" font-style="normal" 
>
<path vector-effect="none" fill-rule="evenodd" d="M0.984375,0 L0.984375,-0.96875 L3.26563,-0.96875 L3.26563,-7.85938 L1.25,-6.40625 L1.25,-7.48438 L3.35938,-8.9375 L4.42188,-8.9375 L4.42188,-0.96875 L6.59375,-0.96875 L6.59375,0 L0.984375,0 M13.9375,-4.46875 C13.9375,-2.97917 13.6745,-1.84115 13.1484,-1.05469 C12.6224,-0.268229 11.8438,0.125 10.8125,0.125 C9.79167,0.125 9.02344,-0.265625 8.50781,-1.04688 C7.99219,-1.82813 7.73438,-2.96875 7.73438,-4.46875 C7.73438,-6.01042 7.98438,-7.16406 8.48438,-7.92969 C8.98438,-8.69531 9.77604,-9.07813 10.8594,-9.07813 C11.9115,-9.07813 12.6875,-8.6901 13.1875,-7.91406 C13.6875,-7.13802 13.9375,-5.98958 13.9375,-4.46875 M12.7813,-4.46875 C12.7813,-5.76042 12.6328,-6.69792 12.3359,-7.28125 C12.0391,-7.86458 11.5469,-8.15625 10.8594,-8.15625 C10.151,-8.15625 9.64323,-7.86979 9.33594,-7.29688 C9.02865,-6.72396 8.875,-5.78125 8.875,-4.46875 C8.875,-3.20833 9.03125,-2.28385 9.34375,-1.69531 C9.65625,-1.10677 10.151,-0.8125 10.8281,-0.8125 C11.5052,-0.8125 12,-1.11198 12.3125,-1.71094 C12.625,-2.3099 12.7813,-3.22917 12.7813,-4.46875 "/>
</g>

<g fill="#212121" fill-opacity="1" stroke="none" transform="matrix(0.757717,0,0,0.757249,40.3382,6.81653)"
font-family="Sans Serif" font-size="9" font-weight="400" font-style="normal" 
>
<path vector-effect="none" fill-rule="evenodd" d="M5.09375,-3.57813 C5.09375,-2.40104 4.8776,-1.49479 4.44531,-0.859375 C4.01302,-0.223958 3.39583,0.09375 2.59375,0.09375 C2.0625,0.09375 1.63542,-0.0182292 1.3125,-0.242188 C0.989583,-0.466146 0.755208,-0.833333 0.609375,-1.34375 L1.45313,-1.46875 C1.63021,-0.895833 2.01563,-0.609375 2.60938,-0.609375 C3.11979,-0.609375 3.51302,-0.84375 3.78906,-1.3125 C4.0651,-1.78125 4.20833,-2.45313 4.21875,-3.32813 C4.09375,-3.02604 3.8724,-2.78646 3.55469,-2.60938 C3.23698,-2.43229 2.89063,-2.34375 2.51563,-2.34375 C1.89063,-2.34375 1.39323,-2.55729 1.02344,-2.98438 C0.653646,-3.41146 0.46875,-3.97396 0.46875,-4.67188 C0.46875,-5.39063 0.671875,-5.95573 1.07813,-6.36719 C1.48438,-6.77865 2.04688,-6.98438 2.76563,-6.98438 C3.52604,-6.98438 4.10417,-6.70052 4.5,-6.13281 C4.89583,-5.5651 5.09375,-4.71354 5.09375,-3.57813 M4.125,-4.42188 C4.125,-4.98438 4,-5.43229 3.75,-5.76563 C3.5,-6.09896 3.16146,-6.26563 2.73438,-6.26563 C2.30729,-6.26563 1.97135,-6.1224 1.72656,-5.83594 C1.48177,-5.54948 1.35938,-5.16146 1.35938,-4.67188 C1.35938,-4.17188 1.48177,-3.77604 1.72656,-3.48438 C1.97135,-3.19271 2.30208,-3.04688 2.71875,-3.04688 C2.96875,-3.04688 3.20313,-3.10417 3.42188,-3.21875 C3.64063,-3.33333 3.8125,-3.4974 3.9375,-3.71094 C4.0625,-3.92448 4.125,-4.16146 4.125,-4.42188 "/>
</g>

<g fill="#212121" fill-opacity="1" stroke="none" transform="matrix(0.757717,0,0,0.757249,317.663,9.27758)"
font-family="Sans Serif" font-size="9" font-weight="400" font-style="normal" 
>
<path vector-effect="none" fill-rule="evenodd" d="M7.75,0 L6.89063,-2.46875 L3.21875,-2.46875 L2.35938,0 L0.34375,0 L3.85938,-9.625 L6.23438,-9.625 L9.73438,0 L7.75,0 M5.04688,-8.15625 L5.01563,-8 C4.96354,-7.83333 4.90625,-7.64583 4.84375,-7.4375 C4.78125,-7.22917 4.39063,-6.07813 3.67188,-3.98438 L6.4375,-3.98438 L5.48438,-6.75 L5.20313,-7.67188 L5.04688,-8.15625 M15.875,0 C15.8646,-0.0729167 15.8464,-0.247396 15.8203,-0.523438 C15.7943,-0.799479 15.7813,-1.02604 15.7813,-1.20313 L15.75,-1.20313 C15.3333,-0.307292 14.5469,0.140625 13.3906,0.140625 C12.526,0.140625 11.8594,-0.195313 11.3906,-0.867188 C10.9219,-1.53906 10.6875,-2.47917 10.6875,-3.6875 C10.6875,-4.91667 10.9349,-5.86458 11.4297,-6.53125 C11.9245,-7.19792 12.625,-7.53125 13.5313,-7.53125 C14.0521,-7.53125 14.5026,-7.42188 14.8828,-7.20313 C15.263,-6.98438 15.5573,-6.66146 15.7656,-6.23438 L15.7813,-6.23438 L15.7656,-7.4375 L15.7656,-10.1406 L17.6875,-10.1406 L17.6875,-1.60938 C17.6875,-1.16146 17.7031,-0.625 17.7344,0 L15.875,0 M15.7969,-3.73438 C15.7969,-4.53646 15.6615,-5.15365 15.3906,-5.58594 C15.1198,-6.01823 14.7292,-6.23438 14.2188,-6.23438 C13.6979,-6.23438 13.3125,-6.02604 13.0625,-5.60938 C12.8125,-5.19271 12.6875,-4.55208 12.6875,-3.6875 C12.6875,-2.01042 13.1927,-1.17188 14.2031,-1.17188 C14.7031,-1.17188 15.0938,-1.39583 15.375,-1.84375 C15.6563,-2.29167 15.7969,-2.92188 15.7969,-3.73438 M21.3438,0.140625 C20.625,0.140625 20.0651,-0.0546875 19.6641,-0.445313 C19.263,-0.835938 19.0625,-1.38542 19.0625,-2.09375 C19.0625,-2.85417 19.3125,-3.4349 19.8125,-3.83594 C20.3125,-4.23698 21.0365,-4.44271 21.9844,-4.45313 L23.5781,-4.48438 L23.5781,-4.85938 C23.5781,-5.33854 23.4948,-5.69792 23.3281,-5.9375 C23.1615,-6.17708 22.8854,-6.29688 22.5,-6.29688 C22.1458,-6.29688 21.8854,-6.21354 21.7188,-6.04688 C21.5521,-5.88021 21.4479,-5.61458 21.4063,-5.25 L19.4063,-5.34375 C19.5313,-6.0625 19.8594,-6.60677 20.3906,-6.97656 C20.9219,-7.34635 21.651,-7.53125 22.5781,-7.53125 C23.5156,-7.53125 24.237,-7.30208 24.7422,-6.84375 C25.2474,-6.38542 25.5,-5.72917 25.5,-4.875 L25.5,-2.1875 C25.5,-1.77083 25.5469,-1.48438 25.6406,-1.32813 C25.7344,-1.17188 25.8906,-1.09375 26.1094,-1.09375 C26.2552,-1.09375 26.3958,-1.10938 26.5313,-1.14063 L26.5313,-0.09375 C26.4167,-0.0729167 26.3151,-0.0494792 26.2266,-0.0234375 C26.138,0.00260417 26.0469,0.0234375 25.9531,0.0390625 C25.8594,0.0546875 25.7604,0.0651042 25.6563,0.0703125 C25.5521,0.0755208 25.4323,0.078125 25.2969,0.078125 C24.8177,0.078125 24.4635,-0.0390625 24.2344,-0.273438 C24.0052,-0.507813 23.8646,-0.854167 23.8125,-1.3125 L23.7813,-1.3125 C23.2396,-0.34375 22.4271,0.140625 21.3438,0.140625 M23.5781,-3.42188 L22.5938,-3.40625 C22.1458,-3.39583 21.8281,-3.34896 21.6406,-3.26563 C21.4531,-3.18229 21.3099,-3.0599 21.2109,-2.89844 C21.112,-2.73698 21.0625,-2.52083 21.0625,-2.25 C21.0625,-1.89583 21.1458,-1.63281 21.3125,-1.46094 C21.4792,-1.28906 21.6927,-1.20313 21.9531,-1.20313 C22.2552,-1.20313 22.5313,-1.28646 22.7813,-1.45313 C23.0313,-1.61979 23.2266,-1.84635 23.3672,-2.13281 C23.5078,-2.41927 23.5781,-2.72396 23.5781,-3.04688 L23.5781,-3.42188 M34.4219,-3.73438 C34.4219,-2.49479 34.1745,-1.53906 33.6797,-0.867188 C33.1849,-0.195313 32.4844,0.140625 31.5781,0.140625 C31.0573,0.140625 30.6042,0.0260417 30.2188,-0.203125 C29.8333,-0.432292 29.5417,-0.755208 29.3438,-1.17188 L29.2969,-1.17188 C29.3281,-1.03646 29.3438,-0.625 29.3438,0.0625 L29.3438,2.90625 L27.4219,2.90625 L27.4219,-5.6875 C27.4219,-6.38542 27.401,-6.95313 27.3594,-7.39063 L29.2344,-7.39063 C29.2552,-7.31771 29.2734,-7.15885 29.2891,-6.91406 C29.3047,-6.66927 29.3125,-6.42708 29.3125,-6.1875 L29.3438,-6.1875 C29.7708,-7.09375 30.5573,-7.54688 31.7031,-7.54688 C32.5677,-7.54688 33.237,-7.21615 33.7109,-6.55469 C34.1849,-5.89323 34.4219,-4.95313 34.4219,-3.73438 M32.4063,-3.73438 C32.4063,-5.39063 31.901,-6.21875 30.8906,-6.21875 C30.3802,-6.21875 29.9896,-5.99479 29.7188,-5.54688 C29.4479,-5.09896 29.3125,-4.47396 29.3125,-3.67188 C29.3125,-2.88021 29.4479,-2.26563 29.7188,-1.82813 C29.9896,-1.39063 30.375,-1.17188 30.875,-1.17188 C31.8958,-1.17188 32.4063,-2.02604 32.4063,-3.73438 M37.8594,0.125 C37.2969,0.125 36.862,-0.0286458 36.5547,-0.335938 C36.2474,-0.643229 36.0938,-1.10938 36.0938,-1.73438 L36.0938,-6.09375 L35.1563,-6.09375 L35.1563,-7.39063 L36.1875,-7.39063 L36.7969,-9.14063 L38,-9.14063 L38,-7.39063 L39.3906,-7.39063 L39.3906,-6.09375 L38,-6.09375 L38,-2.25 C38,-1.89583 38.0677,-1.63281 38.2031,-1.46094 C38.3385,-1.28906 38.5469,-1.20313 38.8281,-1.20313 C38.9844,-1.20313 39.1979,-1.23438 39.4688,-1.29688 L39.4688,-0.109375 C39,0.046875 38.4635,0.125 37.8594,0.125 M40.625,-8.73438 L40.625,-10.1406 L42.5469,-10.1406 L42.5469,-8.73438 L40.625,-8.73438 M40.625,0 L40.625,-7.39063 L42.5469,-7.39063 L42.5469,0 L40.625,0 M48.5156,0 L46.2188,0 L43.5781,-7.39063 L45.5938,-7.39063 L46.8906,-3.26563 C46.9635,-3.03646 47.125,-2.46354 47.375,-1.54688 C47.4271,-1.73438 47.5234,-2.0625 47.6641,-2.53125 C47.8047,-3 48.3281,-4.61979 49.2344,-7.39063 L51.2344,-7.39063 L48.5156,0 M55.2969,0.140625 C54.1927,0.140625 53.3411,-0.190104 52.7422,-0.851563 C52.1432,-1.51302 51.8438,-2.47396 51.8438,-3.73438 C51.8438,-4.95313 52.1458,-5.89063 52.75,-6.54688 C53.3542,-7.20313 54.2135,-7.53125 55.3281,-7.53125 C56.3906,-7.53125 57.2031,-7.17969 57.7656,-6.47656 C58.3281,-5.77344 58.6094,-4.74479 58.6094,-3.39063 L58.6094,-3.32813 L53.8594,-3.32813 C53.8594,-2.60938 53.9922,-2.06771 54.2578,-1.70313 C54.5234,-1.33854 54.9063,-1.15625 55.4063,-1.15625 C56.0833,-1.15625 56.5104,-1.44792 56.6875,-2.03125 L58.5,-1.875 C57.9688,-0.53125 56.901,0.140625 55.2969,0.140625 M55.2969,-6.32813 C54.849,-6.32813 54.5026,-6.16927 54.2578,-5.85156 C54.013,-5.53385 53.8854,-5.09375 53.875,-4.53125 L56.75,-4.53125 C56.7083,-5.125 56.5625,-5.57292 56.3125,-5.875 C56.0625,-6.17708 55.724,-6.32813 55.2969,-6.32813 M67.9531,0 L65.6563,0 L63.0156,-7.39063 L65.0313,-7.39063 L66.3281,-3.26563 C66.401,-3.03646 66.5625,-2.46354 66.8125,-1.54688 C66.8646,-1.73438 66.9609,-2.0625 67.1016,-2.53125 C67.2422,-3 67.7656,-4.61979 68.6719,-7.39063 L70.6719,-7.39063 L67.9531,0 M77.9531,-2.15625 C77.9531,-1.44792 77.6589,-0.888021 77.0703,-0.476563 C76.4818,-0.0651042 75.6719,0.140625 74.6406,0.140625 C73.6198,0.140625 72.8411,-0.0208333 72.3047,-0.34375 C71.7682,-0.666667 71.4115,-1.16667 71.2344,-1.84375 L72.9219,-2.09375 C73.0156,-1.75 73.1797,-1.50521 73.4141,-1.35938 C73.6484,-1.21354 74.0573,-1.14063 74.6406,-1.14063 C75.1719,-1.14063 75.5625,-1.20833 75.8125,-1.34375 C76.0625,-1.47917 76.1875,-1.69271 76.1875,-1.98438 C76.1875,-2.22396 76.0885,-2.41146 75.8906,-2.54688 C75.6927,-2.68229 75.3542,-2.80208 74.875,-2.90625 C73.7917,-3.11458 73.0599,-3.3125 72.6797,-3.5 C72.2995,-3.6875 72.0104,-3.92708 71.8125,-4.21875 C71.6146,-4.51042 71.5156,-4.86979 71.5156,-5.29688 C71.5156,-6.00521 71.7891,-6.55729 72.3359,-6.95313 C72.8828,-7.34896 73.6563,-7.54688 74.6563,-7.54688 C75.5313,-7.54688 76.237,-7.375 76.7734,-7.03125 C77.3099,-6.6875 77.6458,-6.19271 77.7813,-5.54688 L76.0781,-5.35938 C76.0156,-5.66146 75.8776,-5.88802 75.6641,-6.03906 C75.4505,-6.1901 75.1146,-6.26563 74.6563,-6.26563 C74.1979,-6.26563 73.8542,-6.20573 73.625,-6.08594 C73.3958,-5.96615 73.2813,-5.77083 73.2813,-5.5 C73.2813,-5.29167 73.3698,-5.125 73.5469,-5 C73.724,-4.875 74.0208,-4.77083 74.4375,-4.6875 C75.0104,-4.5625 75.5208,-4.4375 75.9688,-4.3125 C76.4167,-4.1875 76.7786,-4.03906 77.0547,-3.86719 C77.3307,-3.69531 77.5495,-3.47396 77.7109,-3.20313 C77.8724,-2.93229 77.9531,-2.58333 77.9531,-2.15625 M85.3438,-8.07813 L85.3438,-5.09375 L90.2656,-5.09375 L90.2656,-3.53125 L85.3438,-3.53125 L85.3438,0 L83.3281,0 L83.3281,-9.625 L90.4375,-9.625 L90.4375,-8.07813 L85.3438,-8.07813 M91.9219,-8.73438 L91.9219,-10.1406 L93.8438,-10.1406 L93.8438,-8.73438 L91.9219,-8.73438 M91.9219,0 L91.9219,-7.39063 L93.8438,-7.39063 L93.8438,0 L91.9219,0 M100.406,0 L98.6875,-2.6875 L96.9531,0 L94.9063,0 L97.6094,-3.82813 L95.0313,-7.39063 L97.1094,-7.39063 L98.6875,-4.98438 L100.266,-7.39063 L102.344,-7.39063 L99.7656,-3.84375 L102.5,0 L100.406,0 M106.594,0.140625 C105.49,0.140625 104.638,-0.190104 104.039,-0.851563 C103.44,-1.51302 103.141,-2.47396 103.141,-3.73438 C103.141,-4.95313 103.443,-5.89063 104.047,-6.54688 C104.651,-7.20313 105.51,-7.53125 106.625,-7.53125 C107.688,-7.53125 108.5,-7.17969 109.063,-6.47656 C109.625,-5.77344 109.906,-4.74479 109.906,-3.39063 L109.906,-3.32813 L105.156,-3.32813 C105.156,-2.60938 105.289,-2.06771 105.555,-1.70313 C105.82,-1.33854 106.203,-1.15625 106.703,-1.15625 C107.38,-1.15625 107.807,-1.44792 107.984,-2.03125 L109.797,-1.875 C109.266,-0.53125 108.198,0.140625 106.594,0.140625 M106.594,-6.32813 C106.146,-6.32813 105.799,-6.16927 105.555,-5.85156 C105.31,-5.53385 105.182,-5.09375 105.172,-4.53125 L108.047,-4.53125 C108.005,-5.125 107.859,-5.57292 107.609,-5.875 C107.359,-6.17708 107.021,-6.32813 106.594,-6.32813 M116.141,0 C116.13,-0.0729167 116.112,-0.247396 116.086,-0.523438 C116.06,-0.799479 116.047,-1.02604 116.047,-1.20313 L116.016,-1.20313 C115.599,-0.307292 114.813,0.140625 113.656,0.140625 C112.792,0.140625 112.125,-0.195313 111.656,-0.867188 C111.188,-1.53906 110.953,-2.47917 110.953,-3.6875 C110.953,-4.91667 111.201,-5.86458 111.695,-6.53125 C112.19,-7.19792 112.891,-7.53125 113.797,-7.53125 C114.318,-7.53125 114.768,-7.42188 115.148,-7.20313 C115.529,-6.98438 115.823,-6.66146 116.031,-6.23438 L116.047,-6.23438 L116.031,-7.4375 L116.031,-10.1406 L117.953,-10.1406 L117.953,-1.60938 C117.953,-1.16146 117.969,-0.625 118,0 L116.141,0 M116.063,-3.73438 C116.063,-4.53646 115.927,-5.15365 115.656,-5.58594 C115.385,-6.01823 114.995,-6.23438 114.484,-6.23438 C113.964,-6.23438 113.578,-6.02604 113.328,-5.60938 C113.078,-5.19271 112.953,-4.55208 112.953,-3.6875 C112.953,-2.01042 113.458,-1.17188 114.469,-1.17188 C114.969,-1.17188 115.359,-1.39583 115.641,-1.84375 C115.922,-2.29167 116.063,-2.92188 116.063,-3.73438 M128.078,-8.07813 L128.078,0 L126.063,0 L126.063,-8.07813 L122.953,-8.07813 L122.953,-9.625 L131.203,-9.625 L131.203,-8.07813 L128.078,-8.07813 M134.219,-5.92188 C134.479,-6.48438 134.805,-6.89323 135.195,-7.14844 C135.586,-7.40365 136.052,-7.53125 136.594,-7.53125 C137.375,-7.53125 137.977,-7.28906 138.398,-6.80469 C138.82,-6.32031 139.031,-5.61458 139.031,-4.6875 L139.031,0 L137.109,0 L137.109,-4.14063 C137.109,-5.44271 136.672,-6.09375 135.797,-6.09375 C135.328,-6.09375 134.953,-5.89323 134.672,-5.49219 C134.391,-5.09115 134.25,-4.57813 134.25,-3.95313 L134.25,0 L132.328,0 L132.328,-10.1406 L134.25,-10.1406 L134.25,-7.375 C134.25,-6.875 134.229,-6.39063 134.188,-5.92188 L134.219,-5.92188 M140.875,0 L140.875,-5.65625 C140.875,-6.0625 140.867,-6.40104 140.852,-6.67188 C140.836,-6.94271 140.823,-7.18229 140.813,-7.39063 L142.641,-7.39063 C142.661,-7.31771 142.682,-7.07031 142.703,-6.64844 C142.724,-6.22656 142.734,-5.94792 142.734,-5.8125 L142.766,-5.8125 C142.953,-6.33333 143.12,-6.70052 143.266,-6.91406 C143.411,-7.1276 143.583,-7.28646 143.781,-7.39063 C143.979,-7.49479 144.229,-7.54688 144.531,-7.54688 C144.781,-7.54688 144.979,-7.51042 145.125,-7.4375 L145.125,-5.82813 C144.813,-5.90104 144.542,-5.9375 144.313,-5.9375 C143.833,-5.9375 143.461,-5.74219 143.195,-5.35156 C142.93,-4.96094 142.797,-4.38542 142.797,-3.625 L142.797,0 L140.875,0 M153.328,-3.70313 C153.328,-2.50521 152.997,-1.5651 152.336,-0.882813 C151.674,-0.200521 150.755,0.140625 149.578,0.140625 C148.422,0.140625 147.516,-0.203125 146.859,-0.890625 C146.203,-1.57813 145.875,-2.51563 145.875,-3.70313 C145.875,-4.89063 146.203,-5.82552 146.859,-6.50781 C147.516,-7.1901 148.432,-7.53125 149.609,-7.53125 C150.818,-7.53125 151.74,-7.20313 152.375,-6.54688 C153.01,-5.89063 153.328,-4.94271 153.328,-3.70313 M151.328,-3.70313 C151.328,-4.58854 151.185,-5.22917 150.898,-5.625 C150.612,-6.02083 150.193,-6.21875 149.641,-6.21875 C148.474,-6.21875 147.891,-5.38021 147.891,-3.70313 C147.891,-2.88021 148.034,-2.2526 148.32,-1.82031 C148.607,-1.38802 149.016,-1.17188 149.547,-1.17188 C150.734,-1.17188 151.328,-2.01563 151.328,-3.70313 M156.672,-7.39063 L156.672,-3.25 C156.672,-1.94792 157.109,-1.29688 157.984,-1.29688 C158.443,-1.29688 158.815,-1.4974 159.102,-1.89844 C159.388,-2.29948 159.531,-2.8125 159.531,-3.4375 L159.531,-7.39063 L161.453,-7.39063 L161.453,-1.65625 C161.453,-1.03125 161.469,-0.479167 161.5,0 L159.672,0 C159.62,-0.65625 159.594,-1.14583 159.594,-1.46875 L159.563,-1.46875 C159.302,-0.90625 158.974,-0.497396 158.578,-0.242188 C158.182,0.0130208 157.714,0.140625 157.172,0.140625 C156.391,0.140625 155.792,-0.101563 155.375,-0.585938 C154.958,-1.07031 154.75,-1.77604 154.75,-2.70313 L154.75,-7.39063 L156.672,-7.39063 M166.5,2.96875 C165.594,2.96875 164.867,2.79688 164.32,2.45313 C163.773,2.10938 163.432,1.61979 163.297,0.984375 L165.219,0.75 C165.292,1.05208 165.44,1.28646 165.664,1.45313 C165.888,1.61979 166.182,1.70313 166.547,1.70313 C167.078,1.70313 167.469,1.53906 167.719,1.21094 C167.969,0.882813 168.094,0.395833 168.094,-0.25 L168.094,-0.640625 L168.109,-1.375 L168.094,-1.375 C167.667,-0.46875 166.87,-0.015625 165.703,-0.015625 C164.849,-0.015625 164.185,-0.338542 163.711,-0.984375 C163.237,-1.63021 163,-2.55729 163,-3.76563 C163,-4.97396 163.242,-5.90625 163.727,-6.5625 C164.211,-7.21875 164.922,-7.54688 165.859,-7.54688 C166.932,-7.54688 167.677,-7.09896 168.094,-6.20313 L168.125,-6.20313 C168.125,-6.36979 168.135,-6.58854 168.156,-6.85938 C168.177,-7.13021 168.198,-7.30729 168.219,-7.39063 L170.031,-7.39063 C170.01,-6.90104 170,-6.33333 170,-5.6875 L170,-0.21875 C170,0.833333 169.701,1.6276 169.102,2.16406 C168.503,2.70052 167.635,2.96875 166.5,2.96875 M168.109,-3.79688 C168.109,-4.55729 167.974,-5.15104 167.703,-5.57813 C167.432,-6.00521 167.042,-6.21875 166.531,-6.21875 C165.51,-6.21875 165,-5.40104 165,-3.76563 C165,-2.15104 165.51,-1.34375 166.531,-1.34375 C167.042,-1.34375 167.432,-1.55729 167.703,-1.98438 C167.974,-2.41146 168.109,-3.01563 168.109,-3.79688 M173.844,-5.92188 C174.104,-6.48438 174.43,-6.89323 174.82,-7.14844 C175.211,-7.40365 175.677,-7.53125 176.219,-7.53125 C177,-7.53125 177.602,-7.28906 178.023,-6.80469 C178.445,-6.32031 178.656,-5.61458 178.656,-4.6875 L178.656,0 L176.734,0 L176.734,-4.14063 C176.734,-5.44271 176.297,-6.09375 175.422,-6.09375 C174.953,-6.09375 174.578,-5.89323 174.297,-5.49219 C174.016,-5.09115 173.875,-4.57813 173.875,-3.95313 L173.875,0 L171.953,0 L171.953,-10.1406 L173.875,-10.1406 L173.875,-7.375 C173.875,-6.875 173.854,-6.39063 173.813,-5.92188 L173.844,-5.92188 M187.5,-3.73438 C187.5,-2.49479 187.253,-1.53906 186.758,-0.867188 C186.263,-0.195313 185.563,0.140625 184.656,0.140625 C184.135,0.140625 183.682,0.0260417 183.297,-0.203125 C182.911,-0.432292 182.62,-0.755208 182.422,-1.17188 L182.375,-1.17188 C182.406,-1.03646 182.422,-0.625 182.422,0.0625 L182.422,2.90625 L180.5,2.90625 L180.5,-5.6875 C180.5,-6.38542 180.479,-6.95313 180.438,-7.39063 L182.313,-7.39063 C182.333,-7.31771 182.352,-7.15885 182.367,-6.91406 C182.383,-6.66927 182.391,-6.42708 182.391,-6.1875 L182.422,-6.1875 C182.849,-7.09375 183.635,-7.54688 184.781,-7.54688 C185.646,-7.54688 186.315,-7.21615 186.789,-6.55469 C187.263,-5.89323 187.5,-4.95313 187.5,-3.73438 M185.484,-3.73438 C185.484,-5.39063 184.979,-6.21875 183.969,-6.21875 C183.458,-6.21875 183.068,-5.99479 182.797,-5.54688 C182.526,-5.09896 182.391,-4.47396 182.391,-3.67188 C182.391,-2.88021 182.526,-2.26563 182.797,-1.82813 C183.068,-1.39063 183.453,-1.17188 183.953,-1.17188 C184.974,-1.17188 185.484,-2.02604 185.484,-3.73438 M190.859,-7.39063 L190.859,-3.25 C190.859,-1.94792 191.297,-1.29688 192.172,-1.29688 C192.63,-1.29688 193.003,-1.4974 193.289,-1.89844 C193.576,-2.29948 193.719,-2.8125 193.719,-3.4375 L193.719,-7.39063 L195.641,-7.39063 L195.641,-1.65625 C195.641,-1.03125 195.656,-0.479167 195.688,0 L193.859,0 C193.807,-0.65625 193.781,-1.14583 193.781,-1.46875 L193.75,-1.46875 C193.49,-0.90625 193.161,-0.497396 192.766,-0.242188 C192.37,0.0130208 191.901,0.140625 191.359,0.140625 C190.578,0.140625 189.979,-0.101563 189.563,-0.585938 C189.146,-1.07031 188.938,-1.77604 188.938,-2.70313 L188.938,-7.39063 L190.859,-7.39063 M199.484,0.125 C198.922,0.125 198.487,-0.0286458 198.18,-0.335938 C197.872,-0.643229 197.719,-1.10938 197.719,-1.73438 L197.719,-6.09375 L196.781,-6.09375 L196.781,-7.39063 L197.813,-7.39063 L198.422,-9.14063 L199.625,-9.14063 L199.625,-7.39063 L201.016,-7.39063 L201.016,-6.09375 L199.625,-6.09375 L199.625,-2.25 C199.625,-1.89583 199.693,-1.63281 199.828,-1.46094 C199.964,-1.28906 200.172,-1.20313 200.453,-1.20313 C200.609,-1.20313 200.823,-1.23438 201.094,-1.29688 L201.094,-0.109375 C200.625,0.046875 200.089,0.125 199.484,0.125 "/>
</g>

<g fill="#212121" fill-opacity="1" stroke="#212121" stroke-opacity="1" stroke-width="0.659722" stroke-linecap="butt" stroke-linejoin="round" transform="matrix(0.757717,0,0,0.757249,-99.8393,-31.0459)"
font-family="Sans Serif" font-size="9" font-weight="400" font-style="normal" 
>
<polyline fill="none" vector-effect="none" points="164,706 1139,706 " />
</g>

<g fill="#1171be" fill-opacity="1" stroke="none" transform="matrix(7.57717e-05,0,0,7.57249e-05,-99.8393,-31.0459)"
font-family="Sans Serif" font-size="9" font-weight="400" font-style="normal" 
>
<path vector-effect="none" fill-rule="evenodd" d="M3.38107e+06,1.50166e+06 L3.38107e+06,7.06e+06 L6.16679e+06,7.06e+06 L6.16679e+06,1.50166e+06 L3.38107e+06,1.50166e+06"/>
</g>

<g fill="#1171be" fill-opacity="1" stroke="none" transform="matrix(7.57717e-05,0,0,7.57249e-05,-99.8393,-31.0459)"
font-family="Sans Serif" font-size="9" font-weight="400" font-style="normal" 
>
<path vector-effect="none" fill-rule="evenodd" d="M6.86321e+06,5.31857e+06 L6.86321e+06,7.06e+06 L9.64893e+06,7.06e+06 L9.64893e+06,5.31857e+06 L6.86321e+06,5.31857e+06"/>
</g>

<g fill="none" stroke="#212121" stroke-opacity="1" stroke-width="0.659722" stroke-linecap="butt" stroke-linejoin="miter" stroke-miterlimit="2" transform="matrix(0.757717,0,0,0.757249,-99.8393,-31.0459)"
font-family="Sans Serif" font-size="9" font-weight="400" font-style="normal" 
>
<path vector-effect="none" fill-rule="evenodd" d="M338.107,706 L338.107,150.166 L616.679,150.166 L616.679,706 L338.107,706"/>
<path vector-effect="none" fill-rule="evenodd" d="M686.321,706 L686.321,531.857 L964.893,531.857 L964.893,706 L686.321,706"/>
</g>
</g>
</svg>
