<?xml version="1.0" encoding="UTF-8" standalone="no"?>
<svg width="302.331mm" height="188.383mm"
 viewBox="0 0 857 534"
 xmlns="http://www.w3.org/2000/svg" xmlns:xlink="http://www.w3.org/1999/xlink"  version="1.2" baseProfile="tiny">
<title>Qt SVG Document</title>
<desc>MATLAB, The MathWorks, Inc. Version 25.1.0.2943329 R2025a</desc>
<defs>
</defs>
<g fill="none" stroke="black" stroke-width="1" fill-rule="evenodd" stroke-linecap="square" stroke-linejoin="bevel" >

<g fill="#ffffff" fill-opacity="1" stroke="none" transform="matrix(0.757577,0,0,0.757519,-45.2751,-31.2469)"
font-family="Sans Serif" font-size="9" font-weight="400" font-style="normal" 
>
<path vector-effect="none" fill-rule="evenodd" d="M58,40 L1190,40 L1190,746 L58,746 L58,40"/>
</g>

<g fill="#ffffff" fill-opacity="1" stroke="none" transform="matrix(7.57577e-05,0,0,7.57519e-05,-45.2751,-31.2469)"
font-family="Sans Serif" font-size="9" font-weight="400" font-style="normal" 
>
<path vector-effect="none" fill-rule="evenodd" d="M1.64e+06,590000 L1.64e+06,7.06e+06 L1.14e+07,7.06e+06 L1.14e+07,590000 L1.64e+06,590000"/>
</g>

<g fill="#212121" fill-opacity="1" stroke="#212121" stroke-opacity="1" stroke-width="1" stroke-linecap="square" stroke-linejoin="bevel" transform="matrix(0.757577,0,0,0.757519,386.923,529.77)"
font-family="Helvetica" font-size="14" font-weight="400" font-style="normal" 
>
<text fill="#212121" fill-opacity="1" stroke="none" xml:space="preserve" x="0" y="0" font-family="Helvetica" font-size="14" font-weight="400" font-style="normal" 
 >Elevation Angle (Degrees)</text>
</g>

<g fill="#212121" fill-opacity="1" stroke="#212121" stroke-opacity="1" stroke-width="0.659722" stroke-linecap="square" stroke-linejoin="round" transform="matrix(0.757577,0,0,0.757519,-45.2751,-31.2469)"
font-family="Helvetica" font-size="14" font-weight="400" font-style="normal" 
>
<polyline fill="none" vector-effect="none" points="164,706 1140,706 " />
<polyline fill="none" vector-effect="none" points="164,706 164,696.24 " />
<polyline fill="none" vector-effect="none" points="286,706 286,696.24 " />
<polyline fill="none" vector-effect="none" points="408,706 408,696.24 " />
<polyline fill="none" vector-effect="none" points="530,706 530,696.24 " />
<polyline fill="none" vector-effect="none" points="652,706 652,696.24 " />
<polyline fill="none" vector-effect="none" points="774,706 774,696.24 " />
<polyline fill="none" vector-effect="none" points="896,706 896,696.24 " />
<polyline fill="none" vector-effect="none" points="1018,706 1018,696.24 " />
<polyline fill="none" vector-effect="none" points="1140,706 1140,696.24 " />
</g>

<g fill="#212121" fill-opacity="1" stroke="#212121" stroke-opacity="1" stroke-width="1" stroke-linecap="square" stroke-linejoin="bevel" transform="matrix(0.757577,0,0,0.757519,73.6645,516.65)"
font-family="Helvetica" font-size="13" font-weight="400" font-style="normal" 
>
<text fill="#212121" fill-opacity="1" stroke="none" xml:space="preserve" x="0" y="0" font-family="Helvetica" font-size="13" font-weight="400" font-style="normal" 
 >10</text>
</g>

<g fill="#212121" fill-opacity="1" stroke="#212121" stroke-opacity="1" stroke-width="1" stroke-linecap="square" stroke-linejoin="bevel" transform="matrix(0.757577,0,0,0.757519,166.089,516.65)"
font-family="Helvetica" font-size="13" font-weight="400" font-style="normal" 
>
<text fill="#212121" fill-opacity="1" stroke="none" xml:space="preserve" x="0" y="0" font-family="Helvetica" font-size="13" font-weight="400" font-style="normal" 
 >20</text>
</g>

<g fill="#212121" fill-opacity="1" stroke="#212121" stroke-opacity="1" stroke-width="1" stroke-linecap="square" stroke-linejoin="bevel" transform="matrix(0.757577,0,0,0.757519,258.513,516.65)"
font-family="Helvetica" font-size="13" font-weight="400" font-style="normal" 
>
<text fill="#212121" fill-opacity="1" stroke="none" xml:space="preserve" x="0" y="0" font-family="Helvetica" font-size="13" font-weight="400" font-style="normal" 
 >30</text>
</g>

<g fill="#212121" fill-opacity="1" stroke="#212121" stroke-opacity="1" stroke-width="1" stroke-linecap="square" stroke-linejoin="bevel" transform="matrix(0.757577,0,0,0.757519,350.938,516.65)"
font-family="Helvetica" font-size="13" font-weight="400" font-style="normal" 
>
<text fill="#212121" fill-opacity="1" stroke="none" xml:space="preserve" x="0" y="0" font-family="Helvetica" font-size="13" font-weight="400" font-style="normal" 
 >40</text>
</g>

<g fill="#212121" fill-opacity="1" stroke="#212121" stroke-opacity="1" stroke-width="1" stroke-linecap="square" stroke-linejoin="bevel" transform="matrix(0.757577,0,0,0.757519,443.362,516.65)"
font-family="Helvetica" font-size="13" font-weight="400" font-style="normal" 
>
<text fill="#212121" fill-opacity="1" stroke="none" xml:space="preserve" x="0" y="0" font-family="Helvetica" font-size="13" font-weight="400" font-style="normal" 
 >50</text>
</g>

<g fill="#212121" fill-opacity="1" stroke="#212121" stroke-opacity="1" stroke-width="1" stroke-linecap="square" stroke-linejoin="bevel" transform="matrix(0.757577,0,0,0.757519,535.786,516.65)"
font-family="Helvetica" font-size="13" font-weight="400" font-style="normal" 
>
<text fill="#212121" fill-opacity="1" stroke="none" xml:space="preserve" x="0" y="0" font-family="Helvetica" font-size="13" font-weight="400" font-style="normal" 
 >60</text>
</g>

<g fill="#212121" fill-opacity="1" stroke="#212121" stroke-opacity="1" stroke-width="1" stroke-linecap="square" stroke-linejoin="bevel" transform="matrix(0.757577,0,0,0.757519,628.211,516.65)"
font-family="Helvetica" font-size="13" font-weight="400" font-style="normal" 
>
<text fill="#212121" fill-opacity="1" stroke="none" xml:space="preserve" x="0" y="0" font-family="Helvetica" font-size="13" font-weight="400" font-style="normal" 
 >70</text>
</g>

<g fill="#212121" fill-opacity="1" stroke="#212121" stroke-opacity="1" stroke-width="1" stroke-linecap="square" stroke-linejoin="bevel" transform="matrix(0.757577,0,0,0.757519,720.635,516.65)"
font-family="Helvetica" font-size="13" font-weight="400" font-style="normal" 
>
<text fill="#212121" fill-opacity="1" stroke="none" xml:space="preserve" x="0" y="0" font-family="Helvetica" font-size="13" font-weight="400" font-style="normal" 
 >80</text>
</g>

<g fill="#212121" fill-opacity="1" stroke="#212121" stroke-opacity="1" stroke-width="1" stroke-linecap="square" stroke-linejoin="bevel" transform="matrix(0.757577,0,0,0.757519,813.06,516.65)"
font-family="Helvetica" font-size="13" font-weight="400" font-style="normal" 
>
<text fill="#212121" fill-opacity="1" stroke="none" xml:space="preserve" x="0" y="0" font-family="Helvetica" font-size="13" font-weight="400" font-style="normal" 
 >90</text>
</g>

<g fill="#1171be" fill-opacity="1" stroke="#1171be" stroke-opacity="1" stroke-width="0.659722" stroke-linecap="square" stroke-linejoin="round" transform="matrix(0.757577,0,0,0.757519,-45.2751,-31.2469)"
font-family="Helvetica" font-size="13" font-weight="400" font-style="normal" 
>
<polyline fill="none" vector-effect="none" points="164,706 164,59 " />
<polyline fill="none" vector-effect="none" points="164,694.446 173.76,694.446 " />
<polyline fill="none" vector-effect="none" points="164,671.339 173.76,671.339 " />
<polyline fill="none" vector-effect="none" points="164,648.232 173.76,648.232 " />
<polyline fill="none" vector-effect="none" points="164,625.125 173.76,625.125 " />
<polyline fill="none" vector-effect="none" points="164,602.018 173.76,602.018 " />
<polyline fill="none" vector-effect="none" points="164,578.911 173.76,578.911 " />
<polyline fill="none" vector-effect="none" points="164,555.804 173.76,555.804 " />
<polyline fill="none" vector-effect="none" points="164,532.696 173.76,532.696 " />
<polyline fill="none" vector-effect="none" points="164,509.589 173.76,509.589 " />
<polyline fill="none" vector-effect="none" points="164,486.482 173.76,486.482 " />
<polyline fill="none" vector-effect="none" points="164,463.375 173.76,463.375 " />
<polyline fill="none" vector-effect="none" points="164,440.268 173.76,440.268 " />
<polyline fill="none" vector-effect="none" points="164,417.161 173.76,417.161 " />
<polyline fill="none" vector-effect="none" points="164,394.054 173.76,394.054 " />
<polyline fill="none" vector-effect="none" points="164,370.946 173.76,370.946 " />
<polyline fill="none" vector-effect="none" points="164,347.839 173.76,347.839 " />
<polyline fill="none" vector-effect="none" points="164,324.732 173.76,324.732 " />
<polyline fill="none" vector-effect="none" points="164,301.625 173.76,301.625 " />
<polyline fill="none" vector-effect="none" points="164,278.518 173.76,278.518 " />
<polyline fill="none" vector-effect="none" points="164,255.411 173.76,255.411 " />
<polyline fill="none" vector-effect="none" points="164,232.304 173.76,232.304 " />
<polyline fill="none" vector-effect="none" points="164,209.196 173.76,209.196 " />
<polyline fill="none" vector-effect="none" points="164,186.089 173.76,186.089 " />
<polyline fill="none" vector-effect="none" points="164,162.982 173.76,162.982 " />
<polyline fill="none" vector-effect="none" points="164,139.875 173.76,139.875 " />
<polyline fill="none" vector-effect="none" points="164,116.768 173.76,116.768 " />
<polyline fill="none" vector-effect="none" points="164,93.6607 173.76,93.6607 " />
<polyline fill="none" vector-effect="none" points="164,70.5536 173.76,70.5536 " />
</g>

<g fill="#1171be" fill-opacity="1" stroke="#1171be" stroke-opacity="1" stroke-width="1" stroke-linecap="square" stroke-linejoin="bevel" transform="matrix(0.757577,0,0,0.757519,31.0297,498.218)"
font-family="Helvetica" font-size="13" font-weight="400" font-style="normal" 
>
<text fill="#1171be" fill-opacity="1" stroke="none" xml:space="preserve" x="0" y="0" font-family="Helvetica" font-size="13" font-weight="400" font-style="normal" 
 >QPSK 1/4</text>
</g>

<g fill="#1171be" fill-opacity="1" stroke="#1171be" stroke-opacity="1" stroke-width="1" stroke-linecap="square" stroke-linejoin="bevel" transform="matrix(0.757577,0,0,0.757519,31.0297,480.714)"
font-family="Helvetica" font-size="13" font-weight="400" font-style="normal" 
>
<text fill="#1171be" fill-opacity="1" stroke="none" xml:space="preserve" x="0" y="0" font-family="Helvetica" font-size="13" font-weight="400" font-style="normal" 
 >QPSK 1/3</text>
</g>

<g fill="#1171be" fill-opacity="1" stroke="#1171be" stroke-opacity="1" stroke-width="1" stroke-linecap="square" stroke-linejoin="bevel" transform="matrix(0.757577,0,0,0.757519,31.0297,463.21)"
font-family="Helvetica" font-size="13" font-weight="400" font-style="normal" 
>
<text fill="#1171be" fill-opacity="1" stroke="none" xml:space="preserve" x="0" y="0" font-family="Helvetica" font-size="13" font-weight="400" font-style="normal" 
 >QPSK 2/5</text>
</g>

<g fill="#1171be" fill-opacity="1" stroke="#1171be" stroke-opacity="1" stroke-width="1" stroke-linecap="square" stroke-linejoin="bevel" transform="matrix(0.757577,0,0,0.757519,31.0297,445.706)"
font-family="Helvetica" font-size="13" font-weight="400" font-style="normal" 
>
<text fill="#1171be" fill-opacity="1" stroke="none" xml:space="preserve" x="0" y="0" font-family="Helvetica" font-size="13" font-weight="400" font-style="normal" 
 >QPSK 1/2</text>
</g>

<g fill="#1171be" fill-opacity="1" stroke="#1171be" stroke-opacity="1" stroke-width="1" stroke-linecap="square" stroke-linejoin="bevel" transform="matrix(0.757577,0,0,0.757519,31.0297,428.202)"
font-family="Helvetica" font-size="13" font-weight="400" font-style="normal" 
>
<text fill="#1171be" fill-opacity="1" stroke="none" xml:space="preserve" x="0" y="0" font-family="Helvetica" font-size="13" font-weight="400" font-style="normal" 
 >QPSK 3/5</text>
</g>

<g fill="#1171be" fill-opacity="1" stroke="#1171be" stroke-opacity="1" stroke-width="1" stroke-linecap="square" stroke-linejoin="bevel" transform="matrix(0.757577,0,0,0.757519,31.0297,410.698)"
font-family="Helvetica" font-size="13" font-weight="400" font-style="normal" 
>
<text fill="#1171be" fill-opacity="1" stroke="none" xml:space="preserve" x="0" y="0" font-family="Helvetica" font-size="13" font-weight="400" font-style="normal" 
 >QPSK 2/3</text>
</g>

<g fill="#1171be" fill-opacity="1" stroke="#1171be" stroke-opacity="1" stroke-width="1" stroke-linecap="square" stroke-linejoin="bevel" transform="matrix(0.757577,0,0,0.757519,31.0297,393.194)"
font-family="Helvetica" font-size="13" font-weight="400" font-style="normal" 
>
<text fill="#1171be" fill-opacity="1" stroke="none" xml:space="preserve" x="0" y="0" font-family="Helvetica" font-size="13" font-weight="400" font-style="normal" 
 >QPSK 3/4</text>
</g>

<g fill="#1171be" fill-opacity="1" stroke="#1171be" stroke-opacity="1" stroke-width="1" stroke-linecap="square" stroke-linejoin="bevel" transform="matrix(0.757577,0,0,0.757519,31.0297,375.69)"
font-family="Helvetica" font-size="13" font-weight="400" font-style="normal" 
>
<text fill="#1171be" fill-opacity="1" stroke="none" xml:space="preserve" x="0" y="0" font-family="Helvetica" font-size="13" font-weight="400" font-style="normal" 
 >QPSK 4/5</text>
</g>

<g fill="#1171be" fill-opacity="1" stroke="#1171be" stroke-opacity="1" stroke-width="1" stroke-linecap="square" stroke-linejoin="bevel" transform="matrix(0.757577,0,0,0.757519,31.0297,358.185)"
font-family="Helvetica" font-size="13" font-weight="400" font-style="normal" 
>
<text fill="#1171be" fill-opacity="1" stroke="none" xml:space="preserve" x="0" y="0" font-family="Helvetica" font-size="13" font-weight="400" font-style="normal" 
 >QPSK 5/6</text>
</g>

<g fill="#1171be" fill-opacity="1" stroke="#1171be" stroke-opacity="1" stroke-width="1" stroke-linecap="square" stroke-linejoin="bevel" transform="matrix(0.757577,0,0,0.757519,31.0297,340.681)"
font-family="Helvetica" font-size="13" font-weight="400" font-style="normal" 
>
<text fill="#1171be" fill-opacity="1" stroke="none" xml:space="preserve" x="0" y="0" font-family="Helvetica" font-size="13" font-weight="400" font-style="normal" 
 >QPSK 8/9</text>
</g>

<g fill="#1171be" fill-opacity="1" stroke="#1171be" stroke-opacity="1" stroke-width="1" stroke-linecap="square" stroke-linejoin="bevel" transform="matrix(0.757577,0,0,0.757519,25.7267,323.177)"
font-family="Helvetica" font-size="13" font-weight="400" font-style="normal" 
>
<text fill="#1171be" fill-opacity="1" stroke="none" xml:space="preserve" x="0" y="0" font-family="Helvetica" font-size="13" font-weight="400" font-style="normal" 
 >QPSK 9/10</text>
</g>

<g fill="#1171be" fill-opacity="1" stroke="#1171be" stroke-opacity="1" stroke-width="1" stroke-linecap="square" stroke-linejoin="bevel" transform="matrix(0.757577,0,0,0.757519,33.3025,305.673)"
font-family="Helvetica" font-size="13" font-weight="400" font-style="normal" 
>
<text fill="#1171be" fill-opacity="1" stroke="none" xml:space="preserve" x="0" y="0" font-family="Helvetica" font-size="13" font-weight="400" font-style="normal" 
 >8PSK 3/5</text>
</g>

<g fill="#1171be" fill-opacity="1" stroke="#1171be" stroke-opacity="1" stroke-width="1" stroke-linecap="square" stroke-linejoin="bevel" transform="matrix(0.757577,0,0,0.757519,33.3025,288.169)"
font-family="Helvetica" font-size="13" font-weight="400" font-style="normal" 
>
<text fill="#1171be" fill-opacity="1" stroke="none" xml:space="preserve" x="0" y="0" font-family="Helvetica" font-size="13" font-weight="400" font-style="normal" 
 >8PSK 2/3</text>
</g>

<g fill="#1171be" fill-opacity="1" stroke="#1171be" stroke-opacity="1" stroke-width="1" stroke-linecap="square" stroke-linejoin="bevel" transform="matrix(0.757577,0,0,0.757519,33.3025,270.665)"
font-family="Helvetica" font-size="13" font-weight="400" font-style="normal" 
>
<text fill="#1171be" fill-opacity="1" stroke="none" xml:space="preserve" x="0" y="0" font-family="Helvetica" font-size="13" font-weight="400" font-style="normal" 
 >8PSK 3/4</text>
</g>

<g fill="#1171be" fill-opacity="1" stroke="#1171be" stroke-opacity="1" stroke-width="1" stroke-linecap="square" stroke-linejoin="bevel" transform="matrix(0.757577,0,0,0.757519,33.3025,253.161)"
font-family="Helvetica" font-size="13" font-weight="400" font-style="normal" 
>
<text fill="#1171be" fill-opacity="1" stroke="none" xml:space="preserve" x="0" y="0" font-family="Helvetica" font-size="13" font-weight="400" font-style="normal" 
 >8PSK 5/6</text>
</g>

<g fill="#1171be" fill-opacity="1" stroke="#1171be" stroke-opacity="1" stroke-width="1" stroke-linecap="square" stroke-linejoin="bevel" transform="matrix(0.757577,0,0,0.757519,33.3025,235.657)"
font-family="Helvetica" font-size="13" font-weight="400" font-style="normal" 
>
<text fill="#1171be" fill-opacity="1" stroke="none" xml:space="preserve" x="0" y="0" font-family="Helvetica" font-size="13" font-weight="400" font-style="normal" 
 >8PSK 8/9</text>
</g>

<g fill="#1171be" fill-opacity="1" stroke="#1171be" stroke-opacity="1" stroke-width="1" stroke-linecap="square" stroke-linejoin="bevel" transform="matrix(0.757577,0,0,0.757519,27.9994,218.153)"
font-family="Helvetica" font-size="13" font-weight="400" font-style="normal" 
>
<text fill="#1171be" fill-opacity="1" stroke="none" xml:space="preserve" x="0" y="0" font-family="Helvetica" font-size="13" font-weight="400" font-style="normal" 
 >8PSK 9/10</text>
</g>

<g fill="#1171be" fill-opacity="1" stroke="#1171be" stroke-opacity="1" stroke-width="1" stroke-linecap="square" stroke-linejoin="bevel" transform="matrix(0.757577,0,0,0.757519,21.1812,200.649)"
font-family="Helvetica" font-size="13" font-weight="400" font-style="normal" 
>
<text fill="#1171be" fill-opacity="1" stroke="none" xml:space="preserve" x="0" y="0" font-family="Helvetica" font-size="13" font-weight="400" font-style="normal" 
 >16APSK 2/3</text>
</g>

<g fill="#1171be" fill-opacity="1" stroke="#1171be" stroke-opacity="1" stroke-width="1" stroke-linecap="square" stroke-linejoin="bevel" transform="matrix(0.757577,0,0,0.757519,21.1812,183.144)"
font-family="Helvetica" font-size="13" font-weight="400" font-style="normal" 
>
<text fill="#1171be" fill-opacity="1" stroke="none" xml:space="preserve" x="0" y="0" font-family="Helvetica" font-size="13" font-weight="400" font-style="normal" 
 >16APSK 3/4</text>
</g>

<g fill="#1171be" fill-opacity="1" stroke="#1171be" stroke-opacity="1" stroke-width="1" stroke-linecap="square" stroke-linejoin="bevel" transform="matrix(0.757577,0,0,0.757519,21.1812,165.64)"
font-family="Helvetica" font-size="13" font-weight="400" font-style="normal" 
>
<text fill="#1171be" fill-opacity="1" stroke="none" xml:space="preserve" x="0" y="0" font-family="Helvetica" font-size="13" font-weight="400" font-style="normal" 
 >16APSK 4/5</text>
</g>

<g fill="#1171be" fill-opacity="1" stroke="#1171be" stroke-opacity="1" stroke-width="1" stroke-linecap="square" stroke-linejoin="bevel" transform="matrix(0.757577,0,0,0.757519,21.1812,148.136)"
font-family="Helvetica" font-size="13" font-weight="400" font-style="normal" 
>
<text fill="#1171be" fill-opacity="1" stroke="none" xml:space="preserve" x="0" y="0" font-family="Helvetica" font-size="13" font-weight="400" font-style="normal" 
 >16APSK 5/6</text>
</g>

<g fill="#1171be" fill-opacity="1" stroke="#1171be" stroke-opacity="1" stroke-width="1" stroke-linecap="square" stroke-linejoin="bevel" transform="matrix(0.757577,0,0,0.757519,21.1812,130.632)"
font-family="Helvetica" font-size="13" font-weight="400" font-style="normal" 
>
<text fill="#1171be" fill-opacity="1" stroke="none" xml:space="preserve" x="0" y="0" font-family="Helvetica" font-size="13" font-weight="400" font-style="normal" 
 >16APSK 8/9</text>
</g>

<g fill="#1171be" fill-opacity="1" stroke="#1171be" stroke-opacity="1" stroke-width="1" stroke-linecap="square" stroke-linejoin="bevel" transform="matrix(0.757577,0,0,0.757519,15.8782,113.128)"
font-family="Helvetica" font-size="13" font-weight="400" font-style="normal" 
>
<text fill="#1171be" fill-opacity="1" stroke="none" xml:space="preserve" x="0" y="0" font-family="Helvetica" font-size="13" font-weight="400" font-style="normal" 
 >16APSK 9/10</text>
</g>

<g fill="#1171be" fill-opacity="1" stroke="#1171be" stroke-opacity="1" stroke-width="1" stroke-linecap="square" stroke-linejoin="bevel" transform="matrix(0.757577,0,0,0.757519,21.1812,95.624)"
font-family="Helvetica" font-size="13" font-weight="400" font-style="normal" 
>
<text fill="#1171be" fill-opacity="1" stroke="none" xml:space="preserve" x="0" y="0" font-family="Helvetica" font-size="13" font-weight="400" font-style="normal" 
 >32APSK 3/4</text>
</g>

<g fill="#1171be" fill-opacity="1" stroke="#1171be" stroke-opacity="1" stroke-width="1" stroke-linecap="square" stroke-linejoin="bevel" transform="matrix(0.757577,0,0,0.757519,21.1812,78.1199)"
font-family="Helvetica" font-size="13" font-weight="400" font-style="normal" 
>
<text fill="#1171be" fill-opacity="1" stroke="none" xml:space="preserve" x="0" y="0" font-family="Helvetica" font-size="13" font-weight="400" font-style="normal" 
 >32APSK 4/5</text>
</g>

<g fill="#1171be" fill-opacity="1" stroke="#1171be" stroke-opacity="1" stroke-width="1" stroke-linecap="square" stroke-linejoin="bevel" transform="matrix(0.757577,0,0,0.757519,21.1812,60.6158)"
font-family="Helvetica" font-size="13" font-weight="400" font-style="normal" 
>
<text fill="#1171be" fill-opacity="1" stroke="none" xml:space="preserve" x="0" y="0" font-family="Helvetica" font-size="13" font-weight="400" font-style="normal" 
 >32APSK 5/6</text>
</g>

<g fill="#1171be" fill-opacity="1" stroke="#1171be" stroke-opacity="1" stroke-width="1" stroke-linecap="square" stroke-linejoin="bevel" transform="matrix(0.757577,0,0,0.757519,21.1812,43.1117)"
font-family="Helvetica" font-size="13" font-weight="400" font-style="normal" 
>
<text fill="#1171be" fill-opacity="1" stroke="none" xml:space="preserve" x="0" y="0" font-family="Helvetica" font-size="13" font-weight="400" font-style="normal" 
 >32APSK 8/9</text>
</g>

<g fill="#1171be" fill-opacity="1" stroke="#1171be" stroke-opacity="1" stroke-width="1" stroke-linecap="square" stroke-linejoin="bevel" transform="matrix(0.757577,0,0,0.757519,15.8782,25.6076)"
font-family="Helvetica" font-size="13" font-weight="400" font-style="normal" 
>
<text fill="#1171be" fill-opacity="1" stroke="none" xml:space="preserve" x="0" y="0" font-family="Helvetica" font-size="13" font-weight="400" font-style="normal" 
 >32APSK 9/10</text>
</g>

<g fill="#1171be" fill-opacity="1" stroke="#1171be" stroke-opacity="1" stroke-width="1" stroke-linecap="square" stroke-linejoin="bevel" transform="matrix(0,-0.757519,0.757577,0,9.09157,325.545)"
font-family="Helvetica" font-size="14" font-weight="400" font-style="normal" 
>
<text fill="#1171be" fill-opacity="1" stroke="none" xml:space="preserve" x="0" y="0" font-family="Helvetica" font-size="14" font-weight="400" font-style="normal" 
 >Modulation and Coding Rate</text>
</g>

<g fill="#dd5400" fill-opacity="1" stroke="#dd5400" stroke-opacity="1" stroke-width="1" stroke-linecap="square" stroke-linejoin="bevel" transform="matrix(0,-0.757519,0.757577,0,852.633,329.332)"
font-family="Helvetica" font-size="14" font-weight="400" font-style="normal" 
>
<text fill="#dd5400" fill-opacity="1" stroke="none" xml:space="preserve" x="0" y="0" font-family="Helvetica" font-size="14" font-weight="400" font-style="normal" 
 >Maximum Bitrate (kilobits/sec)</text>
</g>

<g fill="#dd5400" fill-opacity="1" stroke="#dd5400" stroke-opacity="1" stroke-width="0.659722" stroke-linecap="square" stroke-linejoin="round" transform="matrix(0.757577,0,0,0.757519,-45.2751,-31.2469)"
font-family="Helvetica" font-size="14" font-weight="400" font-style="normal" 
>
<polyline fill="none" vector-effect="none" points="1140,706 1140,59 " />
<polyline fill="none" vector-effect="none" points="1140,706 1130.24,706 " />
<polyline fill="none" vector-effect="none" points="1140,641.3 1130.24,641.3 " />
<polyline fill="none" vector-effect="none" points="1140,576.6 1130.24,576.6 " />
<polyline fill="none" vector-effect="none" points="1140,511.9 1130.24,511.9 " />
<polyline fill="none" vector-effect="none" points="1140,447.2 1130.24,447.2 " />
<polyline fill="none" vector-effect="none" points="1140,382.5 1130.24,382.5 " />
<polyline fill="none" vector-effect="none" points="1140,317.8 1130.24,317.8 " />
<polyline fill="none" vector-effect="none" points="1140,253.1 1130.24,253.1 " />
<polyline fill="none" vector-effect="none" points="1140,188.4 1130.24,188.4 " />
<polyline fill="none" vector-effect="none" points="1140,123.7 1130.24,123.7 " />
<polyline fill="none" vector-effect="none" points="1140,59 1130.24,59 " />
</g>

<g fill="#dd5400" fill-opacity="1" stroke="#dd5400" stroke-opacity="1" stroke-width="1" stroke-linecap="square" stroke-linejoin="bevel" transform="matrix(0.757577,0,0,0.757519,822.361,506.97)"
font-family="Helvetica" font-size="13" font-weight="400" font-style="normal" 
>
<text fill="#dd5400" fill-opacity="1" stroke="none" xml:space="preserve" x="0" y="0" font-family="Helvetica" font-size="13" font-weight="400" font-style="normal" 
 >10</text>
</g>

<g fill="#dd5400" fill-opacity="1" stroke="#dd5400" stroke-opacity="1" stroke-width="1" stroke-linecap="square" stroke-linejoin="bevel" transform="matrix(0.757577,0,0,0.757519,822.361,457.959)"
font-family="Helvetica" font-size="13" font-weight="400" font-style="normal" 
>
<text fill="#dd5400" fill-opacity="1" stroke="none" xml:space="preserve" x="0" y="0" font-family="Helvetica" font-size="13" font-weight="400" font-style="normal" 
 >20</text>
</g>

<g fill="#dd5400" fill-opacity="1" stroke="#dd5400" stroke-opacity="1" stroke-width="1" stroke-linecap="square" stroke-linejoin="bevel" transform="matrix(0.757577,0,0,0.757519,822.361,408.947)"
font-family="Helvetica" font-size="13" font-weight="400" font-style="normal" 
>
<text fill="#dd5400" fill-opacity="1" stroke="none" xml:space="preserve" x="0" y="0" font-family="Helvetica" font-size="13" font-weight="400" font-style="normal" 
 >30</text>
</g>

<g fill="#dd5400" fill-opacity="1" stroke="#dd5400" stroke-opacity="1" stroke-width="1" stroke-linecap="square" stroke-linejoin="bevel" transform="matrix(0.757577,0,0,0.757519,822.361,359.936)"
font-family="Helvetica" font-size="13" font-weight="400" font-style="normal" 
>
<text fill="#dd5400" fill-opacity="1" stroke="none" xml:space="preserve" x="0" y="0" font-family="Helvetica" font-size="13" font-weight="400" font-style="normal" 
 >40</text>
</g>

<g fill="#dd5400" fill-opacity="1" stroke="#dd5400" stroke-opacity="1" stroke-width="1" stroke-linecap="square" stroke-linejoin="bevel" transform="matrix(0.757577,0,0,0.757519,822.361,310.924)"
font-family="Helvetica" font-size="13" font-weight="400" font-style="normal" 
>
<text fill="#dd5400" fill-opacity="1" stroke="none" xml:space="preserve" x="0" y="0" font-family="Helvetica" font-size="13" font-weight="400" font-style="normal" 
 >50</text>
</g>

<g fill="#dd5400" fill-opacity="1" stroke="#dd5400" stroke-opacity="1" stroke-width="1" stroke-linecap="square" stroke-linejoin="bevel" transform="matrix(0.757577,0,0,0.757519,822.361,261.913)"
font-family="Helvetica" font-size="13" font-weight="400" font-style="normal" 
>
<text fill="#dd5400" fill-opacity="1" stroke="none" xml:space="preserve" x="0" y="0" font-family="Helvetica" font-size="13" font-weight="400" font-style="normal" 
 >60</text>
</g>

<g fill="#dd5400" fill-opacity="1" stroke="#dd5400" stroke-opacity="1" stroke-width="1" stroke-linecap="square" stroke-linejoin="bevel" transform="matrix(0.757577,0,0,0.757519,822.361,212.901)"
font-family="Helvetica" font-size="13" font-weight="400" font-style="normal" 
>
<text fill="#dd5400" fill-opacity="1" stroke="none" xml:space="preserve" x="0" y="0" font-family="Helvetica" font-size="13" font-weight="400" font-style="normal" 
 >70</text>
</g>

<g fill="#dd5400" fill-opacity="1" stroke="#dd5400" stroke-opacity="1" stroke-width="1" stroke-linecap="square" stroke-linejoin="bevel" transform="matrix(0.757577,0,0,0.757519,822.361,163.89)"
font-family="Helvetica" font-size="13" font-weight="400" font-style="normal" 
>
<text fill="#dd5400" fill-opacity="1" stroke="none" xml:space="preserve" x="0" y="0" font-family="Helvetica" font-size="13" font-weight="400" font-style="normal" 
 >80</text>
</g>

<g fill="#dd5400" fill-opacity="1" stroke="#dd5400" stroke-opacity="1" stroke-width="1" stroke-linecap="square" stroke-linejoin="bevel" transform="matrix(0.757577,0,0,0.757519,822.361,114.878)"
font-family="Helvetica" font-size="13" font-weight="400" font-style="normal" 
>
<text fill="#dd5400" fill-opacity="1" stroke="none" xml:space="preserve" x="0" y="0" font-family="Helvetica" font-size="13" font-weight="400" font-style="normal" 
 >90</text>
</g>

<g fill="#dd5400" fill-opacity="1" stroke="#dd5400" stroke-opacity="1" stroke-width="1" stroke-linecap="square" stroke-linejoin="bevel" transform="matrix(0.757577,0,0,0.757519,822.361,65.867)"
font-family="Helvetica" font-size="13" font-weight="400" font-style="normal" 
>
<text fill="#dd5400" fill-opacity="1" stroke="none" xml:space="preserve" x="0" y="0" font-family="Helvetica" font-size="13" font-weight="400" font-style="normal" 
 >100</text>
</g>

<g fill="#dd5400" fill-opacity="1" stroke="#dd5400" stroke-opacity="1" stroke-width="1" stroke-linecap="square" stroke-linejoin="bevel" transform="matrix(0.757577,0,0,0.757519,822.361,16.8556)"
font-family="Helvetica" font-size="13" font-weight="400" font-style="normal" 
>
<text fill="#dd5400" fill-opacity="1" stroke="none" xml:space="preserve" x="0" y="0" font-family="Helvetica" font-size="13" font-weight="400" font-style="normal" 
 >110</text>
</g>

<g fill="#212121" fill-opacity="1" stroke="#212121" stroke-opacity="1" stroke-width="1" stroke-linecap="square" stroke-linejoin="bevel" transform="matrix(0.757577,0,0,0.757519,302.453,9.09098)"
font-family="Helvetica" font-size="14" font-weight="700" font-style="normal" 
>
<text fill="#212121" fill-opacity="1" stroke="none" xml:space="preserve" x="0" y="0" font-family="Helvetica" font-size="14" font-weight="700" font-style="normal" 
 >Elevation vs Optimal MODCOD by Altitude @ BW = 25 kHz</text>
</g>

<g fill="none" stroke="#1171be" stroke-opacity="1" stroke-width="0.659722" stroke-linecap="butt" stroke-linejoin="round" transform="matrix(0.757577,0,0,0.757519,-45.2751,-31.2469)"
font-family="Helvetica" font-size="14" font-weight="700" font-style="normal" 
>
<polyline fill="none" vector-effect="none" points="164,671.339 176.2,671.339 188.4,671.339 200.6,648.232 212.8,648.232 225,648.232 237.2,625.125 249.4,625.125 261.6,625.125 273.8,625.125 286,602.018 298.2,602.018 310.4,602.018 322.6,578.911 334.8,578.911 347,578.911 359.2,578.911 371.4,555.804 383.6,555.804 395.8,555.804 408,532.696 420.2,532.696 432.4,532.696 444.6,509.589 456.8,440.268 469,440.268 481.2,440.268 493.4,440.268 505.6,440.268 517.8,440.268 530,440.268 542.2,417.161 554.4,417.161 566.6,417.161 578.8,417.161 591,417.161 603.2,417.161 615.4,417.161 627.6,417.161 639.8,417.161 652,394.054 664.2,394.054 676.4,394.054 688.6,394.054 700.8,394.054 713,394.054 725.2,394.054 737.4,394.054 749.6,394.054 761.8,394.054 774,394.054 786.2,301.625 798.4,301.625 810.6,301.625 822.8,301.625 835,301.625 847.2,301.625 859.4,301.625 871.6,301.625 883.8,301.625 896,301.625 908.2,301.625 920.4,301.625 932.6,301.625 944.8,301.625 957,301.625 969.2,301.625 981.4,301.625 993.6,301.625 1005.8,301.625 1018,301.625 1030.2,301.625 1042.4,301.625 1054.6,301.625 1066.8,301.625 1079,301.625 1091.2,301.625 1103.4,301.625 1115.6,301.625 1127.8,301.625 1140,301.625 " />
</g>

<g fill="none" stroke="#1171be" stroke-opacity="1" stroke-dasharray="10,6" stroke-dashoffset="0" stroke-width="0.659722" stroke-linecap="butt" stroke-linejoin="round" transform="matrix(0.757577,0,0,0.757519,-45.2751,-31.2469)"
font-family="Helvetica" font-size="14" font-weight="700" font-style="normal" 
>
<polyline fill="none" vector-effect="none" points="164,532.696 176.2,440.268 188.4,440.268 200.6,440.268 212.8,417.161 225,417.161 237.2,417.161 249.4,394.054 261.6,394.054 273.8,301.625 286,301.625 298.2,301.625 310.4,301.625 322.6,278.518 334.8,278.518 347,278.518 359.2,255.411 371.4,255.411 383.6,232.304 395.8,232.304 408,232.304 420.2,232.304 432.4,162.982 444.6,162.982 456.8,162.982 469,162.982 481.2,162.982 493.4,139.875 505.6,139.875 517.8,139.875 530,116.768 542.2,116.768 554.4,116.768 566.6,116.768 578.8,116.768 591,116.768 603.2,116.768 615.4,116.768 627.6,116.768 639.8,93.6607 652,93.6607 664.2,93.6607 676.4,70.5536 688.6,70.5536 700.8,70.5536 713,70.5536 725.2,70.5536 737.4,70.5536 749.6,70.5536 761.8,70.5536 774,70.5536 786.2,70.5536 798.4,70.5536 810.6,70.5536 822.8,70.5536 835,70.5536 847.2,70.5536 859.4,70.5536 871.6,70.5536 883.8,70.5536 896,70.5536 908.2,70.5536 920.4,70.5536 932.6,70.5536 944.8,70.5536 957,70.5536 969.2,70.5536 981.4,70.5536 993.6,70.5536 1005.8,70.5536 1018,70.5536 1030.2,70.5536 1042.4,70.5536 1054.6,70.5536 1066.8,70.5536 1079,70.5536 1091.2,70.5536 1103.4,70.5536 1115.6,70.5536 1127.8,70.5536 1140,70.5536 " />
</g>

<g fill="none" stroke="#dd5400" stroke-opacity="1" stroke-width="0.659722" stroke-linecap="butt" stroke-linejoin="round" transform="matrix(0.757577,0,0,0.757519,-45.2751,-31.2469)"
font-family="Helvetica" font-size="14" font-weight="700" font-style="normal" 
>
<polyline fill="none" vector-effect="none" points="164,667.051 176.2,667.051 188.4,667.051 200.6,646.055 212.8,646.055 225,646.055 237.2,614.563 249.4,614.563 261.6,614.563 273.8,614.563 286,583.07 298.2,583.07 310.4,583.07 322.6,561.913 334.8,561.913 347,561.913 359.2,561.913 371.4,535.823 383.6,535.823 395.8,535.823 408,520.085 420.2,520.085 432.4,520.085 444.6,509.425 456.8,489.32 469,489.32 481.2,489.32 493.4,489.32 505.6,489.32 517.8,489.32 530,489.32 542.2,457.601 554.4,457.601 566.6,457.601 578.8,457.601 591,457.601 603.2,457.601 615.4,457.601 627.6,457.601 639.8,457.601 652,418.489 664.2,418.489 676.4,418.489 688.6,418.489 700.8,418.489 713,418.489 725.2,418.489 737.4,418.489 749.6,418.489 761.8,418.489 774,418.489 786.2,354.258 798.4,354.258 810.6,354.258 822.8,354.258 835,354.258 847.2,354.258 859.4,354.258 871.6,354.258 883.8,354.258 896,354.258 908.2,354.258 920.4,354.258 932.6,354.258 944.8,354.258 957,354.258 969.2,354.258 981.4,354.258 993.6,354.258 1005.8,354.258 1018,354.258 1030.2,354.258 1042.4,354.258 1054.6,354.258 1066.8,354.258 1079,354.258 1091.2,354.258 1103.4,354.258 1115.6,354.258 1127.8,354.258 1140,354.258 " />
</g>

<g fill="none" stroke="#dd5400" stroke-opacity="1" stroke-dasharray="10,6" stroke-dashoffset="0" stroke-width="0.659722" stroke-linecap="butt" stroke-linejoin="round" transform="matrix(0.757577,0,0,0.757519,-45.2751,-31.2469)"
font-family="Helvetica" font-size="14" font-weight="700" font-style="normal" 
>
<polyline fill="none" vector-effect="none" points="164,520.085 176.2,489.32 188.4,489.32 200.6,489.32 212.8,457.601 225,457.601 237.2,457.601 249.4,418.489 261.6,418.489 273.8,354.258 286,354.258 298.2,354.258 310.4,354.258 322.6,302.223 334.8,302.223 347,302.223 359.2,270.812 371.4,270.812 383.6,249.558 395.8,249.558 408,249.558 420.2,249.558 432.4,184.631 444.6,184.631 456.8,184.631 469,184.631 481.2,184.631 493.4,145.342 505.6,145.342 517.8,145.342 530,118.75 542.2,118.75 554.4,118.75 566.6,118.75 578.8,118.75 591,118.75 603.2,118.75 615.4,118.75 627.6,118.75 639.8,74.7059 652,74.7059 664.2,74.7059 676.4,65.9714 688.6,65.9714 700.8,65.9714 713,65.9714 725.2,65.9714 737.4,65.9714 749.6,65.9714 761.8,65.9714 774,65.9714 786.2,65.9714 798.4,65.9714 810.6,65.9714 822.8,65.9714 835,65.9714 847.2,65.9714 859.4,65.9714 871.6,65.9714 883.8,65.9714 896,65.9714 908.2,65.9714 920.4,65.9714 932.6,65.9714 944.8,65.9714 957,65.9714 969.2,65.9714 981.4,65.9714 993.6,65.9714 1005.8,65.9714 1018,65.9714 1030.2,65.9714 1042.4,65.9714 1054.6,65.9714 1066.8,65.9714 1079,65.9714 1091.2,65.9714 1103.4,65.9714 1115.6,65.9714 1127.8,65.9714 1140,65.9714 " />
</g>

<g fill="#ffffff" fill-opacity="1" stroke="none" transform="matrix(7.57577e-05,0,0,7.57519e-05,-45.2751,-31.2469)"
font-family="Helvetica" font-size="14" font-weight="700" font-style="normal" 
>
<path vector-effect="none" fill-rule="evenodd" d="M1.039e+07,700000 L1.039e+07,1.31e+06 L1.129e+07,1.31e+06 L1.129e+07,700000 L1.039e+07,700000"/>
</g>

<g fill="#1171be" fill-opacity="1" stroke="#1171be" stroke-opacity="1" stroke-width="0.659722" stroke-linecap="butt" stroke-linejoin="round" transform="matrix(0.757577,0,0,0.757519,-45.2751,-31.2469)"
font-family="Helvetica" font-size="14" font-weight="700" font-style="normal" 
>
<polyline fill="none" vector-effect="none" points="1042.97,78.9268 1082.3,78.9268 " />
</g>

<g fill="#1171be" fill-opacity="1" stroke="#1171be" stroke-opacity="1" stroke-dasharray="10,6" stroke-dashoffset="0" stroke-width="0.659722" stroke-linecap="butt" stroke-linejoin="round" transform="matrix(0.757577,0,0,0.757519,-45.2751,-31.2469)"
font-family="Helvetica" font-size="14" font-weight="700" font-style="normal" 
>
<polyline fill="none" vector-effect="none" points="1042.97,93.3089 1082.3,93.3089 " />
</g>

<g fill="#dd5400" fill-opacity="1" stroke="#dd5400" stroke-opacity="1" stroke-width="0.659722" stroke-linecap="butt" stroke-linejoin="round" transform="matrix(0.757577,0,0,0.757519,-45.2751,-31.2469)"
font-family="Helvetica" font-size="14" font-weight="700" font-style="normal" 
>
<polyline fill="none" vector-effect="none" points="1042.97,107.691 1082.3,107.691 " />
</g>

<g fill="#dd5400" fill-opacity="1" stroke="#dd5400" stroke-opacity="1" stroke-dasharray="10,6" stroke-dashoffset="0" stroke-width="0.659722" stroke-linecap="butt" stroke-linejoin="round" transform="matrix(0.757577,0,0,0.757519,-45.2751,-31.2469)"
font-family="Helvetica" font-size="14" font-weight="700" font-style="normal" 
>
<polyline fill="none" vector-effect="none" points="1042.97,122.073 1082.3,122.073 " />
</g>

<g fill="#212121" fill-opacity="1" stroke="#212121" stroke-opacity="1" stroke-width="1" stroke-linecap="square" stroke-linejoin="bevel" transform="matrix(0.757577,0,0,0.757519,776.911,31.193)"
font-family="Helvetica" font-size="11" font-weight="400" font-style="normal" 
>
<text fill="#212121" fill-opacity="1" stroke="none" xml:space="preserve" x="0" y="0" font-family="Helvetica" font-size="11" font-weight="400" font-style="normal" 
 >425 km</text>
</g>

<g fill="#212121" fill-opacity="1" stroke="#212121" stroke-opacity="1" stroke-width="1" stroke-linecap="square" stroke-linejoin="bevel" transform="matrix(0.757577,0,0,0.757519,776.911,42.0877)"
font-family="Helvetica" font-size="11" font-weight="400" font-style="normal" 
>
<text fill="#212121" fill-opacity="1" stroke="none" xml:space="preserve" x="0" y="0" font-family="Helvetica" font-size="11" font-weight="400" font-style="normal" 
 >170 km</text>
</g>

<g fill="#212121" fill-opacity="1" stroke="#212121" stroke-opacity="1" stroke-width="1" stroke-linecap="square" stroke-linejoin="bevel" transform="matrix(0.757577,0,0,0.757519,776.911,52.9824)"
font-family="Helvetica" font-size="11" font-weight="400" font-style="normal" 
>
<text fill="#212121" fill-opacity="1" stroke="none" xml:space="preserve" x="0" y="0" font-family="Helvetica" font-size="11" font-weight="400" font-style="normal" 
 >425 km</text>
</g>

<g fill="#212121" fill-opacity="1" stroke="#212121" stroke-opacity="1" stroke-width="1" stroke-linecap="square" stroke-linejoin="bevel" transform="matrix(0.757577,0,0,0.757519,776.911,63.8772)"
font-family="Helvetica" font-size="11" font-weight="400" font-style="normal" 
>
<text fill="#212121" fill-opacity="1" stroke="none" xml:space="preserve" x="0" y="0" font-family="Helvetica" font-size="11" font-weight="400" font-style="normal" 
 >170 km</text>
</g>

<g fill="none" stroke="#212121" stroke-opacity="1" stroke-width="0.659722" stroke-linecap="butt" stroke-linejoin="miter" stroke-miterlimit="2" transform="matrix(0.757577,0,0,0.757519,-45.2751,-31.2469)"
font-family="Helvetica" font-size="11" font-weight="400" font-style="normal" 
>
<path vector-effect="none" fill-rule="evenodd" d="M1039,131 L1039,70 L1129,70 L1129,131 L1039,131"/>
</g>
</g>
</svg>
