<?xml version="1.0" encoding="UTF-8" standalone="no"?>
<!DOCTYPE svg PUBLIC "-//W3C//DTD SVG 1.1//EN" "http://www.w3.org/Graphics/SVG/1.1/DTD/svg11.dtd">
<svg width="100%" height="100%" viewBox="0 0 910 1063" version="1.1" xmlns="http://www.w3.org/2000/svg" xmlns:xlink="http://www.w3.org/1999/xlink" xml:space="preserve" xmlns:serif="http://www.serif.com/" style="fill-rule:evenodd;clip-rule:evenodd;">
    <g transform="matrix(1,0,0,1,-1311.7,-708.661)">
        <g transform="matrix(2.57717,0,0,5.55554,762.655,486.79)">
            <rect x="213.043" y="39.937" width="352.886" height="191.339" style="fill:rgb(0,120,174);stroke:rgb(0,120,174);stroke-width:0.96px;"/>
        </g>
        <g transform="matrix(1,0,0,1,813.05,413.224)">
            <g transform="matrix(4.16667,0,0,4.16667,653.708,1089.61)">
                <path d="M0,-5.49L-3.041,-6.325C-5.148,-6.901 -5.836,-7.559 -5.836,-8.862C-5.836,-10.57 -4.385,-11.765 -2.318,-11.765C-0.432,-11.765 1.272,-11.223 3.554,-9.845L5.953,-13.467C3.736,-15.067 0.617,-15.999 -2.462,-15.999C-7.795,-15.999 -11.49,-12.819 -11.49,-8.216C-11.49,-6.798 -11.133,-5.49 -10.442,-4.367C-9.537,-2.836 -7.977,-1.862 -5.474,-1.173L-2.681,-0.41C-0.432,0.205 0.617,1.222 0.617,2.849C0.617,5.096 -0.905,6.298 -3.808,6.298C-6.341,6.298 -8.375,5.498 -10.734,4.267L-12.618,8.217C-10.075,9.669 -6.89,10.509 -4.024,10.509C2.253,10.509 6.39,7.133 6.39,2.021C6.39,-1.718 4.139,-4.367 0,-5.49" style="fill:white;fill-rule:nonzero;"/>
            </g>
            <g transform="matrix(4.16667,0,0,4.16667,1033.64,1073.2)">
                <path d="M0,9.112C-1.197,10.163 -2.219,10.634 -3.338,10.634C-4.168,10.634 -5.006,10.235 -5.514,9.582C-6.129,8.779 -6.453,7.331 -6.453,4.905C-6.453,0.55 -5.481,-1.332 -3.306,-1.332C-2.397,-1.332 -1.344,-0.796 -0.367,0.115L1.999,-3.076C1.197,-3.76 0.869,-4.017 0.178,-4.384C-0.84,-4.924 -2.177,-5.217 -3.415,-5.217C-4.97,-5.217 -6.786,-4.672 -8.02,-3.833C-10.201,-2.349 -11.828,0.48 -11.828,4.757C-11.828,10.778 -8.848,14.329 -3.739,14.329C-1.96,14.329 -0.513,13.935 0.797,13.172C1.445,12.77 1.771,12.52 2.496,11.793L0.288,8.855L0,9.112Z" style="fill:white;fill-rule:nonzero;"/>
            </g>
            <g transform="matrix(4.16667,0,0,4.16667,760.272,1051.93)">
                <path d="M0,19.001L0,5.872C0.907,4.823 1.882,4.31 2.973,4.31C3.514,4.31 3.916,4.42 4.382,4.677L5.731,0.393C4.968,0.069 4.643,0 3.916,0C3.367,0 2.721,0.11 2.321,0.285C1.413,0.691 0.25,1.703 -0.437,2.647C-0.511,1.595 -0.765,0.763 -1.202,0L-5.551,1.159C-5.152,2.212 -4.862,4.094 -4.862,6.601L-4.862,19.001L0,19.001Z" style="fill:white;fill-rule:nonzero;"/>
            </g>
            <g transform="matrix(4.16667,0,0,4.16667,684.547,1103.3)">
                <path d="M0,-8.555L1.85,-8.555L1.85,1.524C1.85,3.23 1.884,3.591 2.172,4.392C2.757,6.019 4.715,7.106 7.182,7.106C8.45,7.106 9.719,6.854 11.137,6.276L10.52,3.374C9.651,3.62 9.215,3.737 8.778,3.737C7.106,3.737 6.674,3.125 6.674,0.761L6.674,-8.555L9.791,-8.555L11.027,-11.895L6.674,-11.895C6.674,-13.131 6.725,-14.43 6.809,-15.661L1.963,-15.661C1.85,-14.526 1.85,-13.43 1.85,-11.895L0,-11.895L0,-8.555Z" style="fill:white;fill-rule:nonzero;"/>
            </g>
            <g transform="matrix(4.16667,0,0,4.16667,829.915,1061.49)">
                <path d="M0,15.4C0.479,16.345 1.49,17.18 2.611,17.653L5.186,14.675C3.775,13.626 3.446,12.87 3.446,10.867L3.446,10.54L3.556,4.308C3.59,2.311 3.487,1.728 3.234,0.97C2.503,-1.099 0.365,-2.253 -2.755,-2.253C-4.459,-2.253 -6.021,-1.934 -7.831,-1.171C-9.138,-0.63 -9.863,-0.264 -10.84,0.353L-8.778,3.833C-6.782,2.491 -4.965,1.728 -3.41,1.728C-1.634,1.728 -1.231,2.422 -1.231,4.492L-1.231,5.249C-1.634,5.217 -1.956,5.217 -2.318,5.217C-8.231,5.217 -11.241,7.248 -11.241,11.589C-11.241,15.292 -8.994,17.399 -4.857,17.399C-3.331,17.399 -2.028,17.032 -1.116,16.384C-0.761,16.127 -0.365,15.765 0,15.4M-1.378,12.577C-2.105,13.372 -3.009,13.849 -3.912,13.849C-5.152,13.849 -6.055,12.87 -6.055,11.418C-6.055,9.204 -4.891,8.584 -1.519,8.584L-1.303,8.584L-1.378,12.577Z" style="fill:white;fill-rule:nonzero;"/>
            </g>
            <g transform="matrix(4.16667,0,0,4.16667,1225.68,1133.08)">
                <path d="M0,-25.281L-4.824,-25.281L-4.824,-20.921C-4.824,-19.841 -4.752,-18.571 -4.684,-18.171C-5.584,-18.9 -6.633,-19.22 -7.977,-19.22C-12.692,-19.22 -15.916,-15.231 -15.916,-9.428C-15.916,-3.666 -12.947,0 -8.231,0C-6.561,0 -5.148,-0.508 -3.955,-1.56C-3.874,-1.055 -3.802,-0.763 -3.664,-0.472L0.695,-0.472C0.358,-1.197 0,-2.683 0,-7.252L0,-25.281ZM-4.752,-5.294C-5.224,-4.718 -6.235,-4.099 -7.149,-4.099C-9.681,-4.099 -10.523,-5.406 -10.523,-9.395C-10.523,-13.529 -9.58,-15.337 -7.398,-15.337C-6.525,-15.337 -5.659,-14.943 -4.752,-14.148L-4.752,-5.294Z" style="fill:white;fill-rule:nonzero;"/>
            </g>
            <g transform="matrix(4.16667,0,0,4.16667,1077.14,1041.61)">
                <path d="M0,18.583C-0.401,18.583 -0.799,18.396 -0.979,18.068C-1.267,17.568 -1.305,17.131 -1.305,13.935L-1.305,-0.531C-1.305,-1.193 -1.305,-2.834 -1.319,-3.329L-6.356,-3.329C-6.307,-2.302 -6.268,-0.112 -6.268,1.346L-6.268,15.202C-6.268,17.854 -6.196,18.425 -5.836,19.375C-5.258,20.937 -3.59,21.912 -1.524,21.912C-0.47,21.912 0.542,21.739 1.375,21.403L0.542,18.504C0.288,18.583 0.189,18.583 0,18.583" style="fill:white;fill-rule:nonzero;"/>
            </g>
            <g transform="matrix(4.16667,0,0,4.16667,1138.03,1163.77)">
                <path d="M0,-26.409L-2.787,-17.559C-3.084,-16.692 -3.369,-15.598 -3.516,-14.986C-3.736,-14.077 -4.099,-12.013 -4.099,-12.013C-4.099,-12.013 -4.747,-14.727 -5.078,-15.85L-8.303,-26.697L-13.269,-26.121L-8.882,-13.059C-8.697,-12.476 -7.72,-9.582 -7.14,-7.84L-5.911,-7.84C-6.345,-6.748 -6.489,-6.426 -6.966,-5.665C-7.362,-5.046 -7.792,-4.538 -8.337,-4.139C-9.064,-3.626 -10.298,-3.194 -11.353,-2.91L-9.681,0.288C-8.015,0.067 -6.419,-0.511 -5.186,-1.416C-3.84,-2.397 -2.897,-3.959 -1.632,-7.547L5.118,-26.409L0,-26.409Z" style="fill:white;fill-rule:nonzero;"/>
            </g>
            <g transform="matrix(4.16667,0,0,4.16667,1305.63,1086.55)">
                <path d="M0,2.936L0,1.806C0,-2.07 -0.763,-4.575 -2.467,-6.31C-3.664,-7.544 -5.699,-8.269 -7.833,-8.269C-10.304,-8.269 -12.148,-7.481 -13.676,-5.772C-15.301,-3.956 -15.994,-1.746 -15.994,1.592C-15.994,7.431 -12.551,11.205 -7.216,11.205C-4.61,11.205 -2.363,10.368 -0.221,8.628L-2.107,5.729C-3.59,6.96 -5.15,7.575 -6.82,7.575C-9.321,7.575 -10.732,5.941 -10.732,3.078L-10.732,2.936L0,2.936ZM-10.664,-0.692C-10.664,-3.272 -9.618,-4.719 -7.761,-4.719C-6.782,-4.719 -6.093,-4.359 -5.62,-3.632C-5.186,-2.943 -5.044,-2.216 -5.044,-0.836L-5.044,-0.625L-10.664,-0.625L-10.664,-0.692Z" style="fill:white;fill-rule:nonzero;"/>
            </g>
            <g transform="matrix(4.16667,0,0,4.16667,862.433,1049.35)">
                <path d="M0,17.339C0.572,18.966 2.534,20.053 5.001,20.053C6.269,20.053 7.538,19.801 8.952,19.223L8.337,16.322C7.466,16.569 7.034,16.684 6.597,16.684C4.927,16.684 4.493,16.072 4.493,13.708L4.493,4.392L7.606,4.392L8.843,1.052L4.493,1.052C4.493,-0.184 4.54,-1.482 4.628,-2.714L-0.221,-2.714C-0.331,-1.579 -0.333,-0.483 -0.333,1.052L-2.179,1.052L-2.179,4.392L-0.333,4.392L-0.333,14.471C-0.333,16.178 -0.293,16.538 0,17.339" style="fill:white;fill-rule:nonzero;"/>
            </g>
            <g transform="matrix(4.16667,0,0,4.16667,973.012,1027.75)">
                <path d="M0,24.806L0,11.819C0,10.047 -0.103,9.424 -0.466,8.375C-1.049,6.748 -2.933,5.735 -5.289,5.735C-7.176,5.735 -9.282,6.527 -10.55,7.725C-10.55,7.508 -10.48,6.748 -10.48,6.165L-10.48,0L-15.42,0C-15.411,0.281 -15.409,3.047 -15.409,3.335L-15.409,24.806L-10.48,24.806L-10.48,11.495C-9.386,10.52 -7.828,9.795 -6.629,9.795C-5.256,9.795 -4.742,10.482 -4.742,12.332L-4.742,24.806L0,24.806Z" style="fill:white;fill-rule:nonzero;"/>
            </g>
            <g transform="matrix(4.16667,0,0,4.16667,629.842,946.252)">
                <path d="M0,12.915C2.735,12.915 3.982,11.531 4.308,10.527C4.488,9.975 4.506,9.739 4.506,8.539L4.506,0L1.918,0L1.918,8.116C1.918,8.792 1.918,8.976 1.877,9.248C1.769,10.173 1.06,10.723 -0.056,10.723C-0.889,10.723 -1.492,10.414 -1.787,9.849C-1.936,9.575 -2.003,9.12 -2.003,8.337L-2.003,0L-4.612,0L-4.612,8.83C-4.612,10.045 -4.49,10.561 -4.063,11.218C-3.356,12.332 -1.936,12.915 0,12.915" style="fill:white;fill-rule:nonzero;"/>
            </g>
            <g transform="matrix(4.16667,0,0,4.16667,657.817,959.171)">
                <path d="M0,9.575L2.444,9.575L2.444,2.976C3.012,2.458 3.649,2.136 4.139,2.136C4.774,2.136 4.954,2.442 4.954,3.505L4.954,9.575L7.365,9.575L7.365,2.757C7.365,2.17 7.313,1.771 7.182,1.42C6.892,0.621 5.98,0.077 4.938,0.077C4.391,0.077 3.752,0.221 3.261,0.473C2.859,0.691 2.548,0.914 2.188,1.164C2.188,0.788 2.062,0.385 1.843,0L-0.326,0.621C-0.11,1.24 0,2.01 0,2.811L0,9.575Z" style="fill:white;fill-rule:nonzero;"/>
            </g>
            <g transform="matrix(4.16648,0.0399431,0.0399431,-4.16648,703.284,955.764)">
                <path d="M0.014,0C0.851,0.008 1.516,0.694 1.508,1.529C1.5,2.364 0.838,3.033 0.014,3.025C-0.82,3.017 -1.507,2.336 -1.499,1.501C-1.491,0.666 -0.811,-0.008 0.014,0" style="fill:white;fill-rule:nonzero;"/>
            </g>
            <g transform="matrix(4.16667,0,0,4.16667,698.236,959.246)">
                <path d="M0,9.557L2.444,9.557L2.444,0L0,0.383L0,9.557Z" style="fill:white;fill-rule:nonzero;"/>
            </g>
            <g transform="matrix(4.16667,0,0,4.16667,734.639,959.5)">
                <path d="M0,9.496L3.408,0.162L0.858,0.162L-0.405,4.078C-0.695,5.008 -0.894,5.904 -0.963,6.451C-1.098,5.852 -1.373,4.832 -1.569,4.209L-2.922,0L-5.418,0.306L-2.028,9.496L0,9.496Z" style="fill:white;fill-rule:nonzero;"/>
            </g>
            <g transform="matrix(4.16667,0,0,4.16667,767.85,959.339)">
                <path d="M0,9.793C1.31,9.793 2.444,9.37 3.523,8.494L2.568,7.036C1.825,7.657 1.04,7.965 0.2,7.965C-1.058,7.965 -1.767,7.146 -1.767,5.705L-1.767,5.633L3.628,5.633L3.628,5.066C3.628,3.115 3.246,1.857 2.388,0.981C1.787,0.36 0.763,0 -0.313,0C-1.551,0 -2.483,0.398 -3.248,1.26C-4.07,2.172 -4.414,3.284 -4.414,4.958C-4.414,7.891 -2.685,9.793 0,9.793M-1.736,3.808C-1.736,2.516 -1.204,1.785 -0.275,1.785C0.216,1.785 0.56,1.969 0.801,2.332C1.02,2.683 1.094,3.045 1.094,3.738L1.094,3.851L-1.736,3.851L-1.736,3.808Z" style="fill:white;fill-rule:nonzero;"/>
            </g>
            <g transform="matrix(4.16667,0,0,4.16667,790.045,959.246)">
                <path d="M0,9.557L2.44,9.557L2.44,2.958C2.897,2.429 3.392,2.177 3.934,2.177C4.209,2.177 4.407,2.226 4.648,2.354L5.323,0.2C4.936,0.043 4.772,0 4.407,0C4.139,0 3.808,0.061 3.606,0.153C3.153,0.349 2.571,0.858 2.222,1.328C2.188,0.804 2.057,0.383 1.841,0L-0.349,0.585C-0.151,1.112 0,2.06 0,3.32L0,9.557Z" style="fill:white;fill-rule:nonzero;"/>
            </g>
            <g transform="matrix(4.16667,0,0,4.16667,829.937,966.604)">
                <path d="M0,6.284C-1.06,6.284 -2.357,5.674 -3.099,5.222L-3.982,7.006C-2.613,7.716 -1.353,8.087 -0.203,8.087C2.19,8.087 3.795,6.77 3.795,4.841C3.795,4.215 3.626,3.693 3.282,3.252C2.951,2.836 2.573,2.48 1.422,2.192L0.288,1.897C-0.563,1.688 -0.88,1.422 -0.88,0.954C-0.88,0.412 -0.405,0.04 0.306,0.04C0.997,0.04 1.679,0.243 2.606,0.715L3.41,-0.925C2.55,-1.349 1.569,-1.803 0.074,-1.803C-2.096,-1.803 -3.545,-0.576 -3.545,1.242C-3.545,1.845 -3.336,2.523 -3.009,2.923C-2.683,3.322 -1.92,3.761 -1.299,3.873L-0.203,4.071C0.781,4.251 1.238,4.578 1.238,5.222C1.238,5.82 0.691,6.284 0,6.284" style="fill:white;fill-rule:nonzero;"/>
            </g>
            <g transform="matrix(4.16634,0.0523375,0.0523375,-4.16634,857.743,955.764)">
                <path d="M0.019,0C0.858,0.011 1.518,0.699 1.508,1.534C1.497,2.369 0.836,3.036 0.019,3.025C-0.825,3.015 -1.509,2.331 -1.499,1.496C-1.488,0.661 -0.805,-0.01 0.019,0" style="fill:white;fill-rule:nonzero;"/>
            </g>
            <g transform="matrix(-4.11643,0.645087,0.645087,4.11643,855.875,999.617)">
                <path d="M-3.169,-9.31L-0.695,-9.31L0.725,-0.247L-1.689,0.132L-3.169,-9.31Z" style="fill:white;fill-rule:nonzero;"/>
            </g>
            <g transform="matrix(4.16667,0,0,4.16667,872.932,960.099)">
                <path d="M0,6.761C0,7.623 0.018,7.801 0.169,8.206C0.457,9.028 1.436,9.57 2.683,9.57C3.318,9.57 3.955,9.446 4.67,9.156L4.36,7.693C3.921,7.821 3.707,7.873 3.482,7.873C2.647,7.873 2.429,7.567 2.429,6.378L2.429,1.69L3.995,1.69L4.614,0.02L2.429,0.02C2.429,-0.93 2.48,-1.957 2.575,-2.809L0.092,-2.195C0,-1.502 0,-0.892 0,0.02L-0.927,0.02L-0.927,1.69L0,1.69L0,6.761Z" style="fill:white;fill-rule:nonzero;"/>
            </g>
            <g transform="matrix(4.16667,0,0,4.16667,907.73,976.608)">
                <path d="M0,5.39L0.626,5.39C0.403,5.937 0.326,6.104 0.092,6.484C-0.108,6.797 -0.329,7.049 -0.601,7.249C-0.966,7.508 -1.582,7.724 -2.113,7.87L-1.276,9.48C-0.434,9.367 0.365,9.077 0.984,8.616C1.666,8.127 2.136,7.344 2.771,5.532L6.163,-3.946L3.595,-3.946L2.197,0.506C2.042,0.94 1.897,1.487 1.825,1.798C1.722,2.257 1.537,3.294 1.537,3.294C1.537,3.294 1.209,1.928 1.04,1.359L-0.585,-4.09L-3.081,-3.8L-0.873,2.761C-0.781,3.056 -0.286,4.514 0,5.39" style="fill:white;fill-rule:nonzero;"/>
            </g>
            <g transform="matrix(4.16667,0,0,4.16667,961.071,959.421)">
                <path d="M0,9.717C1.436,9.717 2.372,9.226 3.077,8.421C3.883,7.511 4.243,6.413 4.243,4.808C4.243,3.302 3.919,2.278 3.174,1.4C2.372,0.448 1.326,0 0,0C-2.521,0 -4.2,1.949 -4.2,4.882C-4.2,7.815 -2.537,9.717 0,9.717M-1.222,2.751C-1.026,2.165 -0.554,1.801 0.036,1.801C0.475,1.801 0.851,1.988 1.092,2.294C1.423,2.712 1.582,3.532 1.582,4.797C1.582,6.996 1.134,7.946 0.074,7.946C-0.401,7.946 -0.952,7.696 -1.173,7.18C-1.371,6.708 -1.479,5.906 -1.479,4.826C-1.479,3.901 -1.391,3.241 -1.222,2.751" style="fill:white;fill-rule:nonzero;"/>
            </g>
            <g transform="matrix(4.16667,0,0,4.16667,986.288,942.75)">
                <path d="M0,13.516L2.39,13.516L2.39,5.852L4.121,5.852L4.742,4.182L2.375,4.182L2.375,2.847C2.375,2.176 2.771,1.789 3.39,1.789C3.678,1.789 3.867,1.846 4.387,2.1L5.175,0.59C4.432,0.166 3.777,0 2.967,0C1.06,0 -0.032,1.064 -0.032,2.906C-0.032,3.322 0,3.797 0.052,4.182L-0.837,4.182L-0.837,5.852L0,5.852L0,13.516Z" style="fill:white;fill-rule:nonzero;"/>
            </g>
            <g transform="matrix(4.16667,0,0,4.16667,1247.74,792.263)">
                <path d="M0,1.542L-1.918,1.538L-1.918,7.351L-7.11,5.641C-7.151,5.661 -7.189,5.677 -7.227,5.695L-7.227,5.737L-7.254,5.708C-7.414,5.776 -7.574,5.816 -7.734,5.814C-7.9,5.816 -8.047,5.773 -8.168,5.715L-8.195,5.742L-8.195,5.699C-8.238,5.677 -8.281,5.652 -8.319,5.627L-13.586,7.351L-13.586,1.517L-14.5,1.515L-14.509,1.515C-14.522,1.511 -14.864,1.486 -15.132,1.378L-15.382,1.168C-15.443,1.045 -15.663,0.696 -15.749,0.567C-15.776,0.633 -15.808,0.72 -15.837,0.833L-15.839,0.833L-16.012,1.587L-16.015,1.587L-16.111,1.846C-16.143,1.884 -16.192,1.965 -16.332,1.97L-16.553,1.853L-16.638,1.679C-16.685,1.542 -16.728,1.348 -16.775,1.049C-16.96,-0.099 -17.07,-0.632 -17.09,-0.731L-17.138,-0.803C-17.138,-0.772 -17.14,-0.74 -17.142,-0.702L-17.142,3.473C-17.142,3.475 -17.149,3.685 -17.169,3.93C-17.21,4.171 -17.23,4.423 -17.345,4.621L-17.59,4.754L-17.804,4.776C-17.921,4.79 -18.112,4.711 -18.189,4.549C-18.266,4.396 -18.297,4.205 -18.297,3.903L-18.297,-2.944L-18.292,-2.966L-18.288,-3.097L-18.337,-3.394L-18.526,-3.527L-18.554,-3.507C-18.587,-3.48 -18.661,-3.378 -18.664,-3.077L-18.664,5.044L-18.661,5.105C-18.661,5.179 -18.673,5.328 -18.785,5.472C-18.896,5.607 -19.089,5.699 -19.337,5.708L-19.337,5.711L-19.413,5.717L-19.713,5.542C-19.792,5.416 -19.85,5.251 -19.87,4.977L-19.875,4.968L-19.841,-4.009L-19.879,-4.137L-19.996,-4.346L-20.03,-4.369L-20.113,-4.326L-20.293,-4.108L-20.293,5.683C-20.293,5.792 -20.302,5.994 -20.379,6.197C-20.453,6.397 -20.66,6.631 -20.975,6.622L-20.975,6.203L-20.771,6.039L-20.714,5.683L-20.719,5.636L-20.719,-4.247L-20.681,-4.301C-20.476,-4.612 -20.282,-4.783 -20.03,-4.792C-19.893,-4.792 -19.776,-4.718 -19.697,-4.643L-19.535,-4.398C-19.458,-4.238 -19.431,-4.092 -19.427,-4.087L-19.42,-4.06L-19.456,4.936C-19.436,5.155 -19.393,5.254 -19.371,5.292C-19.197,5.285 -19.145,5.238 -19.118,5.209L-19.087,5.105L-19.087,5.096L-19.089,5.087L-19.089,-3.077C-19.089,-3.446 -18.986,-3.682 -18.842,-3.819C-18.704,-3.952 -18.554,-3.959 -18.524,-3.959L-18.509,-3.959L-18.497,-3.957C-18.234,-3.934 -18.043,-3.761 -17.964,-3.585C-17.876,-3.41 -17.863,-3.227 -17.863,-3.097L-17.874,-2.93L-17.872,-2.93L-17.872,3.903C-17.872,4.081 -17.858,4.2 -17.842,4.274L-17.809,4.355L-17.804,4.355L-17.676,4.34L-17.667,4.313L-17.604,3.982C-17.572,3.723 -17.563,3.46 -17.563,3.46L-17.563,-0.718C-17.563,-0.896 -17.547,-1.033 -17.502,-1.137C-17.478,-1.236 -17.37,-1.373 -17.21,-1.373L-16.953,-1.26L-16.823,-1.101L-16.697,-0.893L-16.688,-0.869L-16.685,-0.839C-16.681,-0.837 -16.568,-0.306 -16.359,0.984C-16.352,1.033 -16.343,1.081 -16.336,1.123L-16.246,0.727C-16.186,0.498 -16.125,0.351 -16.062,0.243C-16.001,0.14 -15.902,0.036 -15.742,0.032C-15.573,0.043 -15.506,0.153 -15.465,0.212L-15.42,0.302C-15.375,0.367 -15.112,0.772 -15.011,0.966L-14.968,0.988L-14.763,1.045C-14.615,1.083 -14.475,1.094 -14.475,1.094L-13.586,1.096L-13.586,-3.243L-13.163,-3.329L-13.001,-3.36C-12.895,-3.39 -12.724,-3.529 -12.611,-3.633L-12.611,-4.162L-12.019,-4.09L-11.574,-4.031L-11.515,-4.011L-11.513,-4.011L-11.398,-4C-11.229,-4.002 -10.926,-4.042 -10.453,-4.407C-10.054,-4.72 -9.589,-4.848 -9.156,-4.844C-8.69,-4.844 -8.251,-4.709 -7.907,-4.49C-7.842,-4.447 -7.777,-4.398 -7.714,-4.348C-7.651,-4.398 -7.587,-4.445 -7.52,-4.49C-7.171,-4.709 -6.743,-4.844 -6.268,-4.844C-5.843,-4.848 -5.373,-4.722 -4.974,-4.405L-4.979,-4.405C-4.508,-4.045 -4.195,-4.004 -4.033,-3.997L-3.903,-4.018L-3.903,-4.015L-3.871,-4.024L-3.811,-4.036L-2.82,-4.222L-2.82,-3.563L-2.809,-3.552L-2.51,-3.358L-2.471,-3.358L-2.424,-3.342L-1.918,-3.243L-1.918,1.119L-0.135,1.123L-0.817,-1.001L-0.822,-1.013L-0.889,-1.274L-0.887,-1.274C-1.659,-3.651 -2.865,-4.859 -3.991,-5.512C-5.123,-6.165 -6.201,-6.25 -6.653,-6.25L-6.831,-6.239L-6.876,-6.239L-6.908,-6.237L-33.278,-6.221L-33.292,-6.221L-33.713,-6.226C-36.569,-6.219 -38.165,-5.199 -39.122,-4.139C-39.403,-3.826 -39.624,-3.507 -39.801,-3.205L-39.608,-3.239L-39.428,-3.273C-39.317,-3.32 -39.169,-3.444 -39.07,-3.538L-39.07,-4.063L-38.478,-3.993L-38.037,-3.941L-37.978,-3.916L-37.976,-3.916L-37.854,-3.905C-37.69,-3.907 -37.373,-3.948 -36.909,-4.31C-36.515,-4.625 -36.038,-4.754 -35.61,-4.749C-35.144,-4.749 -34.71,-4.614 -34.363,-4.398C-34.296,-4.353 -34.233,-4.303 -34.168,-4.252C-34.104,-4.303 -34.039,-4.351 -33.974,-4.396C-33.632,-4.612 -33.2,-4.751 -32.727,-4.751C-32.302,-4.751 -31.831,-4.623 -31.428,-4.31C-30.962,-3.948 -30.65,-3.907 -30.487,-3.903L-30.359,-3.921L-30.359,-3.918L-30.321,-3.934L-30.271,-3.941L-29.276,-4.126L-29.276,-3.471L-29.261,-3.455L-28.973,-3.257L-28.941,-3.257L-28.898,-3.255L-28.376,-3.171L-28.376,1.094L-27.48,1.092L-27.264,1.063L-26.949,0.973L-26.94,0.968C-26.834,0.774 -26.557,0.34 -26.53,0.295L-26.492,0.209C-26.445,0.153 -26.384,0.043 -26.202,0.032C-26.044,0.034 -25.954,0.142 -25.891,0.241C-25.824,0.351 -25.765,0.502 -25.704,0.727L-25.704,0.732L-25.7,0.732L-25.612,1.114C-25.605,1.074 -25.599,1.033 -25.592,0.984C-25.387,-0.306 -25.27,-0.837 -25.27,-0.842L-25.266,-0.869L-25.25,-0.893C-25.243,-0.898 -25.148,-1.107 -24.991,-1.256L-24.746,-1.375C-24.586,-1.375 -24.475,-1.236 -24.448,-1.137C-24.412,-1.028 -24.392,-0.898 -24.383,-0.716L-24.383,3.462C-24.383,3.462 -24.381,3.662 -24.358,3.887C-24.345,4.056 -24.302,4.256 -24.277,4.34L-24.145,4.355L-24.138,4.355L-24.131,4.351C-24.115,4.313 -24.073,4.171 -24.073,3.905L-24.073,-2.901L-24.088,-3.093C-24.088,-3.223 -24.073,-3.405 -23.992,-3.585C-23.908,-3.759 -23.717,-3.934 -23.449,-3.957L-23.442,-3.961L-23.431,-3.961C-23.393,-3.961 -23.247,-3.952 -23.102,-3.815C-22.965,-3.68 -22.859,-3.441 -22.864,-3.077L-22.864,5.105L-22.837,5.211C-22.805,5.238 -22.751,5.285 -22.58,5.292C-22.553,5.251 -22.513,5.148 -22.495,4.936L-22.531,-4.063L-22.526,-4.087C-22.519,-4.101 -22.47,-4.414 -22.252,-4.646C-22.175,-4.718 -22.058,-4.794 -21.921,-4.794C-21.669,-4.785 -21.475,-4.612 -21.264,-4.301L-21.232,-4.247L-21.232,5.695L-21.178,6.048L-20.98,6.203L-20.98,6.624C-21.295,6.631 -21.498,6.402 -21.57,6.206C-21.646,6.003 -21.655,5.805 -21.655,5.695L-21.655,-4.11L-21.838,-4.324L-21.921,-4.369L-21.995,-4.292L-22.096,-4.063L-22.108,-4.022L-22.069,4.97L-22.069,4.977C-22.103,5.254 -22.155,5.416 -22.234,5.539L-22.535,5.715L-22.551,5.715C-22.837,5.719 -23.039,5.62 -23.156,5.476C-23.278,5.332 -23.285,5.186 -23.289,5.105L-23.285,5.042L-23.285,-3.077C-23.285,-3.336 -23.35,-3.45 -23.379,-3.495L-23.422,-3.525L-23.609,-3.396L-23.667,-3.093L-23.658,-2.964L-23.654,-2.944L-23.654,3.905C-23.658,4.205 -23.683,4.401 -23.762,4.554C-23.839,4.711 -24.032,4.79 -24.145,4.776L-24.363,4.754L-24.608,4.621L-24.687,4.441C-24.725,4.313 -24.746,4.171 -24.761,4.029C-24.804,3.752 -24.806,3.478 -24.806,3.471L-24.806,-0.702C-24.809,-0.74 -24.811,-0.774 -24.813,-0.806L-24.858,-0.731C-24.878,-0.635 -24.993,-0.103 -25.173,1.051C-25.254,1.506 -25.299,1.702 -25.398,1.853L-25.617,1.97C-25.756,1.967 -25.812,1.884 -25.842,1.848L-25.9,1.722L-25.941,1.585L-25.943,1.585L-26.119,0.824L-26.112,0.822C-26.143,0.711 -26.173,0.626 -26.2,0.563C-26.281,0.689 -26.503,1.038 -26.571,1.168L-26.569,1.168L-26.821,1.375L-27.091,1.463C-27.273,1.501 -27.435,1.515 -27.435,1.515L-27.451,1.515L-28.376,1.517L-28.376,7.441L-33.573,5.733C-33.609,5.756 -33.648,5.769 -33.684,5.787L-33.684,5.83L-33.713,5.8C-33.868,5.87 -34.028,5.911 -34.188,5.911C-34.354,5.911 -34.498,5.868 -34.62,5.812L-34.649,5.841L-34.649,5.796C-34.696,5.771 -34.744,5.747 -34.782,5.717L-40.04,7.441L-40.04,1.54L-41.449,1.544L-43.47,7.792L2.005,7.792L0,1.542Z" style="fill:white;fill-rule:nonzero;"/>
            </g>
            <g transform="matrix(4.16667,0,0,4.16667,1080.9,796.94)">
                <path d="M0,-3.874C-0.245,-3.358 -0.347,-2.956 -0.374,-2.832L-0.376,-2.796L-0.38,-2.758L-1.272,0L0,-0.002L0,-3.874Z" style="fill:white;fill-rule:nonzero;"/>
            </g>
            <g transform="matrix(4.16667,0,0,4.16667,1298.63,854.139)">
                <path d="M0,14.873L-0.002,14.864L-0.004,14.857L-0.007,14.848L-12.611,-23.958L-53.408,-23.976L-53.414,-23.976L-65.819,13.777L-66.132,14.727L-65.272,15.352L-33.884,38.237L-33.042,38.849L-33.035,38.844L-33.031,38.842L-33.013,38.829L-32.999,38.817L-32.191,38.232L0,14.873ZM-4.29,14.378C-4.677,15.377 -5.337,16.345 -6.363,17.092L-6.548,17.263L-28.57,32.853C-28.696,32.958 -30.467,34.46 -33.202,34.467C-34.676,34.469 -36.407,34.01 -38.217,32.688L-38.221,32.693L-38.509,32.515L-58.373,17.952L-58.375,17.954C-58.404,17.934 -59.359,17.263 -60.324,16.077C-61.294,14.884 -62.285,13.16 -62.289,11.029C-62.294,10.324 -62.186,9.584 -61.929,8.818L-61.929,8.816L-53.673,-16.713C-53.655,-16.81 -53.414,-18.113 -52.341,-19.441C-51.254,-20.798 -49.248,-22.137 -45.926,-22.13L-45.919,-22.13L-45.489,-22.126L-19.204,-22.142C-19.188,-22.142 -19.065,-22.155 -18.869,-22.155C-18.295,-22.155 -17.028,-22.054 -15.682,-21.273C-14.324,-20.501 -12.924,-19.027 -12.091,-16.416L-12.082,-16.395L-12.078,-16.382L-12.015,-16.141L-4.27,7.997C-4.265,8.028 -3.786,9.5 -3.777,11.371C-3.777,12.312 -3.905,13.358 -4.29,14.378" style="fill:white;fill-rule:nonzero;"/>
            </g>
            <g transform="matrix(4.16667,0,0,4.16667,1261.24,945.148)">
                <path d="M0,-25.056L-0.896,-27.845L-6.061,-27.845L-21.286,-17.149L-22.261,-16.465L-23.947,-15.278L-24.093,-15.175L-24.268,-15.299L-42.257,-27.845L-47.051,-27.845L-48.134,-24.505L-30.022,-11.198L-44.01,-1.242L-38.509,2.787L-24.268,-7.088L-24.158,-7.162L-23.947,-7.016L-19.38,-3.849L-9.807,2.789L-5.028,-0.594L-19.659,-11.054L0,-25.056Z" style="fill:white;fill-rule:nonzero;"/>
            </g>
            <g transform="matrix(4.16667,0,0,4.16667,1084.77,817.594)">
                <path d="M0,-8.801C-0.052,-8.776 -0.104,-8.754 -0.158,-8.736L-0.164,-8.731L-0.173,-8.729L-0.293,-8.715L-0.293,0.252L0.043,-0.054L0.128,-0.129L0.369,-0.347L0.369,-9.053C0.277,-8.974 0.167,-8.891 0.043,-8.826C0.029,-8.817 0.016,-8.81 0,-8.801" style="fill:white;fill-rule:nonzero;"/>
            </g>
            <g transform="matrix(4.16667,0,0,4.16667,1085.93,810.208)">
                <path d="M0,2.073L1.553,1.564L4.119,0.725L3.991,0.673C3.997,0.666 4.031,0.581 4.099,0.477C4.124,0.439 4.151,0.401 4.184,0.36C4.218,0.317 4.261,0.277 4.308,0.239L4.268,0.211L4.232,0.187C4.218,0.178 4.2,0.169 4.184,0.162C4.157,0.146 4.13,0.13 4.099,0.117C3.95,0.052 3.761,0 3.536,0C3.147,0 2.62,0.167 1.972,0.77L1.974,0.77C1.972,0.772 1.967,0.776 1.961,0.781C1.924,0.819 1.812,0.945 1.641,1.094C1.351,1.344 0.898,1.659 0.365,1.74L0,2.073Z" style="fill:white;fill-rule:nonzero;"/>
            </g>
            <g transform="matrix(4.16667,0,0,4.16667,1125.75,781.256)">
                <path d="M0,8.689L0.268,8.952L0.268,0.01C0.176,0.003 0.086,-0.026 0,-0.065C-0.013,-0.069 -0.027,-0.074 -0.04,-0.08C-0.142,-0.13 -0.234,-0.193 -0.317,-0.263L-0.317,8.376L-0.153,8.54L0,8.689Z" style="fill:white;fill-rule:nonzero;"/>
            </g>
            <g transform="matrix(4.16667,0,0,4.16667,1118.13,814.212)">
                <path d="M0,0.167C-0.196,0.005 -0.326,-0.139 -0.362,-0.18L-0.365,-0.177L-0.367,-0.18C-0.371,-0.184 -0.374,-0.186 -0.378,-0.189C-1.022,-0.794 -1.542,-0.963 -1.938,-0.963C-2.156,-0.963 -2.341,-0.909 -2.489,-0.844C-2.521,-0.83 -2.55,-0.817 -2.577,-0.803C-2.611,-0.785 -2.64,-0.769 -2.667,-0.751C-2.674,-0.749 -2.678,-0.745 -2.683,-0.742C-2.645,-0.706 -2.609,-0.668 -2.577,-0.63C-2.577,-0.63 -2.575,-0.628 -2.575,-0.625C-2.537,-0.58 -2.505,-0.537 -2.48,-0.495C-2.402,-0.375 -2.359,-0.276 -2.352,-0.274L-2.492,-0.209L0.119,0.649L1.479,1.097L1.585,1.13L1.555,1.103L1.202,0.754C0.711,0.682 0.284,0.406 0,0.167" style="fill:white;fill-rule:nonzero;"/>
            </g>
            <g transform="matrix(4.16667,0,0,4.16667,1104.37,813.384)">
                <path d="M0,0.005L-0.02,0.028L-0.038,0.068L-0.101,0.043L-0.049,0.1L0.176,0.187L0.221,0.205C0.245,0.205 0.275,0.201 0.302,0.196C0.374,0.185 0.461,0.151 0.56,0.091L0.536,0.046L0.5,-0.013L0.457,-0.083L0.41,-0.13L0.41,-0.024L0.241,-0.2L0.225,-0.182L0.221,-0.177L0.074,-0.024L0.074,-0.078L0,0.005Z" style="fill:white;fill-rule:nonzero;"/>
            </g>
            <g transform="matrix(4.16667,0,0,4.16667,1104.28,812.858)">
                <path d="M0,-8.274L0,-8.312C0.002,-8.373 -0.054,-8.483 -0.171,-8.594C-0.214,-8.636 -0.266,-8.677 -0.329,-8.717C-0.551,-8.857 -0.867,-8.956 -1.182,-8.956C-1.477,-8.956 -1.769,-8.873 -2.026,-8.672C-2.267,-8.481 -2.492,-8.353 -2.701,-8.267C-2.987,-8.148 -3.234,-8.107 -3.423,-8.107C-3.482,-8.107 -3.534,-8.11 -3.581,-8.116C-3.667,-8.125 -3.727,-8.141 -3.768,-8.152C-3.781,-8.157 -3.79,-8.159 -3.799,-8.164L-3.826,-8.166L-3.903,-8.175L-3.903,0.646C-3.793,0.612 -3.685,0.567 -3.581,0.513C-3.273,0.351 -3,0.119 -2.859,-0.027L-2.75,-0.142L-2.744,-0.146L-2.739,-0.157C-2.032,-0.833 -1.387,-1.056 -0.867,-1.056C-0.653,-1.053 -0.468,-1.017 -0.306,-0.966C-0.275,-0.957 -0.248,-0.945 -0.218,-0.934C-0.144,-0.907 -0.076,-0.878 -0.016,-0.844C-0.007,-0.842 0,-0.837 0.007,-0.833L0.007,-1.184L0.005,-3.412L0.005,-3.835L0,-8.274Z" style="fill:white;fill-rule:nonzero;"/>
            </g>
            <g transform="matrix(4.16667,0,0,4.16667,1122.23,812.176)">
                <path d="M0,-8C-0.004,-7.998 -0.007,-7.998 -0.013,-7.995C-0.054,-7.982 -0.122,-7.964 -0.212,-7.955C-0.259,-7.951 -0.308,-7.946 -0.365,-7.946C-0.563,-7.946 -0.824,-7.987 -1.128,-8.119C-1.323,-8.207 -1.537,-8.331 -1.767,-8.509C-2.023,-8.714 -2.316,-8.792 -2.606,-8.792C-2.924,-8.792 -3.241,-8.691 -3.462,-8.549C-3.525,-8.511 -3.577,-8.47 -3.619,-8.43C-3.736,-8.322 -3.795,-8.212 -3.788,-8.149L-3.788,-0.671C-3.781,-0.674 -3.777,-0.676 -3.77,-0.68C-3.707,-0.712 -3.64,-0.741 -3.565,-0.77C-3.536,-0.782 -3.507,-0.793 -3.475,-0.802C-3.315,-0.854 -3.133,-0.89 -2.924,-0.89C-2.404,-0.89 -1.762,-0.669 -1.06,0.006L-1.053,0.015L-1.044,0.022L-0.932,0.137L-0.614,0.409C-0.497,0.501 -0.358,0.591 -0.212,0.666C-0.108,0.717 -0.002,0.763 0.106,0.792L0.106,-8.018L0.031,-8.004L0,-8Z" style="fill:white;fill-rule:nonzero;"/>
            </g>
            <g transform="matrix(4.16667,0,0,4.16667,1105.64,811.264)">
                <path d="M0,0.005L0,0.003L-0.002,0L0,0.005Z" style="fill:white;fill-rule:nonzero;"/>
            </g>
            <g transform="matrix(4.16667,0,0,4.16667,1228.85,811.838)">
                <path d="M0,1.126L1.373,1.578L1.477,1.612L1.45,1.585L1.089,1.23C0.594,1.16 0.169,0.883 -0.115,0.644C-0.306,0.485 -0.432,0.345 -0.473,0.3L-0.475,0.302L-0.477,0.3C-0.482,0.295 -0.486,0.291 -0.493,0.286C-1.137,-0.326 -1.663,-0.486 -2.06,-0.486C-2.278,-0.486 -2.462,-0.432 -2.609,-0.369C-2.638,-0.355 -2.667,-0.342 -2.694,-0.328C-2.728,-0.312 -2.759,-0.294 -2.786,-0.276C-2.793,-0.272 -2.798,-0.27 -2.804,-0.265C-2.764,-0.227 -2.726,-0.191 -2.694,-0.15C-2.656,-0.105 -2.627,-0.062 -2.6,-0.02C-2.523,0.102 -2.483,0.201 -2.474,0.205L-2.613,0.266L0,1.126Z" style="fill:white;fill-rule:nonzero;"/>
            </g>
            <g transform="matrix(4.16667,0,0,4.16667,1196.5,800.928)">
                <path d="M0,3.562L0,-5.141C-0.09,-5.067 -0.196,-4.989 -0.315,-4.923C-0.331,-4.914 -0.347,-4.905 -0.362,-4.896C-0.414,-4.871 -0.466,-4.849 -0.522,-4.831L-0.533,-4.831L-0.653,-4.806L-0.653,4.159L-0.315,3.851L-0.23,3.772L0,3.562Z" style="fill:white;fill-rule:nonzero;"/>
            </g>
            <g transform="matrix(4.16667,0,0,4.16667,1235.99,780.894)">
                <path d="M0,8.682L0.263,8.945L0.263,0.001C0.173,-0.006 0.086,-0.033 0,-0.069C-0.013,-0.076 -0.029,-0.08 -0.043,-0.089C-0.142,-0.137 -0.23,-0.198 -0.311,-0.263L-0.311,8.374L-0.158,8.527L0,8.682Z" style="fill:white;fill-rule:nonzero;"/>
            </g>
            <g transform="matrix(4.16667,0,0,4.16667,1215.35,812.237)">
                <path d="M0,0.373L0.04,0.389C0.065,0.389 0.09,0.386 0.115,0.382C0.189,0.371 0.277,0.337 0.378,0.274L0.353,0.224L0.272,0.098L0.225,0.051L0.225,0.155L0.063,-0.016L0.04,0.006L-0.104,0.157L-0.104,0.105L-0.178,0.188L-0.2,0.213L-0.221,0.251L-0.277,0.229L-0.223,0.285L0,0.373Z" style="fill:white;fill-rule:nonzero;"/>
            </g>
            <g transform="matrix(4.16667,0,0,4.16667,1214.05,817.52)">
                <path d="M0,-1.623L-0.023,-1.639L-0.063,-1.666C-0.077,-1.672 -0.092,-1.679 -0.108,-1.688C-0.135,-1.702 -0.164,-1.717 -0.196,-1.731C-0.342,-1.796 -0.527,-1.85 -0.75,-1.85C-1.141,-1.85 -1.668,-1.69 -2.312,-1.076C-2.316,-1.072 -2.321,-1.069 -2.325,-1.065L-2.327,-1.067L-2.327,-1.065C-2.361,-1.031 -2.471,-0.907 -2.643,-0.759C-2.933,-0.504 -3.392,-0.182 -3.937,-0.104L-4.297,0.227L-2.737,-0.284L-0.171,-1.123L-0.299,-1.173C-0.293,-1.182 -0.261,-1.267 -0.191,-1.375C-0.169,-1.414 -0.142,-1.452 -0.108,-1.492C-0.072,-1.533 -0.029,-1.574 0.016,-1.612L0,-1.623Z" style="fill:white;fill-rule:nonzero;"/>
            </g>
            <g transform="matrix(4.16667,0,0,4.16667,1214.54,781.341)">
                <path d="M0,6.633L0,3.727L-0.002,-0.804L-0.002,-0.84L-0.004,-0.84L-0.004,-0.842C-0.004,-0.907 -0.059,-1.015 -0.173,-1.123C-0.218,-1.166 -0.27,-1.207 -0.333,-1.245C-0.558,-1.387 -0.871,-1.488 -1.188,-1.488C-1.486,-1.488 -1.776,-1.405 -2.026,-1.202C-2.269,-1.011 -2.496,-0.885 -2.703,-0.797C-2.991,-0.678 -3.239,-0.64 -3.43,-0.64C-3.489,-0.64 -3.541,-0.642 -3.586,-0.648C-3.669,-0.657 -3.73,-0.673 -3.77,-0.687C-3.775,-0.689 -3.781,-0.691 -3.786,-0.691L-3.829,-0.698L-3.907,-0.707L-3.907,8.121C-3.797,8.087 -3.691,8.04 -3.586,7.986C-3.277,7.821 -3.005,7.587 -2.863,7.441L-2.751,7.326L-2.737,7.315C-2.039,6.642 -1.389,6.41 -0.867,6.412C-0.657,6.412 -0.475,6.448 -0.315,6.498C-0.284,6.509 -0.254,6.52 -0.225,6.529C-0.151,6.559 -0.081,6.59 -0.02,6.624C-0.013,6.626 -0.007,6.631 0,6.633" style="fill:white;fill-rule:nonzero;"/>
            </g>
            <g transform="matrix(4.16667,0,0,4.16667,1217.98,781.828)">
                <path d="M0,6.383C0.158,6.331 0.34,6.297 0.547,6.297C1.074,6.293 1.72,6.52 2.422,7.198L2.429,7.202L2.438,7.211L2.546,7.328L2.861,7.603C2.98,7.695 3.12,7.785 3.268,7.86C3.372,7.914 3.478,7.954 3.588,7.986L3.588,-0.831L3.581,-0.829L3.511,-0.817L3.491,-0.815C3.484,-0.813 3.478,-0.811 3.462,-0.806C3.421,-0.793 3.358,-0.777 3.268,-0.766C3.221,-0.759 3.167,-0.757 3.108,-0.757C2.913,-0.757 2.651,-0.797 2.352,-0.928C2.154,-1.015 1.94,-1.139 1.715,-1.319C1.454,-1.522 1.164,-1.603 0.873,-1.603C0.551,-1.603 0.239,-1.504 0.014,-1.362C-0.047,-1.324 -0.099,-1.283 -0.144,-1.243C-0.261,-1.135 -0.317,-1.022 -0.315,-0.961L-0.315,6.516C-0.308,6.514 -0.302,6.511 -0.295,6.507C-0.232,6.473 -0.162,6.444 -0.086,6.414C-0.058,6.403 -0.031,6.392 0,6.383" style="fill:white;fill-rule:nonzero;"/>
            </g>
            <g transform="matrix(4.16667,0,0,4.16667,1077.2,879.908)">
                <path d="M0,6.472L0.207,6.485C0.565,6.537 2.057,6.639 1.416,7.759C0.131,10.008 2.469,10.163 3.37,9.796C3.624,9.695 3.831,9.661 4.002,9.664C4.443,9.668 4.63,9.916 4.63,9.916C4.63,9.916 4.448,9.668 4.562,9.245C4.607,9.078 4.698,8.887 4.864,8.671C5.461,7.908 5.962,5.614 3.448,6.231C2.192,6.54 2.379,4.962 2.435,4.604C2.489,4.244 3.124,3.053 3.955,4.041C5.627,6.02 6.581,3.661 6.559,2.693C6.55,2.423 6.588,2.216 6.647,2.056C6.798,1.642 7.088,1.547 7.088,1.547C7.088,1.547 6.798,1.639 6.437,1.383C6.3,1.284 6.152,1.133 6.007,0.903C5.492,0.084 3.505,-1.174 3.223,1.396C3.084,2.684 1.823,2.128 1.51,1.955C1.191,1.788 0.014,0.476 1.229,0.028C3.66,-0.864 1.956,-2.486 1.038,-2.788C0.781,-2.873 0.599,-2.981 0.47,-3.092C0.133,-3.38 0.146,-3.691 0.146,-3.691C0.146,-3.691 0.128,-3.384 -0.227,-3.137C-0.369,-3.038 -0.563,-2.948 -0.833,-2.891C-1.776,-2.68 -3.642,-1.246 -1.314,-0.103C-0.16,0.469 -1.256,1.304 -1.528,1.54L-1.621,1.664C-1.929,1.856 -2.789,2.29 -3.025,1.014C-3.482,-1.527 -5.37,-0.137 -5.832,0.717C-5.96,0.955 -6.097,1.115 -6.228,1.223C-6.568,1.502 -6.867,1.437 -6.867,1.437C-6.867,1.437 -6.57,1.507 -6.388,1.905C-6.316,2.06 -6.264,2.265 -6.253,2.538C-6.21,3.505 -5.123,5.59 -3.595,3.499C-2.829,2.459 -2.111,3.809 -1.918,4.115L-1.85,4.419C-1.776,4.777 -1.677,6.413 -2.949,6.193C-5.501,5.752 -4.695,7.899 -4.186,8.732C-4.09,8.892 -4.051,9.042 -4.04,9.182C-4.011,9.533 -4.173,9.79 -4.173,9.79C-4.173,9.79 -3.941,9.668 -3.552,9.637C-3.302,9.616 -2.987,9.634 -2.624,9.751C-1.697,10.051 0.644,9.985 -0.792,7.836C-1.513,6.758 -0.353,6.553 0,6.472M-2.789,8.885C-3.275,8.86 -3.658,8.455 -3.658,7.971L-3.655,7.917C-3.646,7.798 -3.617,7.685 -3.572,7.584C-3.572,7.591 -3.574,7.595 -3.574,7.602L-3.574,7.645C-3.574,7.723 -3.561,7.798 -3.54,7.87C-3.514,7.958 -3.477,8.041 -3.426,8.115C-3.284,8.322 -3.05,8.466 -2.78,8.484L-2.775,8.484L-2.735,8.489C-2.458,8.489 -2.21,8.351 -2.057,8.138C-2.003,8.063 -1.965,7.978 -1.938,7.886C-1.918,7.822 -1.904,7.757 -1.902,7.69L-1.902,7.645C-1.902,7.624 -1.906,7.604 -1.909,7.584C-1.852,7.701 -1.821,7.831 -1.821,7.971L-1.821,8.012C-1.846,8.502 -2.246,8.885 -2.737,8.885L-2.789,8.885ZM-0.824,-1.548C-0.813,-1.708 -0.761,-1.854 -0.68,-1.98C-0.686,-1.942 -0.695,-1.906 -0.698,-1.865L-0.698,-1.804C-0.698,-1.768 -0.693,-1.73 -0.686,-1.694C-0.675,-1.599 -0.646,-1.509 -0.603,-1.428C-0.473,-1.174 -0.216,-0.996 0.092,-0.978L0.126,-0.976C0.371,-0.976 0.592,-1.08 0.745,-1.246C0.813,-1.316 0.867,-1.395 0.905,-1.487C0.941,-1.572 0.966,-1.667 0.97,-1.766C0.995,-1.681 1.013,-1.593 1.013,-1.498L1.011,-1.455C0.99,-0.963 0.585,-0.578 0.095,-0.578L0.047,-0.58C-0.446,-0.607 -0.824,-1.014 -0.824,-1.498L-0.824,-1.548ZM4.076,8.327C4.049,8.813 3.642,9.195 3.156,9.198L3.111,9.195C2.618,9.168 2.242,8.763 2.242,8.282L2.242,8.228C2.246,8.133 2.271,8.045 2.3,7.962C2.307,8.048 2.323,8.133 2.352,8.212C2.381,8.286 2.42,8.354 2.467,8.417C2.611,8.61 2.832,8.741 3.084,8.757L3.088,8.757L3.129,8.759C3.437,8.757 3.709,8.588 3.853,8.336C3.894,8.264 3.928,8.187 3.946,8.106C3.957,8.059 3.966,8.012 3.968,7.962L3.968,7.917C3.968,7.89 3.964,7.863 3.961,7.836C4.034,7.969 4.076,8.12 4.076,8.282L4.076,8.327ZM-0.842,3.64C-0.815,3.746 -0.774,3.845 -0.722,3.94C-0.515,4.302 -0.139,4.559 0.311,4.584L0.376,4.588C0.799,4.588 1.175,4.377 1.405,4.055C1.47,3.967 1.517,3.865 1.555,3.762C1.596,3.652 1.627,3.537 1.634,3.413C1.657,3.512 1.668,3.611 1.668,3.717L1.663,3.798C1.63,4.557 1.051,5.155 0.344,5.155L0.277,5.155C-0.425,5.117 -0.954,4.487 -0.954,3.742L-0.954,3.658C-0.945,3.535 -0.921,3.418 -0.887,3.303L-0.887,3.325C-0.887,3.436 -0.869,3.539 -0.842,3.64M4.164,2.371C4.169,2.249 4.2,2.132 4.252,2.027C4.256,2.096 4.268,2.166 4.29,2.231C4.313,2.297 4.34,2.357 4.376,2.416C4.515,2.639 4.758,2.794 5.037,2.812L5.085,2.812C5.377,2.812 5.636,2.659 5.785,2.43C5.821,2.376 5.848,2.317 5.87,2.254C5.893,2.186 5.911,2.114 5.915,2.04C5.967,2.155 5.998,2.279 5.998,2.409L5.994,2.47C5.971,2.956 5.573,3.341 5.085,3.341L5.028,3.341C4.542,3.314 4.164,2.909 4.164,2.423L4.164,2.371ZM-4.657,3.087C-5.143,3.06 -5.517,2.65 -5.523,2.171L-5.517,2.119C-5.512,2.002 -5.483,1.892 -5.436,1.79C-5.431,1.865 -5.415,1.934 -5.393,2.002C-5.37,2.065 -5.341,2.126 -5.305,2.18C-5.163,2.396 -4.927,2.544 -4.65,2.56L-4.601,2.565C-4.306,2.565 -4.049,2.409 -3.901,2.175C-3.867,2.119 -3.838,2.06 -3.817,1.995C-3.793,1.928 -3.777,1.858 -3.772,1.783C-3.718,1.901 -3.687,2.029 -3.687,2.164L-3.687,2.218C-3.716,2.704 -4.117,3.089 -4.605,3.089L-4.657,3.087Z" style="fill:white;fill-rule:nonzero;"/>
            </g>
            <g transform="matrix(4.16667,0,0,4.16667,1187.12,960.219)">
                <path d="M0,-3.619C-0.14,-3.718 -0.288,-3.869 -0.434,-4.101C-0.59,-4.348 -0.88,-4.634 -1.216,-4.843C-1.659,-5.12 -2.183,-5.262 -2.591,-5.001C-2.895,-4.803 -3.133,-4.38 -3.219,-3.612C-3.253,-3.288 -3.356,-3.081 -3.5,-2.955C-3.925,-2.575 -4.693,-2.919 -4.929,-3.045C-5.148,-3.164 -5.776,-3.819 -5.749,-4.364C-5.737,-4.612 -5.591,-4.834 -5.211,-4.974C-4.301,-5.312 -3.973,-5.748 -3.964,-6.18C-3.952,-6.865 -4.745,-7.533 -5.319,-7.761C-5.348,-7.772 -5.379,-7.783 -5.406,-7.792C-5.665,-7.88 -5.845,-7.988 -5.974,-8.098C-6.052,-8.166 -6.113,-8.233 -6.158,-8.298C-6.287,-8.487 -6.296,-8.652 -6.296,-8.688L-6.296,-8.695L-6.296,-8.692C-6.298,-8.677 -6.307,-8.593 -6.363,-8.481C-6.39,-8.429 -6.426,-8.37 -6.478,-8.312C-6.527,-8.253 -6.59,-8.195 -6.671,-8.141C-6.813,-8.042 -7.007,-7.952 -7.275,-7.893C-7.844,-7.77 -8.747,-7.198 -8.864,-6.513C-8.875,-6.453 -8.882,-6.392 -8.88,-6.329C-8.861,-5.931 -8.558,-5.503 -7.759,-5.109C-7.396,-4.933 -7.254,-4.729 -7.241,-4.526C-7.221,-4.254 -7.428,-3.981 -7.635,-3.772C-7.768,-3.637 -7.903,-3.529 -7.975,-3.464L-7.997,-3.43L-8.06,-3.338L-8.063,-3.335C-8.369,-3.146 -9.233,-2.716 -9.467,-3.988C-9.908,-6.453 -11.7,-5.224 -12.231,-4.366C-12.247,-4.339 -12.263,-4.312 -12.278,-4.285C-12.404,-4.047 -12.542,-3.889 -12.674,-3.781C-13.012,-3.502 -13.311,-3.567 -13.311,-3.567C-13.311,-3.567 -13.014,-3.497 -12.832,-3.101C-12.76,-2.944 -12.706,-2.739 -12.695,-2.467C-12.69,-2.345 -12.668,-2.205 -12.632,-2.061C-12.614,-1.987 -12.591,-1.913 -12.564,-1.839C-12.231,-0.864 -11.279,0.196 -10.039,-1.505C-9.273,-2.548 -8.553,-1.193 -8.362,-0.886L-8.294,-0.587C-8.276,-0.499 -8.256,-0.328 -8.254,-0.13C-8.254,0.372 -8.382,1.067 -8.974,1.191C-9.093,1.216 -9.231,1.216 -9.39,1.189C-10.745,0.955 -11.153,1.452 -11.164,2.094C-11.164,2.103 -11.162,2.114 -11.162,2.123C-11.16,2.683 -10.865,3.345 -10.633,3.725C-10.536,3.885 -10.498,4.038 -10.487,4.178C-10.482,4.223 -10.478,4.268 -10.48,4.308C-10.491,4.59 -10.617,4.783 -10.617,4.783C-10.617,4.783 -10.613,4.781 -10.606,4.777C-10.556,4.754 -10.336,4.657 -9.996,4.63C-9.744,4.61 -9.429,4.628 -9.064,4.745C-8.342,4.979 -6.755,4.993 -6.784,3.962C-6.791,3.674 -6.926,3.302 -7.241,2.834C-7.419,2.564 -7.482,2.348 -7.468,2.175C-7.455,2.004 -7.365,1.873 -7.243,1.774C-7.014,1.589 -6.667,1.515 -6.478,1.475C-6.467,1.472 -6.453,1.47 -6.442,1.466L-6.336,1.472L-6.334,1.475L-6.233,1.479C-6.21,1.484 -6.185,1.486 -6.158,1.49C-5.821,1.533 -5.013,1.632 -4.887,2.123C-4.875,2.157 -4.871,2.19 -4.869,2.229C-4.862,2.373 -4.907,2.548 -5.026,2.758C-5.307,3.248 -5.415,3.638 -5.402,3.946C-5.359,5.042 -3.779,5.076 -3.075,4.792C-3.039,4.779 -3.007,4.77 -2.973,4.759C-2.791,4.696 -2.631,4.666 -2.496,4.662C-2.476,4.66 -2.458,4.662 -2.438,4.662C-1.999,4.666 -1.814,4.907 -1.814,4.907C-1.814,4.907 -1.924,4.759 -1.918,4.491C-1.915,4.419 -1.904,4.335 -1.879,4.245C-1.832,4.079 -1.742,3.888 -1.576,3.671C-1.405,3.451 -1.242,3.104 -1.157,2.735C-1.121,2.584 -1.098,2.429 -1.094,2.276C-1.078,1.706 -1.319,1.193 -2.078,1.133C-2.325,1.112 -2.627,1.141 -2.994,1.232C-3.86,1.439 -4.038,0.757 -4.049,0.196C-4.054,-0.058 -4.024,-0.288 -4.009,-0.4C-3.986,-0.533 -3.889,-0.778 -3.732,-0.986C-3.462,-1.341 -3.016,-1.589 -2.487,-0.958C-1.677,-0.002 -1.035,-0.065 -0.59,-0.493C-0.338,-0.738 -0.149,-1.103 -0.029,-1.465C0.072,-1.776 0.122,-2.086 0.115,-2.316C0.106,-2.584 0.142,-2.788 0.2,-2.95C0.326,-3.29 0.549,-3.414 0.623,-3.448C0.639,-3.455 0.648,-3.457 0.648,-3.457C0.648,-3.457 0.356,-3.367 0,-3.619M-2.366,3.278L-2.366,3.323C-2.399,3.811 -2.8,4.194 -3.286,4.194L-3.331,4.191C-3.824,4.164 -4.2,3.757 -4.2,3.282L-4.2,3.224C-4.196,3.131 -4.173,3.043 -4.142,2.96C-4.137,3.048 -4.119,3.136 -4.09,3.214C-4.063,3.287 -4.022,3.354 -3.977,3.415C-3.833,3.606 -3.613,3.737 -3.356,3.752L-3.318,3.752C-3.005,3.752 -2.728,3.579 -2.582,3.318C-2.543,3.251 -2.514,3.178 -2.496,3.1C-2.487,3.053 -2.478,3.005 -2.476,2.956L-2.476,2.913C-2.476,2.886 -2.48,2.857 -2.485,2.83C-2.411,2.965 -2.366,3.115 -2.366,3.278ZM-10.095,2.917C-10.09,2.791 -10.061,2.674 -10.012,2.569C-10.012,2.578 -10.014,2.589 -10.016,2.598L-10.016,2.641C-10.016,2.717 -10.003,2.789 -9.982,2.861C-9.958,2.951 -9.919,3.035 -9.868,3.111C-9.726,3.318 -9.494,3.462 -9.226,3.478L-9.217,3.372L-9.222,3.478L-9.177,3.478C-8.9,3.478 -8.65,3.341 -8.499,3.129C-8.47,3.088 -8.445,3.046 -8.425,3.001C-8.405,2.958 -8.389,2.911 -8.378,2.863C-8.362,2.807 -8.351,2.749 -8.348,2.686L-8.348,2.641C-8.348,2.618 -8.355,2.593 -8.355,2.571C-8.299,2.692 -8.263,2.825 -8.263,2.965L-8.263,3.01C-8.294,3.496 -8.693,3.883 -9.183,3.883L-9.233,3.883C-9.719,3.854 -10.099,3.455 -10.099,2.967L-10.095,2.917ZM-5.424,-6.45C-5.447,-6.032 -5.76,-5.688 -6.158,-5.604C-6.219,-5.591 -6.282,-5.582 -6.345,-5.582L-6.397,-5.582C-6.424,-5.584 -6.451,-5.591 -6.478,-5.595C-6.926,-5.663 -7.266,-6.043 -7.266,-6.504L-7.261,-6.55C-7.252,-6.705 -7.203,-6.849 -7.128,-6.973C-7.135,-6.937 -7.142,-6.903 -7.144,-6.869L-7.149,-6.815C-7.149,-6.77 -7.142,-6.725 -7.135,-6.682C-7.119,-6.59 -7.088,-6.502 -7.043,-6.423C-6.928,-6.212 -6.723,-6.054 -6.478,-6C-6.44,-5.991 -6.399,-5.985 -6.356,-5.98L-6.307,-5.98C-6.257,-5.98 -6.206,-5.987 -6.158,-5.996C-5.976,-6.03 -5.814,-6.124 -5.692,-6.257C-5.627,-6.327 -5.575,-6.408 -5.537,-6.495C-5.501,-6.583 -5.476,-6.676 -5.472,-6.777C-5.445,-6.689 -5.424,-6.597 -5.424,-6.5L-5.424,-6.45ZM-7.396,-1.262L-7.396,-1.343C-7.389,-1.472 -7.362,-1.593 -7.326,-1.713L-7.329,-1.677C-7.329,-1.566 -7.311,-1.46 -7.281,-1.359C-7.254,-1.256 -7.214,-1.157 -7.162,-1.067C-7.014,-0.801 -6.773,-0.596 -6.478,-0.493C-6.433,-0.477 -6.39,-0.461 -6.343,-0.45C-6.282,-0.436 -6.221,-0.427 -6.158,-0.423C-6.147,-0.421 -6.138,-0.418 -6.127,-0.416L-6.066,-0.416C-5.645,-0.416 -5.274,-0.621 -5.044,-0.936C-4.979,-1.026 -4.927,-1.127 -4.887,-1.235C-4.844,-1.346 -4.815,-1.46 -4.806,-1.584C-4.785,-1.487 -4.774,-1.388 -4.774,-1.287L-4.781,-1.206C-4.819,-0.45 -5.4,0.149 -6.102,0.149L-6.165,0.149C-6.226,0.147 -6.284,0.133 -6.341,0.12C-6.388,0.111 -6.433,0.099 -6.478,0.084C-7.018,-0.094 -7.396,-0.634 -7.396,-1.262M-2.278,-2.633C-2.273,-2.755 -2.242,-2.869 -2.195,-2.973C-2.19,-2.901 -2.177,-2.831 -2.152,-2.764C-2.129,-2.698 -2.102,-2.635 -2.066,-2.579C-1.922,-2.359 -1.681,-2.208 -1.402,-2.192L-1.357,-2.192C-1.17,-2.192 -0.999,-2.255 -0.858,-2.361C-0.781,-2.419 -0.714,-2.489 -0.662,-2.57C-0.626,-2.626 -0.596,-2.687 -0.574,-2.75C-0.549,-2.815 -0.533,-2.883 -0.527,-2.957C-0.477,-2.842 -0.446,-2.719 -0.446,-2.588L-0.446,-2.53L-0.448,-2.53C-0.461,-2.26 -0.592,-2.025 -0.788,-1.868C-0.945,-1.74 -1.143,-1.661 -1.362,-1.661L-1.418,-1.661C-1.9,-1.692 -2.278,-2.097 -2.278,-2.588L-2.278,-2.633ZM-11.094,-1.92C-11.585,-1.947 -11.965,-2.349 -11.965,-2.831L-11.965,-2.878C-11.959,-3.002 -11.927,-3.117 -11.88,-3.223C-11.873,-3.149 -11.86,-3.077 -11.837,-3.009C-11.815,-2.944 -11.785,-2.883 -11.749,-2.827C-11.61,-2.611 -11.369,-2.46 -11.09,-2.446L-11.047,-2.442C-10.754,-2.442 -10.496,-2.593 -10.347,-2.822C-10.309,-2.878 -10.28,-2.939 -10.257,-3.004C-10.235,-3.07 -10.219,-3.137 -10.212,-3.209C-10.16,-3.095 -10.131,-2.971 -10.129,-2.84L-10.133,-2.788C-10.158,-2.3 -10.561,-1.915 -11.049,-1.915L-11.094,-1.92Z" style="fill:white;fill-rule:nonzero;"/>
            </g>
            <g transform="matrix(4.16667,0,0,4.16667,1268.45,903.401)">
                <path d="M0,-3.709C-0.14,-3.806 -0.286,-3.956 -0.432,-4.184C-0.95,-5.005 -2.933,-6.266 -3.21,-3.693C-3.347,-2.406 -4.607,-2.962 -4.927,-3.137C-5.24,-3.304 -6.424,-4.612 -5.211,-5.066C-2.775,-5.951 -4.484,-7.576 -5.406,-7.882C-5.661,-7.965 -5.841,-8.073 -5.971,-8.184C-6.305,-8.469 -6.291,-8.778 -6.291,-8.778C-6.291,-8.778 -6.309,-8.474 -6.667,-8.224C-6.809,-8.125 -7.002,-8.035 -7.27,-7.977C-8.211,-7.769 -10.081,-6.338 -7.759,-5.197C-6.595,-4.625 -7.7,-3.79 -7.963,-3.551L-8.065,-3.425C-8.369,-3.232 -9.231,-2.804 -9.46,-4.078C-9.922,-6.622 -11.81,-5.226 -12.272,-4.375C-12.4,-4.137 -12.537,-3.977 -12.67,-3.867C-13.007,-3.59 -13.309,-3.655 -13.309,-3.655C-13.309,-3.655 -13.01,-3.585 -12.827,-3.189C-12.755,-3.034 -12.699,-2.827 -12.688,-2.554C-12.652,-1.586 -11.562,0.502 -10.039,-1.593C-9.271,-2.635 -8.551,-1.278 -8.353,-0.974L-8.292,-0.67C-8.211,-0.317 -8.11,1.326 -9.388,1.106C-11.941,0.667 -11.13,2.812 -10.624,3.638C-10.529,3.797 -10.491,3.951 -10.48,4.088C-10.451,4.441 -10.617,4.698 -10.617,4.698C-10.617,4.698 -10.383,4.576 -9.996,4.545C-9.744,4.525 -9.426,4.543 -9.064,4.66C-8.141,4.957 -5.796,4.896 -7.234,2.749C-7.957,1.668 -6.793,1.459 -6.44,1.382L-6.224,1.391C-5.868,1.443 -4.378,1.549 -5.024,2.672C-6.305,4.921 -3.97,5.069 -3.068,4.705C-2.816,4.606 -2.611,4.572 -2.44,4.572C-1.999,4.574 -1.812,4.819 -1.812,4.819C-1.812,4.819 -1.992,4.574 -1.877,4.153C-1.83,3.989 -1.74,3.8 -1.576,3.584C-0.977,2.816 -0.477,0.527 -2.987,1.139C-4.247,1.448 -4.054,-0.132 -4.002,-0.488C-3.95,-0.855 -3.316,-2.039 -2.485,-1.046C-0.813,0.925 0.149,-1.433 0.112,-2.399C0.106,-2.669 0.146,-2.876 0.207,-3.038C0.362,-3.45 0.653,-3.547 0.653,-3.547C0.653,-3.547 0.36,-3.455 0,-3.709M-1.407,-1.755C-1.895,-1.778 -2.276,-2.185 -2.276,-2.674L-2.276,-2.714C-2.269,-2.838 -2.24,-2.953 -2.19,-3.058C-2.186,-2.986 -2.17,-2.919 -2.147,-2.851C-2.125,-2.786 -2.098,-2.723 -2.059,-2.665C-1.918,-2.449 -1.681,-2.298 -1.407,-2.284L-1.357,-2.277C-1.062,-2.277 -0.806,-2.428 -0.655,-2.658C-0.619,-2.714 -0.59,-2.773 -0.567,-2.838C-0.542,-2.903 -0.527,-2.971 -0.52,-3.043C-0.468,-2.928 -0.437,-2.804 -0.437,-2.674L-0.441,-2.626C-0.464,-2.133 -0.869,-1.751 -1.36,-1.751L-1.407,-1.755ZM-2.357,3.235C-2.39,3.721 -2.796,4.104 -3.282,4.106L-3.331,4.104C-3.822,4.077 -4.195,3.676 -4.195,3.192L-4.195,3.133C-4.191,3.041 -4.168,2.953 -4.137,2.87C-4.132,2.956 -4.117,3.039 -4.087,3.118C-4.058,3.197 -4.015,3.266 -3.966,3.332C-3.822,3.521 -3.604,3.649 -3.352,3.665L-3.309,3.665C-3,3.665 -2.73,3.496 -2.582,3.242C-2.543,3.172 -2.51,3.1 -2.492,3.021C-2.478,2.971 -2.471,2.922 -2.467,2.87L-2.467,2.825C-2.467,2.798 -2.471,2.773 -2.474,2.749C-2.402,2.881 -2.357,3.03 -2.357,3.19L-2.357,3.235ZM-9.226,3.793C-9.715,3.766 -10.097,3.361 -10.097,2.875L-10.097,2.825C-10.09,2.697 -10.054,2.578 -10,2.47C-10.003,2.483 -10.007,2.499 -10.007,2.512L-10.007,2.555C-10.007,2.627 -9.994,2.697 -9.978,2.764C-9.953,2.854 -9.917,2.938 -9.868,3.014C-9.728,3.226 -9.492,3.372 -9.215,3.39L-9.168,3.39C-8.891,3.39 -8.643,3.251 -8.492,3.037C-8.465,2.999 -8.443,2.96 -8.423,2.918L-8.423,2.915C-8.402,2.875 -8.387,2.83 -8.375,2.785C-8.357,2.724 -8.344,2.663 -8.339,2.598L-8.339,2.551C-8.339,2.53 -8.346,2.51 -8.348,2.49C-8.292,2.609 -8.256,2.74 -8.256,2.877L-8.256,2.926C-8.288,3.408 -8.686,3.793 -9.177,3.793L-9.226,3.793ZM-7.259,-6.642C-7.252,-6.799 -7.2,-6.943 -7.124,-7.07C-7.131,-7.031 -7.14,-6.993 -7.142,-6.952L-7.142,-6.896C-7.142,-6.853 -7.135,-6.813 -7.128,-6.772C-7.115,-6.68 -7.086,-6.595 -7.043,-6.514C-6.908,-6.264 -6.653,-6.086 -6.347,-6.068L-6.305,-6.068C-6.064,-6.068 -5.845,-6.176 -5.69,-6.342C-5.627,-6.41 -5.575,-6.484 -5.537,-6.567C-5.501,-6.653 -5.476,-6.743 -5.467,-6.84C-5.445,-6.761 -5.429,-6.678 -5.429,-6.59L-5.429,-6.543C-5.454,-6.052 -5.852,-5.669 -6.341,-5.669L-6.388,-5.672C-6.881,-5.699 -7.259,-6.102 -7.259,-6.59L-7.259,-6.642ZM-7.394,-1.433C-7.387,-1.564 -7.358,-1.686 -7.322,-1.805L-7.322,-1.766C-7.322,-1.656 -7.304,-1.553 -7.277,-1.451C-7.25,-1.346 -7.209,-1.247 -7.158,-1.154C-6.953,-0.79 -6.575,-0.531 -6.124,-0.502L-6.064,-0.502C-5.645,-0.502 -5.271,-0.706 -5.04,-1.021C-4.974,-1.109 -4.927,-1.208 -4.887,-1.31C-4.844,-1.42 -4.815,-1.537 -4.803,-1.661C-4.785,-1.571 -4.776,-1.474 -4.776,-1.377L-4.783,-1.296C-4.812,-0.535 -5.393,0.061 -6.095,0.061L-6.163,0.061C-6.861,0.027 -7.394,-0.607 -7.394,-1.346L-7.394,-1.433ZM-11.097,-2.005C-11.58,-2.034 -11.956,-2.437 -11.956,-2.919L-11.956,-2.971C-11.952,-3.09 -11.923,-3.203 -11.875,-3.306C-11.871,-3.236 -11.857,-3.169 -11.835,-3.104C-11.812,-3.036 -11.783,-2.973 -11.745,-2.914C-11.603,-2.698 -11.364,-2.548 -11.088,-2.529L-11.085,-2.64L-11.085,-2.529L-11.04,-2.529C-10.75,-2.529 -10.487,-2.685 -10.336,-2.923C-10.302,-2.98 -10.275,-3.038 -10.255,-3.101C-10.232,-3.167 -10.216,-3.234 -10.212,-3.304C-10.158,-3.187 -10.124,-3.058 -10.124,-2.921L-10.124,-2.869C-10.156,-2.388 -10.554,-2.003 -11.045,-2.003L-11.097,-2.005Z" style="fill:white;fill-rule:nonzero;"/>
            </g>
            <g transform="matrix(4.16667,0,0,4.16667,1160.59,856.803)">
                <path d="M0,-0.16C0.072,-0.16 0.139,-0.158 0.209,-0.156C0.425,-0.153 0.635,-0.147 0.844,-0.135C1.357,-0.106 1.846,-0.059 2.291,0.015C2.928,0.119 3.48,0.27 3.921,0.461L3.921,0.234C3.887,0.193 3.858,0.148 3.838,0.097L3.799,0.063C3.685,-0.016 3.491,-0.111 3.243,-0.194C3.239,-0.194 3.232,-0.194 3.228,-0.192C3.099,-0.185 2.98,-0.225 2.883,-0.3C2.685,-0.351 2.465,-0.401 2.226,-0.441C1.783,-0.52 1.283,-0.576 0.74,-0.603C0.567,-0.612 0.389,-0.619 0.209,-0.621L0.025,-0.621C0.022,-0.621 -0.029,-0.619 -0.113,-0.615C-0.302,-0.603 -0.68,-0.579 -1.143,-0.531C-1.717,-0.48 -2.417,-0.392 -2.991,-0.273C-3.034,-0.261 -3.072,-0.248 -3.111,-0.234C-3.145,-0.221 -3.178,-0.212 -3.214,-0.203C-3.541,-0.095 -3.777,0.022 -3.878,0.115L-3.926,0.169L-3.926,0.457C-3.734,0.373 -3.525,0.299 -3.293,0.232C-2.449,-0.005 -1.335,-0.147 -0.113,-0.158C-0.074,-0.158 -0.038,-0.16 0,-0.16" style="fill:white;fill-rule:nonzero;"/>
            </g>
            <g transform="matrix(4.16667,0,0,4.16667,1143.99,864.977)">
                <path d="M0,-0.642C-0.196,-0.505 -0.254,-0.385 -0.25,-0.325C-0.254,-0.259 -0.198,-0.151 -0.029,-0.028C-0.018,-0.021 -0.014,-0.012 0,-0.005C0.198,0.132 0.502,0.261 0.9,0.375C1.648,0.587 2.703,0.729 3.874,0.738C3.912,0.74 3.948,0.74 3.986,0.74C4.056,0.74 4.126,0.74 4.195,0.738C4.623,0.733 5.037,0.711 5.427,0.67C5.863,0.627 6.268,0.562 6.626,0.486C7.225,0.353 7.693,0.184 7.961,-0.005C7.975,-0.014 7.984,-0.021 7.995,-0.03C8.164,-0.151 8.224,-0.259 8.222,-0.325C8.224,-0.385 8.161,-0.505 7.961,-0.642C7.945,-0.653 7.925,-0.665 7.907,-0.676C7.711,-0.795 7.428,-0.917 7.07,-1.018C6.865,-1.076 6.635,-1.128 6.388,-1.175C5.969,-1.254 5.496,-1.313 4.99,-1.347C4.733,-1.365 4.468,-1.374 4.195,-1.378C4.126,-1.378 4.056,-1.382 3.986,-1.382C3.948,-1.382 3.912,-1.38 3.874,-1.38C2.158,-1.371 0.682,-1.063 0.061,-0.68C0.04,-0.667 0.018,-0.656 0,-0.642" style="fill:white;fill-rule:nonzero;"/>
            </g>
            <g transform="matrix(4.16667,0,0,4.16667,1179.62,827.804)">
                <path d="M0,6.473C0.002,6.417 0.009,6.361 0.016,6.304L0.016,6.3C0.196,4.657 1.321,3.218 2.08,2.417C2.485,1.992 2.787,1.746 2.787,1.746C2.386,1.8 2.023,1.879 1.697,1.976C0.556,2.314 -0.167,2.885 -0.621,3.5C-1.069,4.105 -1.26,4.749 -1.337,5.251C-1.346,5.298 -1.353,5.345 -1.357,5.393C-1.326,4.666 -1.249,3.986 -1.152,3.376C-0.977,2.257 -0.732,1.37 -0.558,0.826C-0.482,0.585 -0.421,0.412 -0.385,0.317C-0.367,0.27 -0.356,0.241 -0.353,0.234L-0.351,0.229L-0.353,0.229C-0.479,0.252 -0.599,0.283 -0.713,0.317C-0.804,0.346 -0.891,0.376 -0.975,0.412C-1.99,0.832 -2.561,1.767 -2.881,2.739C-2.883,2.746 -2.888,2.755 -2.89,2.764C-3.102,3.421 -3.201,4.092 -3.246,4.632C-3.255,3.9 -3.324,3.263 -3.43,2.719C-3.653,1.564 -4.024,0.808 -4.297,0.385C-4.31,0.362 -4.326,0.34 -4.34,0.317C-4.344,0.308 -4.351,0.299 -4.358,0.29C-4.452,0.151 -4.526,0.058 -4.571,0.004C-4.601,-0.03 -4.621,-0.052 -4.621,-0.052C-4.621,-0.052 -4.641,-0.03 -4.673,0.004C-4.675,0.006 -4.675,0.009 -4.677,0.011C-4.727,0.069 -4.806,0.171 -4.905,0.317C-4.918,0.34 -4.932,0.36 -4.945,0.382C-4.986,0.443 -5.026,0.513 -5.069,0.589C-5.323,1.04 -5.625,1.737 -5.816,2.73C-5.922,3.279 -5.992,3.918 -6.001,4.654C-6.043,4.112 -6.142,3.432 -6.359,2.764C-6.676,1.785 -7.25,0.837 -8.272,0.412C-8.355,0.378 -8.443,0.346 -8.535,0.317C-8.65,0.283 -8.767,0.252 -8.893,0.229L-8.898,0.229L-8.895,0.236C-8.891,0.243 -8.882,0.27 -8.864,0.317C-8.83,0.412 -8.771,0.583 -8.699,0.821C-8.533,1.364 -8.297,2.241 -8.121,3.342C-8.02,3.972 -7.941,4.677 -7.905,5.429C-7.97,4.906 -8.15,4.204 -8.621,3.549C-9.078,2.905 -9.816,2.309 -10.993,1.965C-11.31,1.872 -11.655,1.798 -12.042,1.746C-12.042,1.746 -11.761,1.987 -11.376,2.408C-10.642,3.207 -9.537,4.652 -9.273,6.293C-9.267,6.327 -9.26,6.361 -9.253,6.394C-9.249,6.439 -9.242,6.482 -9.237,6.525C-9.219,6.511 -9.201,6.498 -9.181,6.484C-9.136,6.453 -9.084,6.426 -9.033,6.396C-8.889,6.313 -8.722,6.237 -8.535,6.167C-8.492,6.151 -8.454,6.135 -8.409,6.12C-8.407,6.12 -8.405,6.117 -8.402,6.117C-8.299,6.081 -8.186,6.048 -8.071,6.014C-8.013,5.996 -7.95,5.982 -7.889,5.967C-7.882,5.964 -7.878,5.964 -7.871,5.962C-7.709,5.919 -7.54,5.881 -7.358,5.845C-7.353,5.845 -7.351,5.843 -7.344,5.843C-7.081,5.791 -6.798,5.746 -6.503,5.71C-6.491,5.71 -6.48,5.708 -6.471,5.706C-6.311,5.688 -6.145,5.672 -5.976,5.656L-5.969,5.656C-5.8,5.643 -5.627,5.631 -5.451,5.62L-5.44,5.62C-5.193,5.609 -4.938,5.6 -4.677,5.6C-4.643,5.6 -4.61,5.598 -4.574,5.598C-4.502,5.598 -4.43,5.6 -4.358,5.6C-4.232,5.602 -4.108,5.604 -3.986,5.609C-3.925,5.611 -3.867,5.613 -3.808,5.616L-3.795,5.616C-3.619,5.625 -3.446,5.636 -3.277,5.649L-3.271,5.649C-3.095,5.663 -2.922,5.679 -2.753,5.697L-2.751,5.699C-2.649,5.71 -2.55,5.721 -2.451,5.735C-2.262,5.762 -2.08,5.791 -1.904,5.823C-1.9,5.825 -1.893,5.825 -1.888,5.827C-1.713,5.859 -1.546,5.895 -1.387,5.935L-1.38,5.935C-1.378,5.935 -1.375,5.937 -1.373,5.937C-1.369,5.94 -1.366,5.94 -1.364,5.94C-1.182,5.985 -1.008,6.034 -0.849,6.088C-0.844,6.088 -0.842,6.09 -0.837,6.09C-0.806,6.102 -0.774,6.111 -0.743,6.122C-0.556,6.189 -0.387,6.262 -0.234,6.34C-0.151,6.383 -0.072,6.426 0,6.473" style="fill:white;fill-rule:nonzero;"/>
            </g>
            <g transform="matrix(4.16667,0,0,4.16667,633.987,1194.41)">
                <path d="M0,4.166L2.881,4.166L2.881,8.445C2.251,8.776 1.576,8.904 0.731,8.904C-0.486,8.904 -1.517,8.533 -2.217,7.851C-3.165,6.905 -3.626,5.172 -3.626,2.489C-3.626,-0.329 -3.3,-2.368 -2.028,-3.581C-1.38,-4.205 -0.437,-4.524 0.68,-4.524C2.118,-4.524 3.39,-4.072 4.61,-3.066L6.613,-5.425C4.959,-6.861 2.901,-7.588 0.63,-7.588C-1.162,-7.588 -2.571,-7.176 -3.952,-6.262C-6.579,-4.504 -7.885,-1.684 -7.885,2.3C-7.885,5.111 -7.254,7.126 -5.879,8.884C-4.36,10.831 -2.276,11.754 0.545,11.754C2.759,11.754 4.88,11.209 6.802,10.072L6.802,1.078L-0.486,1.078L0,4.166Z" style="fill:white;fill-rule:nonzero;"/>
            </g>
            <g transform="matrix(4.16667,0,0,4.16667,693.954,1169.31)">
                <path d="M0,15.391C-0.304,15.391 -0.599,15.256 -0.741,15.013C-0.954,14.632 -0.975,14.308 -0.975,11.918L-0.975,1.119C-0.975,-0.835 -1.038,-1.733 -1.168,-2.487L-4.882,-1.648C-4.74,-0.403 -4.693,0.709 -4.693,2.521L-4.693,12.877C-4.693,14.853 -4.639,15.29 -4.364,15.981C-3.93,17.147 -2.685,17.878 -1.139,17.878C-0.353,17.878 0.398,17.745 1.024,17.502L0.398,15.341C0.214,15.391 0.128,15.391 0,15.391" style="fill:white;fill-rule:nonzero;"/>
            </g>
            <g transform="matrix(4.16667,0,0,4.16667,749.34,1204.56)">
                <path d="M0,4.735L0,4.49L0.079,-0.17C0.108,-1.66 0.029,-2.09 -0.162,-2.659C-0.707,-4.194 -2.305,-5.067 -4.634,-5.067C-5.906,-5.067 -7.072,-4.831 -8.423,-4.255C-9.402,-3.847 -9.94,-3.58 -10.671,-3.123L-9.134,-0.523C-7.637,-1.522 -6.284,-2.09 -5.118,-2.09C-3.793,-2.09 -3.493,-1.574 -3.493,-0.028L-3.493,0.537C-3.793,0.508 -4.036,0.508 -4.308,0.508C-8.717,0.508 -10.968,2.03 -10.968,5.284C-10.968,8.046 -9.289,9.615 -6.199,9.615C-5.06,9.615 -4.087,9.34 -3.41,8.849C-3.14,8.667 -2.847,8.395 -2.575,8.12C-2.221,8.831 -1.461,9.451 -0.617,9.802L1.301,7.587C0.243,6.801 0,6.221 0,4.735M-3.604,6.011C-4.144,6.605 -4.819,6.957 -5.496,6.957C-6.424,6.957 -7.092,6.221 -7.092,5.142C-7.092,3.502 -6.228,3.029 -3.709,3.029L-3.545,3.029L-3.604,6.011Z" style="fill:white;fill-rule:nonzero;"/>
            </g>
            <g transform="matrix(4.16667,0,0,4.16667,790.555,1219.56)">
                <path d="M0,-2.816L-1.684,-3.253C-2.958,-3.577 -3.419,-3.955 -3.419,-4.662C-3.419,-5.474 -2.712,-6.012 -1.654,-6.012C-0.626,-6.012 0.38,-5.72 1.756,-5.013L2.951,-7.448C1.675,-8.072 0.216,-8.747 -2.003,-8.747C-5.233,-8.747 -7.365,-6.933 -7.365,-4.227C-7.365,-3.334 -7.074,-2.332 -6.584,-1.729C-6.095,-1.139 -4.959,-0.489 -4.04,-0.318L-2.417,-0.032C-0.95,0.241 -0.272,0.729 -0.272,1.683C-0.272,2.577 -1.087,3.25 -2.116,3.25C-3.687,3.25 -5.611,2.35 -6.721,1.683L-8.024,4.33C-5.987,5.391 -4.119,5.931 -2.417,5.931C1.134,5.931 3.523,3.986 3.523,1.109C3.523,0.196 3.275,-0.594 2.757,-1.236C2.271,-1.873 1.704,-2.384 0,-2.816" style="fill:white;fill-rule:nonzero;"/>
            </g>
            <g transform="matrix(4.16667,0,0,4.16667,841.545,1218.3)">
                <path d="M0,2.255L-1.947,2.224C-2.33,2.224 -2.543,2.093 -2.543,1.897C-2.543,1.523 -2.032,1.19 -1.112,0.763C-0.835,0.796 -0.734,0.796 -0.567,0.796C2.393,0.796 4.551,-0.934 4.551,-3.32C4.551,-4.248 4.279,-4.957 3.741,-5.603C3.955,-5.576 4.337,-5.528 4.695,-5.528C5.69,-5.528 6.455,-5.816 7.234,-6.55L5.724,-8.855C4.88,-8.103 3.847,-7.66 2.843,-7.66C2.393,-7.66 1.897,-7.77 1.143,-7.962C0.135,-8.209 -0.567,-8.313 -1.346,-8.313C-4.9,-8.313 -7.198,-6.471 -7.198,-3.633C-7.198,-1.567 -6.23,-0.288 -4.225,0.225C-6.503,0.815 -6.771,1.661 -6.771,2.548C-6.771,3.5 -6.37,4.125 -5.715,4.36C-5.062,4.632 -4.004,4.774 -2.379,4.796L-0.835,4.825C0.601,4.852 1.711,5.231 1.711,6.478C1.711,7.051 1.357,7.56 0.819,7.887C0.239,8.242 -0.536,8.343 -1.465,8.343C-3.135,8.343 -4.058,7.756 -4.058,6.637C-4.058,6.259 -4.033,6.07 -3.894,5.746L-7.263,5.746C-7.389,6.021 -7.587,6.396 -7.587,7.16C-7.587,8.1 -7.198,8.92 -6.442,9.62C-5.197,10.788 -3.165,11.11 -1.188,11.11C0.975,11.11 3.066,10.623 4.279,9.32C5.044,8.51 5.395,7.616 5.395,6.446C5.395,5.206 5.017,4.258 4.202,3.5C3.225,2.604 2.118,2.287 0,2.255M-3.543,-3.597C-3.543,-4.898 -2.757,-5.657 -1.375,-5.657C0,-5.657 0.819,-4.898 0.819,-3.597C0.819,-2.33 0.031,-1.619 -1.405,-1.619C-2.683,-1.619 -3.543,-2.195 -3.543,-3.597" style="fill:white;fill-rule:nonzero;"/>
            </g>
            <g transform="matrix(4.16667,0,0,4.16667,896.41,1243.71)">
                <path d="M0,-14.441C-3.741,-14.441 -6.23,-11.537 -6.23,-7.178C-6.23,-2.813 -3.761,0 0,0C2.141,0 3.523,-0.725 4.578,-1.92C5.778,-3.279 6.316,-4.904 6.316,-7.286C6.316,-9.534 5.825,-11.056 4.715,-12.355C3.523,-13.759 1.983,-14.441 0,-14.441M0.112,-2.624C-0.596,-2.624 -1.407,-3.007 -1.729,-3.763C-2.033,-4.474 -2.188,-5.661 -2.188,-7.259C-2.188,-8.638 -2.062,-9.62 -1.814,-10.345C-1.515,-11.216 -0.806,-11.756 0.054,-11.756C0.704,-11.756 1.274,-11.488 1.627,-11.024C2.116,-10.399 2.354,-9.183 2.354,-7.315C2.354,-4.04 1.679,-2.624 0.112,-2.624" style="fill:white;fill-rule:nonzero;"/>
            </g>
            <g transform="matrix(4.16667,0,0,4.16667,982.748,1221.15)">
                <path d="M0,-3.795C-0.378,-2.035 -0.675,0.13 -0.759,0.727C-0.759,0.727 -1.159,-1.598 -1.785,-4.178L-2.897,-8.747L-6.311,-8.747L-7.603,-4.09C-8.258,-1.74 -8.614,0.727 -8.614,0.727C-8.614,0.727 -9.044,-1.981 -9.399,-3.584L-10.536,-8.913L-14.142,-8.508L-10.345,5.118L-6.957,5.118L-6.257,2.266C-5.926,0.977 -5.334,-1.409 -5.062,-2.604C-4.851,-3.604 -4.812,-3.795 -4.74,-4.391C-4.659,-3.849 -4.632,-3.665 -4.522,-3.016C-4.36,-2.087 -4.033,-0.77 -3.739,0.346L-2.492,5.118L0.842,5.118L4.803,-8.747L1.06,-8.747L0,-3.795Z" style="fill:white;fill-rule:nonzero;"/>
            </g>
        </g>
    </g>
</svg>
